<svg xmlns="http://www.w3.org/2000/svg" width="16" height="17" viewBox="0 0 16 17" fill="none">
  <g clip-path="url(#clip0_649_10167)">
    <path d="M6.60183 8.55085C7.64633 8.55085 8.55082 8.1762 9.28984 7.43705C10.0289 6.69805 10.4035 5.79382 10.4035 4.7492C10.4035 3.70488 10.0289 2.80055 9.28972 2.06128C8.55057 1.32237 7.64621 0.947754 6.60183 0.947754C5.55718 0.947754 4.65291 1.32237 3.91392 2.0614C3.17492 2.80043 2.80015 3.70479 2.80015 4.7492C2.80015 5.79382 3.17489 6.69818 3.91404 7.43721C4.65319 8.17611 5.55755 8.55085 6.60183 8.55085ZM13.2537 13.0847C13.2324 12.7771 13.1893 12.4416 13.1258 12.0874C13.0618 11.7304 12.9793 11.393 12.8805 11.0846C12.7785 10.7658 12.6398 10.4511 12.4684 10.1494C12.2904 9.83633 12.0813 9.56369 11.8467 9.33936C11.6014 9.10467 11.3011 8.91597 10.9538 8.7783C10.6077 8.64142 10.2242 8.57206 9.81391 8.57206C9.65278 8.57206 9.49697 8.63816 9.19604 8.8341C8.98212 8.97339 8.76757 9.11171 8.55239 9.24903C8.34563 9.38079 8.06553 9.50423 7.71955 9.61598C7.38202 9.7252 7.03931 9.78059 6.70104 9.78059C6.3628 9.78059 6.02018 9.7252 5.68228 9.61598C5.3367 9.50432 5.0566 9.38092 4.85006 9.24916C4.61053 9.0961 4.39381 8.95642 4.20582 8.83394C3.90525 8.63803 3.7493 8.57191 3.58819 8.57191C3.17778 8.57191 2.79438 8.64139 2.4484 8.77845C2.10135 8.91585 1.8009 9.10455 1.55536 9.33948C1.32091 9.56394 1.11175 9.83642 0.933998 10.1494C0.762658 10.4511 0.623934 10.7657 0.521802 11.0847C0.423154 11.3931 0.34069 11.7304 0.276631 12.0874C0.213157 12.4411 0.17006 12.7768 0.148727 13.085C0.127506 13.3953 0.116987 13.7061 0.11719 14.0171C0.11719 14.841 0.379102 15.508 0.895587 15.9999C1.40569 16.4853 2.08063 16.7316 2.90141 16.7316H10.5014C11.3222 16.7316 11.9969 16.4855 12.5071 15.9999C13.0237 15.5084 13.2856 14.8413 13.2856 14.017C13.2855 13.6989 13.2748 13.3852 13.2537 13.0847Z" fill="#F9F9F9"/>
  </g>
  <defs>
    <clipPath id="clip0_649_10167">
      <rect width="15.7838" height="15.7838" fill="white" transform="translate(0.136719 0.946289)"/>
    </clipPath>
  </defs>
</svg>