<svg xmlns="http://www.w3.org/2000/svg" width="170" height="241" viewBox="0 0 170 241" fill="none">
  <path d="M84.2736 240.271C80.9736 240.271 77.8291 239.649 75.479 238.374L4.14713 199.759C1.80516 198.492 0.519531 196.718 0.519531 194.775C0.519531 192.449 2.36199 190.122 5.57196 188.387L74.0541 151.307C80.0155 148.082 89.0722 147.737 94.2475 150.539L165.579 189.155C167.921 190.422 169.207 192.195 169.207 194.138C169.207 196.465 167.364 198.791 164.155 200.527L95.6723 237.606C92.4214 239.365 88.237 240.271 84.2736 240.271ZM75.8884 237.714C80.8426 240.394 89.5308 240.048 95.2629 236.946L163.745 199.866C166.693 198.269 168.388 196.181 168.388 194.138C168.388 192.479 167.242 190.944 165.17 189.815L93.8381 151.2C88.8921 148.52 80.1957 148.865 74.4636 151.967L5.9814 189.047C3.03346 190.644 1.3384 192.733 1.3384 194.775C1.3384 196.434 2.48482 197.97 4.55657 199.098L75.8884 237.714Z" fill="url(#paint0_linear_649_10249)"/>
  <path opacity="0.5" d="M84.2736 228.025C80.9736 228.025 77.8291 227.403 75.479 226.129L4.14713 187.513C1.80516 186.246 0.519531 184.472 0.519531 182.53C0.519531 180.203 2.36199 177.877 5.57196 176.141L74.0541 139.062C80.0155 135.837 89.0722 135.491 94.2475 138.294L165.579 176.909C167.921 178.176 169.207 179.95 169.207 181.892C169.207 184.219 167.364 186.546 164.155 188.281L95.6723 225.361C92.4214 227.119 88.237 228.025 84.2736 228.025ZM75.8884 225.468C80.8426 228.148 89.5308 227.802 95.2629 224.7L163.745 187.621C166.693 186.023 168.388 183.935 168.388 181.892C168.388 180.234 167.242 178.698 165.17 177.569L93.8381 138.954C88.8921 136.274 80.1957 136.62 74.4636 139.722L5.9814 176.802C3.03346 178.399 1.3384 180.487 1.3384 182.53C1.3384 184.188 2.48482 185.724 4.55657 186.853L75.8884 225.468Z" fill="url(#paint1_linear_649_10249)"/>
  <path d="M76.9418 232.109L15.4282 200.013C11.0555 197.733 11.6041 193.744 16.6565 191.11L75.7217 160.293C80.7741 157.659 88.4142 157.37 92.787 159.657L154.301 191.753C158.673 194.033 158.125 198.022 153.072 200.656L94.0071 231.473C88.9546 234.107 81.3146 234.396 76.9418 232.109Z" fill="#6DE0F6"/>
  <path d="M14.1039 199.147C14.7589 198.51 15.6024 197.903 16.6505 197.356L75.7157 166.539C80.7681 163.905 88.4082 163.616 92.781 165.903L154.295 198C154.802 198.266 155.236 198.555 155.613 198.865C158.119 196.438 157.758 193.559 154.295 191.753L92.781 159.657C88.4082 157.377 80.7681 157.659 75.7157 160.293L16.6505 191.11C12.1877 193.441 11.246 196.823 14.1039 199.147Z" fill="#25BFEC"/>
  <path d="M127.888 192.973C130.708 190.424 130.708 186.291 127.888 183.742C125.067 181.193 120.494 181.193 117.673 183.742C114.853 186.291 114.853 190.424 117.673 192.973C120.494 195.523 125.067 195.523 127.888 192.973Z" fill="#6DE0F6"/>
  <path d="M137.887 192.316C139.908 192.316 141.547 190.835 141.547 189.008C141.547 187.181 139.908 185.7 137.887 185.7C135.865 185.7 134.227 187.181 134.227 189.008C134.227 190.835 135.865 192.316 137.887 192.316Z" fill="#6DE0F6"/>
  <path d="M138.001 181.192C138.001 181.917 137.346 182.509 136.544 182.509C135.741 182.509 135.086 181.917 135.086 181.192C135.086 180.467 135.741 179.875 136.544 179.875C137.346 179.875 138.001 180.467 138.001 181.192Z" fill="#6DE0F6"/>
  <path d="M143.809 122.194H118.972L91.3273 107.771C87.7652 105.913 81.5499 106.142 77.4392 108.289L50.7932 122.194H25.9732V187.128C25.8749 188.386 26.6446 189.599 28.3561 190.488L78.43 216.612C81.9921 218.469 88.2074 218.24 92.3181 216.094L140.394 191.006C142.531 189.888 143.669 188.482 143.776 187.12H143.792V122.187L143.809 122.194Z" fill="url(#paint2_linear_649_10249)"/>
  <path d="M143.095 122.192V187.843H143.079C143.029 188.495 142.735 189.161 142.219 189.805C143.193 188.961 143.725 188.036 143.799 187.133H143.816V122.2H143.095V122.192Z" fill="#6EE8FC"/>
  <path d="M78.4422 151.678L28.3683 125.554C24.8062 123.697 25.2566 120.455 29.3673 118.309L77.4432 93.2208C81.5539 91.0746 87.7692 90.8452 91.3312 92.7027L141.405 118.827C144.967 120.685 144.517 123.926 140.406 126.072L92.3303 151.16C88.2195 153.307 82.0043 153.536 78.4422 151.678Z" fill="url(#paint3_linear_649_10249)"/>
  <path d="M79.4331 151.679L29.3591 125.555C25.797 123.697 26.2474 120.455 30.3581 118.309L78.434 93.2211C80.5467 92.1184 83.208 91.5264 85.7793 91.4598C82.9133 91.3858 79.8261 91.9778 77.4432 93.2211L29.3673 118.309C25.2566 120.455 24.8062 123.697 28.3683 125.555L78.4422 151.679C80.1782 152.582 82.5448 152.989 84.985 152.922C82.8969 152.87 80.9316 152.463 79.4331 151.679Z" fill="#F88B93"/>
  <path d="M141.411 118.826L91.3375 92.7015C89.5933 91.7913 87.2185 91.3842 84.7619 91.4582C86.8419 91.5174 88.8072 91.9171 90.3057 92.7015L140.38 118.826C143.942 120.683 143.491 123.925 139.381 126.071L91.3047 151.159C89.2084 152.255 86.5553 152.847 83.9922 152.921C86.8664 152.995 89.9536 152.403 92.3365 151.159L140.412 126.071C144.523 123.925 144.973 120.683 141.411 118.826Z" fill="#6EE8FC"/>
  <path d="M80.0806 144.145L42.8056 124.697C40.1524 123.313 40.4882 120.9 43.5507 119.301L79.3436 100.622C82.4062 99.0237 87.0328 98.8535 89.6859 100.237L126.961 119.686C129.614 121.07 129.278 123.483 126.216 125.081L90.4229 143.761C87.3603 145.359 82.7337 145.529 80.0806 144.145Z" fill="url(#paint4_linear_649_10249)"/>
  <path d="M81.425 138.101L54.4186 124.01C52.4943 123.011 52.74 121.257 54.9591 120.102L80.8927 106.574C83.1119 105.42 86.4611 105.294 88.3854 106.293L115.392 120.384C117.316 121.383 117.07 123.137 114.851 124.291L88.9177 137.82C86.6985 138.974 83.3493 139.1 81.425 138.101Z" fill="#6DE0F6"/>
  <mask id="mask0_649_10249" style="mask-type:luminance" maskUnits="userSpaceOnUse" x="53" y="105" width="64" height="34">
    <path d="M81.4602 138.104L54.4538 124.013C52.5294 123.014 52.7751 121.26 54.9942 120.106L80.9279 106.577C83.147 105.423 86.4962 105.297 88.4206 106.296L115.427 120.387C117.351 121.386 117.106 123.14 114.886 124.295L88.9528 137.823C86.7337 138.977 83.3845 139.103 81.4602 138.104Z" fill="white"/>
  </mask>
  <g mask="url(#mask0_649_10249)">
    <path d="M54.9575 122.005L80.8993 108.47C83.1185 107.315 86.4759 107.189 88.392 108.188L115.407 122.287C115.832 122.509 116.135 122.775 116.348 123.056C116.995 122.102 116.717 121.066 115.407 120.385L88.392 106.286C86.4677 105.287 83.1185 105.413 80.8993 106.568L54.9575 120.103C53.2297 121.006 52.722 122.257 53.4754 123.249C53.7783 122.805 54.2533 122.375 54.9575 122.013V122.005Z" fill="#267FE5"/>
    <path d="M54.9548 124.307L80.8966 110.772C83.1158 109.617 86.4732 109.491 88.3893 110.49L115.404 124.589C115.74 124.766 115.985 124.973 116.198 125.188C117.058 124.174 116.821 123.027 115.404 122.294L88.3893 108.196C86.465 107.197 83.1158 107.323 80.8966 108.477L54.9548 122.013C53.1287 122.968 52.662 124.315 53.6282 125.329C53.9312 124.966 54.3734 124.618 54.9548 124.315V124.307Z" fill="#25BFEC"/>
    <path d="M53.8797 127.868C54.1663 127.602 54.5021 127.343 54.9442 127.113L80.8861 113.578C83.1052 112.423 86.4626 112.297 88.3787 113.296L115.393 127.395C115.598 127.498 115.762 127.624 115.926 127.742C117.064 126.669 116.933 125.389 115.393 124.59L88.3787 110.492C86.4544 109.492 83.1052 109.618 80.8861 110.773L54.9442 124.309C52.9626 125.345 52.5695 126.847 53.8797 127.868Z" fill="#18D0F7"/>
  </g>
  <path d="M143.809 111.408H118.972L91.3273 96.9845C87.7652 95.1269 81.5499 95.3563 77.4392 97.5025L50.7932 111.408H25.9732V116.041C25.8749 117.299 26.6446 118.513 28.3561 119.401L78.43 145.525C81.9921 147.383 88.2074 147.153 92.3181 145.007L140.394 119.919C142.531 118.802 143.669 117.395 143.776 116.034H143.792V111.401L143.809 111.408Z" fill="url(#paint5_linear_649_10249)"/>
  <path d="M143.095 111.409V116.759H143.079C143.029 117.411 142.735 118.077 142.219 118.721C143.193 117.877 143.725 116.952 143.799 116.049H143.816V111.416H143.095V111.409Z" fill="#6EE8FC"/>
  <path d="M78.4422 140.901L28.3683 114.777C24.8062 112.919 25.2566 109.678 29.3673 107.532L77.4432 82.4434C81.5539 80.2972 87.7692 80.0678 91.3312 81.9254L141.405 108.05C144.967 109.907 144.517 113.149 140.406 115.295L92.3303 140.383C88.2195 142.529 82.0043 142.759 78.4422 140.901Z" fill="url(#paint6_linear_649_10249)"/>
  <path d="M79.4331 140.901L29.3591 114.777C25.797 112.92 26.2474 109.678 30.3581 107.532L78.434 82.4438C80.5467 81.3411 83.208 80.749 85.7793 80.6824C82.9133 80.6084 79.8261 81.2005 77.4432 82.4438L29.3673 107.532C25.2566 109.678 24.8062 112.92 28.3683 114.777L78.4422 140.901C80.1782 141.804 82.5448 142.211 84.985 142.145C82.8969 142.093 80.9316 141.686 79.4331 140.901Z" fill="#F88B93"/>
  <path d="M141.411 108.048L91.3375 81.9242C89.5933 81.0139 87.2185 80.6069 84.7619 80.6809C86.8419 80.7401 88.8072 81.1397 90.3057 81.9242L140.38 108.048C143.942 109.906 143.491 113.147 139.381 115.294L91.3047 140.382C89.2084 141.477 86.5553 142.069 83.9922 142.143C86.8664 142.217 89.9536 141.625 92.3365 140.382L140.412 115.294C144.523 113.147 144.973 109.906 141.411 108.048Z" fill="#6EE8FC"/>
  <path d="M80.0806 133.366L42.8056 113.917C40.1524 112.533 40.4882 110.12 43.5507 108.522L79.3436 89.8425C82.4062 88.2439 87.0328 88.0737 89.6859 89.4576L126.961 108.907C129.614 110.29 129.278 112.703 126.216 114.302L90.4229 132.981C87.3603 134.579 82.7337 134.75 80.0806 133.366Z" fill="url(#paint7_linear_649_10249)"/>
  <path d="M81.425 127.313L54.4186 113.222C52.4943 112.223 52.74 110.469 54.9591 109.315L80.8927 95.7865C83.1119 94.632 86.4611 94.5062 88.3854 95.5052L115.392 109.596C117.316 110.595 117.07 112.349 114.851 113.504L88.9177 127.032C86.6985 128.186 83.3493 128.312 81.425 127.313Z" fill="#6DE0F6"/>
  <mask id="mask1_649_10249" style="mask-type:luminance" maskUnits="userSpaceOnUse" x="53" y="94" width="64" height="34">
    <path d="M81.4602 127.315L54.4538 113.224C52.5294 112.225 52.7751 110.471 54.9942 109.316L80.9279 95.7879C83.147 94.6334 86.4962 94.5076 88.4206 95.5067L115.427 109.598C117.351 110.597 117.106 112.351 114.886 113.505L88.9528 127.033C86.7337 128.188 83.3845 128.314 81.4602 127.315Z" fill="white"/>
  </mask>
  <g mask="url(#mask1_649_10249)">
    <path d="M54.9575 111.22L80.8993 97.684C83.1185 96.5295 86.4759 96.4037 88.392 97.4028L115.407 111.501C115.832 111.723 116.135 111.989 116.348 112.271C116.995 111.316 116.717 110.28 115.407 109.599L88.392 95.5008C86.4677 94.5018 83.1185 94.6276 80.8993 95.7821L54.9575 109.318C53.2297 110.221 52.722 111.471 53.4754 112.463C53.7783 112.019 54.2533 111.59 54.9575 111.227V111.22Z" fill="#267FE5"/>
    <path d="M54.9548 113.522L80.8966 99.9859C83.1158 98.8314 86.4732 98.7056 88.3893 99.7047L115.404 113.803C115.74 113.981 115.985 114.188 116.198 114.402C117.058 113.388 116.821 112.241 115.404 111.509L88.3893 97.4105C86.465 96.4114 83.1158 96.5372 80.8966 97.6917L54.9548 111.228C53.1287 112.182 52.662 113.529 53.6282 114.543C53.9312 114.18 54.3734 113.833 54.9548 113.529V113.522Z" fill="#25BFEC"/>
    <path d="M53.8797 117.088C54.1663 116.822 54.5021 116.563 54.9442 116.334L80.8861 102.798C83.1052 101.643 86.4626 101.518 88.3787 102.517L115.393 116.615C115.598 116.718 115.762 116.844 115.926 116.963C117.064 115.89 116.933 114.609 115.393 113.81L88.3787 99.7118C86.4544 98.7127 83.1052 98.8385 80.8861 99.993L54.9442 113.529C52.9626 114.565 52.5695 116.067 53.8797 117.088Z" fill="#18D0F7"/>
  </g>
  <path d="M143.809 102.223H118.972L91.3273 87.7994C87.7652 85.9418 81.5499 86.1713 77.4392 88.3174L50.7932 102.223H25.9732V106.856C25.8749 108.114 26.6446 109.328 28.3561 110.216L78.43 136.34C81.9921 138.198 88.2074 137.968 92.3181 135.822L140.394 110.734C142.531 109.616 143.669 108.21 143.776 106.849H143.792V102.216L143.809 102.223Z" fill="url(#paint8_linear_649_10249)"/>
  <path d="M143.095 102.224V107.574H143.079C143.029 108.226 142.735 108.892 142.219 109.535C143.193 108.692 143.725 107.767 143.799 106.856H143.816V102.224H143.095Z" fill="#6EE8FC"/>
  <path d="M78.4422 131.716L28.3683 105.592C24.8062 103.734 25.2566 100.493 29.3673 98.3465L77.4432 73.2584C81.5539 71.1122 87.7692 70.8827 91.3312 72.7403L141.405 98.8646C144.967 100.722 144.517 103.964 140.406 106.11L92.3303 131.198C88.2195 133.344 82.0043 133.574 78.4422 131.716Z" fill="url(#paint9_linear_649_10249)"/>
  <path d="M79.4331 131.716L29.3591 105.592C25.797 103.735 26.2474 100.493 30.3581 98.3469L78.434 73.2587C80.5467 72.156 83.208 71.564 85.7793 71.4974C82.9133 71.4234 79.8261 72.0154 77.4432 73.2587L29.3673 98.3469C25.2566 100.493 24.8062 103.735 28.3683 105.592L78.4422 131.716C80.1782 132.619 82.5448 133.026 84.985 132.96C82.8969 132.908 80.9316 132.501 79.4331 131.716Z" fill="#F88B93"/>
  <path d="M141.411 98.8634L91.3375 72.7391C89.5933 71.8289 87.2185 71.4218 84.7619 71.4958C86.8419 71.555 88.8072 71.9547 90.3057 72.7391L140.38 98.8634C143.942 100.721 143.491 103.962 139.381 106.109L91.3047 131.197C89.2084 132.292 86.5553 132.884 83.9922 132.958C86.8664 133.032 89.9536 132.44 92.3365 131.197L140.412 106.109C144.523 103.962 144.973 100.721 141.411 98.8634Z" fill="#6EE8FC"/>
  <path d="M80.0806 124.183L42.8056 104.734C40.1524 103.35 40.4882 100.938 43.5507 99.3391L79.3436 80.6599C82.4062 79.0613 87.0328 78.8911 89.6859 80.275L126.961 99.7239C129.614 101.108 129.278 103.52 126.216 105.119L90.4229 123.798C87.3603 125.397 82.7337 125.567 80.0806 124.183Z" fill="url(#paint10_linear_649_10249)"/>
  <path d="M81.425 118.126L54.4186 104.035C52.4943 103.036 52.74 101.282 54.9591 100.128L80.8927 86.5995C83.1119 85.445 86.4611 85.3191 88.3854 86.3182L115.392 100.409C117.316 101.408 117.07 103.162 114.851 104.317L88.9177 117.845C86.6985 118.999 83.3493 119.125 81.425 118.126Z" fill="#6DE0F6"/>
  <mask id="mask2_649_10249" style="mask-type:luminance" maskUnits="userSpaceOnUse" x="53" y="85" width="64" height="34">
    <path d="M81.4602 118.128L54.4538 104.037C52.5294 103.038 52.7751 101.284 54.9942 100.13L80.9279 86.6014C83.147 85.4469 86.4962 85.3211 88.4206 86.3202L115.427 100.411C117.351 101.41 117.106 103.164 114.886 104.319L88.9528 117.847C86.7337 119.001 83.3845 119.127 81.4602 118.128Z" fill="white"/>
  </mask>
  <g mask="url(#mask2_649_10249)">
    <path d="M54.9575 102.033L80.8993 88.4975C83.1185 87.343 86.4759 87.2172 88.392 88.2163L115.407 102.315C115.832 102.537 116.135 102.803 116.348 103.084C116.995 102.129 116.717 101.093 115.407 100.413L88.392 86.3143C86.4677 85.3152 83.1185 85.441 80.8993 86.5955L54.9575 100.131C53.2297 101.034 52.722 102.285 53.4754 103.277C53.7783 102.833 54.2533 102.403 54.9575 102.041V102.033Z" fill="#267FE5"/>
    <path d="M54.9548 104.334L80.8966 90.798C83.1158 89.6435 86.4732 89.5176 88.3893 90.5167L115.404 104.615C115.74 104.793 115.985 105 116.198 105.214C117.058 104.201 116.821 103.053 115.404 102.321L88.3893 88.2225C86.465 87.2234 83.1158 87.3492 80.8966 88.5037L54.9548 102.04C53.1287 102.994 52.662 104.341 53.6282 105.355C53.9312 104.992 54.3734 104.645 54.9548 104.341V104.334Z" fill="#25BFEC"/>
    <path d="M53.8797 107.9C54.1663 107.633 54.5021 107.374 54.9442 107.145L80.8861 93.6089C83.1052 92.4544 86.4626 92.3286 88.3787 93.3277L115.393 107.426C115.598 107.529 115.762 107.655 115.926 107.774C117.064 106.701 116.933 105.42 115.393 104.621L88.3787 90.5228C86.4544 89.5237 83.1052 89.6495 80.8861 90.804L54.9442 104.34C52.9626 105.376 52.5695 106.878 53.8797 107.9Z" fill="#18D0F7"/>
  </g>
  <path d="M74.7683 206.827L34.0949 185.609C32.9977 185.039 32.1133 183.507 32.1133 182.182V137.053C32.1133 135.736 32.9977 135.129 34.0949 135.699L74.7683 156.917C75.8655 157.486 76.7499 159.018 76.7499 160.343V205.48C76.7499 206.797 75.8655 207.404 74.7683 206.834V206.827Z" fill="url(#paint11_linear_649_10249)"/>
  <path d="M75.4889 206.546L34.8156 185.329C33.7183 184.759 32.8339 183.227 32.8339 181.902V136.766C32.8339 136.174 33.0222 135.737 33.317 135.471C32.6046 135.471 32.1133 136.055 32.1133 137.04V182.169C32.1133 183.486 32.9977 185.025 34.095 185.595L74.7683 206.813C75.3742 207.131 75.9065 207.072 76.275 206.746C76.0375 206.746 75.7755 206.68 75.4971 206.532L75.4889 206.546Z" fill="#6DE0F6"/>
  <path d="M68.7704 196.369L40.0526 181.383C39.2829 180.976 38.6523 179.895 38.6523 178.963V147.096C38.6523 146.163 39.2829 145.734 40.0526 146.141L68.7704 161.127C69.5402 161.534 70.1707 162.615 70.1707 163.547V195.415C70.1707 196.347 69.5402 196.776 68.7704 196.369Z" fill="#6DE0F6"/>
  <path d="M42.0456 180.199C41.2759 179.792 40.6454 178.711 40.6454 177.779V146.445L40.0721 146.141C39.3024 145.734 38.6719 146.163 38.6719 147.096V178.963C38.6719 179.895 39.3024 180.976 40.0721 181.383L68.79 196.369C69.5597 196.776 70.1902 196.347 70.1902 195.415V194.882L42.0456 180.199Z" fill="#267FE5"/>
  <path d="M49.6873 159.848L43.8242 156.792V155.889L49.6873 158.945V159.848Z" fill="#267FE5"/>
  <path d="M54.3417 162.267L51.4102 160.743V159.847L54.3417 161.372V162.267Z" fill="#18D0F7"/>
  <path d="M58.7948 164.597L55.8633 163.065V162.17L58.7948 163.694V164.597Z" fill="#267FE5"/>
  <path d="M63.2362 166.923L60.3047 165.391V164.496L63.2362 166.02V166.923Z" fill="#267FE5"/>
  <path d="M49.6873 162.002L43.8242 158.946V158.05L49.6873 161.107V162.002Z" fill="#267FE5"/>
  <path d="M54.3417 164.429L51.4102 162.897V162.002L54.3417 163.526V164.429Z" fill="#18D0F7"/>
  <path d="M58.7948 166.753L55.8633 165.228V164.325L58.7948 165.857V166.753Z" fill="#267FE5"/>
  <path d="M63.2362 169.078L60.3047 167.553V166.65L63.2362 168.182V169.078Z" fill="#267FE5"/>
  <path d="M49.6873 164.157L43.8242 161.107V160.205L49.6873 163.261V164.157Z" fill="#267FE5"/>
  <path d="M56.5772 166.856L55.8648 166.486L51.4102 164.155V165.058L55.8648 167.381L56.5772 167.751L58.7964 168.913V168.011L56.5772 166.856Z" fill="#267FE5"/>
  <path d="M63.2362 171.239L60.3047 169.707V168.812L63.2362 170.337V171.239Z" fill="#267FE5"/>
  <path d="M64.7617 166.821V168.982V169.877V171.135V171.394V172.038L67.6851 173.563V172.919V172.667V171.409V170.506V168.353L64.7617 166.821Z" fill="#267FE5"/>
  <path d="M49.6873 166.318L43.8242 163.262V162.366L49.6873 165.415V166.318Z" fill="#18D0F7"/>
  <path d="M54.3417 168.744L51.4102 167.212V166.316L54.3417 167.841V168.744Z" fill="#267FE5"/>
  <path d="M58.7948 170.17L58.0087 169.755L55.8633 168.638V169.541L58.0087 170.658L58.7948 171.065L63.2495 173.389V172.493L58.7948 170.17Z" fill="#267FE5"/>
  <path d="M67.6851 175.713L64.7617 174.189V173.293L67.6851 174.818V175.713Z" fill="#267FE5"/>
  <path d="M49.6873 172.784L43.8242 169.728V168.833L49.6873 171.889V172.784Z" fill="#267FE5"/>
  <path d="M54.3417 175.211L51.4102 173.686V172.783L54.3417 174.315V175.211Z" fill="#267FE5"/>
  <path d="M58.7948 176.64L58.0087 176.233L55.8633 175.108V176.011L58.0087 177.128L58.7948 177.535L63.2495 179.867V178.964L58.7948 176.64Z" fill="#267FE5"/>
  <path d="M67.6851 182.19L64.7617 180.658V179.762L67.6851 181.287V182.19Z" fill="#267FE5"/>
  <path d="M49.6873 174.948L43.8242 171.891V170.988L49.6873 174.045V174.948Z" fill="#267FE5"/>
  <path d="M54.3417 177.372L51.4102 175.84V174.945L54.3417 176.469V177.372Z" fill="#267FE5"/>
  <path d="M67.6851 184.345L64.7617 182.821V181.918L67.6851 183.45V184.345Z" fill="#267FE5"/>
  <path d="M49.6873 177.099L43.8242 174.043V173.147L49.6873 176.204V177.099Z" fill="#267FE5"/>
  <path d="M54.3417 179.526L51.4102 178.002V177.099L54.3417 178.631V179.526Z" fill="#267FE5"/>
  <path d="M58.7948 178.794L58.0087 178.387L55.8633 177.269V177.898V178.165V180.326L58.0087 181.443L58.7948 181.85L63.2495 184.174V182.02V181.754V181.125L58.7948 178.794Z" fill="#18D0F7"/>
  <path d="M67.6851 186.507L64.7617 184.975V184.08L67.6851 185.604V186.507Z" fill="#267FE5"/>
  <path d="M49.6873 168.469L43.8242 165.412V164.517L49.6873 167.573V168.469Z" fill="#267FE5"/>
  <path d="M54.3417 170.897L51.4102 169.373V168.47L54.3417 170.002V170.897Z" fill="#18D0F7"/>
  <path d="M63.2362 175.552L60.3047 174.02V173.125L63.2362 174.649V175.552Z" fill="#267FE5"/>
  <path d="M67.6851 177.876L64.7617 176.344V175.449L67.6851 176.973V177.876Z" fill="#267FE5"/>
  <path d="M49.6873 170.632L43.8242 167.575V166.672L49.6873 169.729V170.632Z" fill="#267FE5"/>
  <path d="M54.3417 173.06L51.4102 171.528V170.632L54.3417 172.157V173.06Z" fill="#267FE5"/>
  <path d="M55.8633 170.803V171.247V171.698V173.852L58.7948 175.384V173.223V172.779V172.327L55.8633 170.803Z" fill="#18D0F7"/>
  <path d="M63.2362 177.706L60.3047 176.181V175.278L63.2362 176.81V177.706Z" fill="#267FE5"/>
  <path d="M67.6851 180.03L64.7617 178.505V177.603L67.6851 179.134V180.03Z" fill="#267FE5"/>
  <path opacity="0.5" d="M93.5468 206.124C93.3339 206.124 93.1374 206.08 92.949 205.984C92.4659 205.732 92.1875 205.162 92.1875 204.437V163.578C92.1875 162.261 93.0801 160.729 94.1773 160.159L133.917 139.422C134.441 139.148 134.957 139.119 135.375 139.333C135.858 139.585 136.136 140.147 136.136 140.88V181.739C136.136 183.056 135.244 184.588 134.146 185.166L94.4066 205.902C94.1118 206.058 93.8171 206.132 93.5468 206.132V206.124ZM134.777 139.585C134.58 139.585 134.368 139.644 134.146 139.763L94.4066 160.499C93.4322 161.01 92.6379 162.386 92.6379 163.57V204.429C92.6379 205.014 92.8344 205.451 93.1783 205.628C93.4486 205.769 93.8007 205.739 94.1855 205.539L133.925 184.803C134.9 184.292 135.694 182.916 135.694 181.732V140.873C135.694 140.288 135.498 139.851 135.154 139.674C135.039 139.615 134.916 139.585 134.777 139.585Z" fill="#0F133B"/>
  <path style="mix-blend-mode:lighten" d="M116.279 16.7387H52.8144L52.7734 122.676H52.8144C52.6669 124.005 53.0683 125.321 54.0678 126.261L81.0529 151.802C82.9698 153.615 86.3204 153.386 88.5405 151.291L114.444 126.771C115.681 125.603 116.279 124.086 116.255 122.676H116.279V0.558594L116.279 16.7387Z" fill="url(#paint12_linear_649_10249)"/>
  <defs>
    <linearGradient id="paint0_linear_649_10249" x1="0.52772" y1="194.461" x2="169.207" y2="194.461" gradientUnits="userSpaceOnUse">
      <stop stop-color="#D4088C"/>
      <stop offset="0.23" stop-color="#D4088C"/>
      <stop offset="0.51" stop-color="#6EE1F8"/>
      <stop offset="0.78" stop-color="#6EE8FC"/>
      <stop offset="1" stop-color="#6EE8FC"/>
    </linearGradient>
    <linearGradient id="paint1_linear_649_10249" x1="-57.9397" y1="182.215" x2="-57.1208" y2="182.215" gradientUnits="userSpaceOnUse">
      <stop stop-color="#D4088C"/>
      <stop offset="0.23" stop-color="#D4088C"/>
      <stop offset="0.51" stop-color="#6EE1F8"/>
      <stop offset="0.78" stop-color="#6EE8FC"/>
      <stop offset="1" stop-color="#6EE8FC"/>
    </linearGradient>
    <linearGradient id="paint2_linear_649_10249" x1="14.8283" y1="162.195" x2="158.393" y2="162.195" gradientUnits="userSpaceOnUse">
      <stop stop-color="#A31FA9"/>
      <stop offset="0.07" stop-color="#8A16A0"/>
      <stop offset="0.15" stop-color="#740F98"/>
      <stop offset="0.24" stop-color="#640A92"/>
      <stop offset="0.34" stop-color="#5A068F"/>
      <stop offset="0.48" stop-color="#58068E"/>
      <stop offset="0.63" stop-color="#4D21A3"/>
      <stop offset="0.94" stop-color="#3167D9"/>
      <stop offset="1" stop-color="#2C75E4"/>
    </linearGradient>
    <linearGradient id="paint3_linear_649_10249" x1="-22.4573" y1="97.4167" x2="64.8151" y2="78.8328" gradientUnits="userSpaceOnUse">
      <stop stop-color="#8D139B"/>
      <stop offset="0.17" stop-color="#841BA1"/>
      <stop offset="0.43" stop-color="#6D32B1"/>
      <stop offset="0.76" stop-color="#4958CC"/>
      <stop offset="1" stop-color="#2979E4"/>
    </linearGradient>
    <linearGradient id="paint4_linear_649_10249" x1="-10.9889" y1="95.4241" x2="53.9849" y2="81.5892" gradientUnits="userSpaceOnUse">
      <stop stop-color="#630692"/>
      <stop offset="0.23" stop-color="#5A0D93"/>
      <stop offset="0.59" stop-color="#432299"/>
      <stop offset="1" stop-color="#2142A1"/>
    </linearGradient>
    <linearGradient id="paint5_linear_649_10249" x1="-1384.03" y1="121.259" x2="-1383.21" y2="121.259" gradientUnits="userSpaceOnUse">
      <stop stop-color="#A31FA9"/>
      <stop offset="0.07" stop-color="#8A16A0"/>
      <stop offset="0.15" stop-color="#740F98"/>
      <stop offset="0.24" stop-color="#640A92"/>
      <stop offset="0.34" stop-color="#5A068F"/>
      <stop offset="0.48" stop-color="#58068E"/>
      <stop offset="0.63" stop-color="#4D21A3"/>
      <stop offset="0.94" stop-color="#3167D9"/>
      <stop offset="1" stop-color="#2C75E4"/>
    </linearGradient>
    <linearGradient id="paint6_linear_649_10249" x1="-27.6197" y1="83.9451" x2="59.6452" y2="65.3568" gradientUnits="userSpaceOnUse">
      <stop stop-color="#8D139B"/>
      <stop offset="0.17" stop-color="#841BA1"/>
      <stop offset="0.43" stop-color="#6D32B1"/>
      <stop offset="0.76" stop-color="#4958CC"/>
      <stop offset="1" stop-color="#2979E4"/>
    </linearGradient>
    <linearGradient id="paint7_linear_649_10249" x1="-16.1584" y1="81.9463" x2="48.8154" y2="68.1114" gradientUnits="userSpaceOnUse">
      <stop stop-color="#630692"/>
      <stop offset="0.23" stop-color="#5A0D93"/>
      <stop offset="0.59" stop-color="#432299"/>
      <stop offset="1" stop-color="#2142A1"/>
    </linearGradient>
    <linearGradient id="paint8_linear_649_10249" x1="-1384.03" y1="112.073" x2="-1383.21" y2="112.073" gradientUnits="userSpaceOnUse">
      <stop stop-color="#A31FA9"/>
      <stop offset="0.07" stop-color="#8A16A0"/>
      <stop offset="0.15" stop-color="#740F98"/>
      <stop offset="0.24" stop-color="#640A92"/>
      <stop offset="0.34" stop-color="#5A068F"/>
      <stop offset="0.48" stop-color="#58068E"/>
      <stop offset="0.63" stop-color="#4D21A3"/>
      <stop offset="0.94" stop-color="#3167D9"/>
      <stop offset="1" stop-color="#2C75E4"/>
    </linearGradient>
    <linearGradient id="paint9_linear_649_10249" x1="-32.019" y1="72.4623" x2="55.2459" y2="53.874" gradientUnits="userSpaceOnUse">
      <stop stop-color="#8D139B"/>
      <stop offset="0.17" stop-color="#841BA1"/>
      <stop offset="0.43" stop-color="#6D32B1"/>
      <stop offset="0.76" stop-color="#4958CC"/>
      <stop offset="1" stop-color="#2979E4"/>
    </linearGradient>
    <linearGradient id="paint10_linear_649_10249" x1="-20.5577" y1="70.466" x2="44.4161" y2="56.6311" gradientUnits="userSpaceOnUse">
      <stop stop-color="#630692"/>
      <stop offset="0.23" stop-color="#5A0D93"/>
      <stop offset="0.59" stop-color="#432299"/>
      <stop offset="1" stop-color="#2142A1"/>
    </linearGradient>
    <linearGradient id="paint11_linear_649_10249" x1="-3.27012" y1="152.321" x2="128.849" y2="205.406" gradientUnits="userSpaceOnUse">
      <stop stop-color="#630692"/>
      <stop offset="0.23" stop-color="#5A0D93"/>
      <stop offset="0.59" stop-color="#432299"/>
      <stop offset="1" stop-color="#2142A1"/>
    </linearGradient>
    <linearGradient id="paint12_linear_649_10249" x1="84.5264" y1="153.024" x2="84.5264" y2="0.558594" gradientUnits="userSpaceOnUse">
      <stop stop-color="#6DE0F6"/>
      <stop offset="0.1" stop-color="#57B1CC"/>
      <stop offset="0.2" stop-color="#4386A5"/>
      <stop offset="0.31" stop-color="#326183"/>
      <stop offset="0.43" stop-color="#244367"/>
      <stop offset="0.55" stop-color="#192C52"/>
      <stop offset="0.68" stop-color="#111B43"/>
      <stop offset="0.82" stop-color="#0D123A"/>
      <stop offset="1" stop-color="#0C0F38"/>
    </linearGradient>
  </defs>
</svg>