<svg xmlns="http://www.w3.org/2000/svg" width="16" height="17" viewBox="0 0 16 17" fill="none">
  <g clip-path="url(#clip0_649_10172)">
    <path d="M10.7718 10.2586C10.5277 11.3545 10.036 12.38 9.3345 13.2566C9.13215 13.5094 8.72319 13.3879 8.6831 13.0667L8.51263 11.7049L8.85325 11.024C8.86672 10.997 8.87307 10.967 8.8717 10.9369C8.87034 10.9067 8.8613 10.8774 8.84544 10.8518C8.82958 10.8261 8.80743 10.8049 8.7811 10.7902C8.75476 10.7755 8.7251 10.7678 8.69494 10.7678H7.39341C7.26177 10.7678 7.17622 10.9062 7.2351 11.024L7.57555 11.7049L7.4054 13.0667C7.36531 13.3879 6.95635 13.5093 6.75401 13.2566C6.05246 12.38 5.56083 11.3545 5.31673 10.2586C5.27554 10.0733 5.09655 9.95302 4.90809 9.97702C2.33407 10.3048 0.546875 11.3393 0.546875 14.5164C0.546875 14.765 0.645603 15.0033 0.82134 15.1791C0.997077 15.3548 1.23543 15.4535 1.48396 15.4535H14.6044C14.7274 15.4535 14.8493 15.4293 14.963 15.3822C15.0767 15.3351 15.18 15.2661 15.267 15.1791C15.354 15.092 15.423 14.9887 15.4701 14.875C15.5172 14.7613 15.5415 14.6395 15.5415 14.5164C15.5415 11.3393 13.7543 10.3048 11.1804 9.97702C10.992 9.95302 10.8131 10.0733 10.7718 10.2586ZM8.04417 1.35449C6.17158 1.35449 4.65382 2.87242 4.65382 4.74485C4.65382 7.7474 6.17158 9.83054 8.04417 9.83054C9.91676 9.83054 11.4345 7.7474 11.4345 4.74501C11.4345 2.87242 9.91676 1.35449 8.04417 1.35449Z" fill="#F9F9F9"/>
  </g>
  <defs>
    <clipPath id="clip0_649_10172">
      <rect width="15.7838" height="15.7838" fill="white" transform="translate(0.136719 0.513672)"/>
    </clipPath>
  </defs>
</svg>