<svg xmlns="http://www.w3.org/2000/svg" width="301" height="289" viewBox="0 0 301 289" fill="none">
<g opacity="0.08">
<path d="M262.059 268.59C250.731 266.641 249.38 259.353 247.663 250.115C245.733 239.801 243.351 226.969 226.017 216.737C217.328 211.62 209.005 208.412 200.552 206.93C193 205.611 185.492 205.692 177.64 207.194C163.052 209.996 149.279 217.468 135.935 224.675C123.449 231.436 110.534 238.44 96.6322 241.892C89.1665 243.76 82.044 244.45 74.8571 244.044C66.7907 243.577 58.853 241.73 50.6149 238.38C36.2197 232.532 21.9104 230.502 8.09447 232.329C5.54152 232.674 3.01004 233.141 0.5 233.75V234.38C3.05294 233.771 5.60588 233.284 8.20173 232.938C21.9104 231.111 36.091 233.141 50.3789 238.928C60.5263 243.049 69.9229 244.755 78.7831 244.755C100.172 244.755 118.429 234.867 136.256 225.223C150.158 217.691 163.266 210.585 177.769 207.803C185.535 206.301 192.957 206.22 200.423 207.539C208.811 209.001 217.071 212.189 225.674 217.264C233.29 221.751 242.772 227.335 247.041 250.216C247.921 254.987 248.693 259.109 250.731 262.418C252.984 266.093 256.566 268.245 261.951 269.179C277.891 271.94 287.373 276.305 291.771 282.924C292.823 284.488 293.595 286.193 294.11 288H294.775C294.238 286.071 293.445 284.285 292.308 282.599C287.802 275.839 278.191 271.392 262.059 268.59Z" fill="#848484"/>
<path d="M249.609 275.324C236.115 273.427 234.849 269.612 232.103 261.296C229.701 254.05 226.075 243.069 211.895 227.144C192.824 205.708 172.594 219.11 149.167 234.632C125.419 250.376 98.496 268.199 65.6304 255.362C53.0377 250.437 40.3377 248.014 27.8522 248.115C18.5632 248.196 9.35997 249.69 0.5 252.556V253.202C9.35997 250.316 18.5417 248.822 27.8522 248.741C40.2519 248.62 52.8661 251.062 65.373 255.947C80.1754 261.74 95.1279 261.841 111.046 256.29C124.969 251.426 137.454 243.15 149.532 235.157C161.116 227.487 172.057 220.241 182.29 217.657C193.596 214.791 202.842 217.94 211.402 227.568C225.496 243.412 229.1 254.312 231.481 261.518C234.227 269.834 235.622 274.012 249.523 275.97C257.654 277.121 262.738 279.946 264.647 284.367C265.119 285.477 265.398 286.688 265.505 288H266.149C266.063 286.607 265.763 285.315 265.248 284.145C263.231 279.462 257.975 276.515 249.609 275.324Z" fill="#848484"/>
<path d="M183.065 248.724C177.113 244.965 169.128 245.087 159.344 249.151C151.572 252.361 142.644 258.051 132.796 266.017C122.734 274.186 113.742 283.127 108.133 289H108.989C114.598 283.127 123.376 274.43 133.203 266.464C143.008 258.519 151.872 252.87 159.579 249.679C169.149 245.717 176.921 245.554 182.68 249.212C196.06 257.686 203.168 271.991 209.441 284.611C210.19 286.094 210.897 287.557 211.625 288.98H212.331C211.561 287.476 210.79 285.932 210.019 284.347C203.746 271.666 196.596 257.279 183.065 248.724Z" fill="#848484"/>
<path d="M165.995 269.365C163.251 267.505 159.706 267.546 155.465 269.486C152.131 271.022 148.354 273.731 144.239 277.551C140.314 281.209 136.79 285.191 134.469 288H135.292C141.875 280.138 156.963 263.989 165.615 269.85C171.207 273.65 174.477 281.189 177.305 288H177.98C175.11 281.067 171.819 273.306 165.995 269.365Z" fill="#848484"/>
<path d="M59.8113 269.11C54.3223 267.797 48.641 266.443 43.5365 264.831C30.8711 260.79 16.1982 264.194 6.11717 267.757C4.13087 268.454 2.25136 269.19 0.5 269.927V270.583C2.31543 269.827 4.28037 269.051 6.3521 268.314C16.3263 264.791 30.8498 261.427 43.3229 265.408C48.4274 267.04 54.13 268.394 59.6404 269.708C72.0281 272.653 83.7323 275.44 84.5439 280.496C84.8856 282.626 83.3051 285.114 79.7597 288H80.6994C84.0527 285.114 85.5264 282.606 85.1846 280.396C84.309 274.943 72.9678 272.255 59.8113 269.11Z" fill="#848484"/>
<path d="M52.3908 277.496C48.1062 276.796 42.8912 276.837 38.0873 277.62C29.1936 279.061 11.7957 283.675 0.5 286.785V287.423C11.7957 284.313 29.3018 279.679 38.2171 278.217C42.9561 277.455 48.0846 277.393 52.3042 278.093C58.4064 279.103 60.5487 281.224 61.2845 282.851C61.9553 284.313 61.7822 286.043 60.7868 288H61.5225C62.4746 285.982 62.5828 284.169 61.8687 282.604C60.4189 279.432 55.9179 278.073 52.3908 277.496Z" fill="#848484"/>
<path d="M27.9442 165.048C37.6088 171.251 43.9164 180.147 49.4543 188.003C55.7406 196.899 61.1929 204.592 69.7029 205.837C70.494 205.959 71.3065 206 72.1191 206C78.6833 206 86.4876 202.388 96.3874 194.777C103.807 189.064 109.986 183.881 115.439 179.29C126.942 169.598 135.26 162.599 144.454 160.334C153.84 158.008 164.146 160.456 180.012 168.761C192.969 175.556 208.428 180.229 222.391 181.575C228.891 182.208 234.792 182.086 239.475 181.188C244.414 180.249 247.878 178.556 249.738 176.127C252.282 172.801 252.902 166.619 241.335 156.029C227.501 143.357 211.764 141.827 195.107 140.215C184.074 139.154 172.656 138.032 161.132 133.604C148.089 128.605 136.778 119.912 126.536 107.078C118.967 97.5893 110.136 93.1002 100.963 94.1C94.7197 94.7734 88.5831 97.9157 82.7244 103.405C76.8444 108.955 71.5417 116.607 67.0088 126.156C63.6305 133.236 59.91 136.869 55.5695 137.236C46.1829 138.032 35.3209 122.973 24.8438 108.404C19.6053 101.119 14.1957 93.6103 9.04265 88.2235C6.36992 85.428 3.93239 83.3671 1.64453 82V82.755C8.85021 87.2848 16.676 98.1402 24.3093 108.751C29.5692 116.056 35.0216 123.626 40.2601 129.135C45.8622 135.012 50.6517 137.889 54.8639 137.889C55.1205 137.889 55.3771 137.868 55.6337 137.848C60.2094 137.46 64.1222 133.726 67.5861 126.421C72.0977 116.933 77.3362 109.342 83.1735 103.854C88.9252 98.4463 94.9335 95.3651 101.027 94.7122C109.944 93.7532 118.603 98.1606 126.023 107.465C136.329 120.402 147.747 129.135 160.875 134.175C172.485 138.644 183.946 139.746 195.022 140.827C211.571 142.439 227.201 143.949 240.886 156.478C252.133 166.782 251.62 172.659 249.225 175.78C245.718 180.331 235.711 182.269 222.455 180.984C208.578 179.637 193.204 174.985 180.311 168.231C164.296 159.844 153.862 157.396 144.283 159.763C134.939 162.068 126.579 169.108 115.011 178.862C109.559 183.453 103.401 188.636 95.9812 194.328C84.9909 202.776 76.6734 206.245 69.7884 205.245C61.5564 204.062 56.1896 196.471 49.9675 187.676C44.3868 179.78 38.0578 170.843 28.2863 164.558C20.1826 159.355 12.4637 156.743 5.25806 156.743C4.0393 156.743 2.84191 156.824 1.64453 156.967V157.579C9.74825 156.539 18.5789 159.049 27.9442 165.048Z" fill="#848484"/>
<path d="M12.552 224.736C22.4986 224.88 33.6268 226.79 43.4445 228.453C57.5159 230.855 68.6011 232.744 69.976 228.391C72.0384 221.862 65.3357 216.461 54.2075 207.529C46.2373 201.123 36.2907 193.156 25.6566 181.698C17.6649 173.095 9.69472 169.194 2.00381 170.138C1.53118 170.2 1.03707 170.282 0.5 170.385V171.021C1.01559 170.918 1.55267 170.816 2.08974 170.754C9.56582 169.851 17.3212 173.67 25.184 182.109C35.861 193.608 45.8076 201.595 53.7993 208.022C64.7127 216.79 71.3079 222.087 69.3745 228.227C68.1714 232.046 56.764 230.095 43.5734 227.857C29.3302 225.434 12.6164 222.58 0.521483 225.044V225.681C3.9158 224.983 7.93311 224.654 12.552 224.736Z" fill="#848484"/>
<path d="M41.3505 222C46.994 222 50.1631 221.023 50.7708 219.047C52.1166 214.743 40.8947 206.986 34.0573 202.744C24.3982 196.734 12.8941 191.078 6.70789 189.269C4.64583 188.665 2.56206 188.25 0.521706 188V188.624C2.49694 188.873 4.51559 189.289 6.51253 189.872C12.6553 191.66 24.0943 197.275 33.6883 203.264C44.8668 210.23 51.0096 216.053 50.1197 218.86C49.2514 221.605 41.5241 222.104 28.3487 220.274C17.6694 218.798 6.53424 216.24 0.5 214.618V215.262C6.57765 216.905 17.6477 219.421 28.2401 220.898C33.5581 221.626 37.8993 222 41.3505 222Z" fill="#848484"/>
<path d="M13.3011 210C15.8916 210 17.3379 209.52 17.6186 208.56C18.223 206.641 13.9056 203.449 10.171 201.112C6.95454 199.088 3.28473 197.168 0.5 196V196.689C3.21997 197.857 6.73867 199.714 9.82562 201.654C14.618 204.659 17.3595 207.246 16.9925 208.393C16.4097 210.25 7.75326 209.207 0.5 207.642V208.268C2.6803 208.727 5.11964 209.186 7.49421 209.52C9.84721 209.833 11.7685 210 13.3011 210Z" fill="#848484"/>
<path d="M102.613 105.239C105.663 104.647 108.456 105.157 110.866 106.772C120.015 112.862 125.943 118.789 131.189 124.001C139.25 132.012 145.605 138.349 159.552 142.007C168.359 144.316 172.518 146.442 172.241 148.526C172.028 150.141 169.041 151.428 163.348 152.368C157.824 153.267 149.849 153.82 140.295 153.942C133.087 154.045 125.602 156.722 117.392 162.179C110.226 166.961 103.445 173.195 97.4521 178.713C88.6021 186.868 80.861 194 74.5273 194C73.909 194 73.312 193.939 72.7363 193.796C67.5116 192.549 63.3524 189.014 60.708 183.557C58.0424 177.998 57.1472 170.824 58.1494 162.792C59.0664 155.557 61.7323 148.383 65.9121 142.047C80.7759 119.463 93.1235 107.079 102.613 105.239ZM105.021 105.607C104.296 105.607 103.528 105.689 102.761 105.832C93.4628 107.651 81.2434 119.934 66.4648 142.375C62.349 148.629 59.7043 155.721 58.8086 162.874C57.8276 170.783 58.7023 177.834 61.3252 183.291C63.8629 188.584 67.8725 192.019 72.9053 193.204C73.4382 193.327 73.9926 193.388 74.5469 193.388C80.6033 193.388 88.2595 186.337 97.0029 178.284C102.995 172.746 109.798 166.491 117.027 161.689C125.344 156.17 132.958 153.432 140.294 153.33C149.826 153.207 157.76 152.655 163.24 151.756C170.298 150.591 171.514 149.181 171.621 148.445C171.92 146.115 163.176 143.56 159.401 142.579C145.284 138.859 138.865 132.483 130.762 124.41C125.537 119.219 119.629 113.333 110.523 107.263C108.86 106.159 107.026 105.607 105.021 105.607Z" fill="#848484"/>
<path d="M191.234 148.252C195.137 145.875 200.212 145.367 206.374 146.789C211.257 147.907 216.823 150.223 222.921 153.677C233.07 159.426 241.364 166.456 241.771 166.803C244.756 168.814 245.95 170.318 245.417 171.436C244.905 172.472 242.858 173 239.191 173C236.056 173 231.748 172.614 226.226 171.862C216.225 170.481 204.817 168.185 198.079 166.62C186.842 164.019 182.023 161.703 181.468 158.676C180.977 155.933 184.091 152.62 191.234 148.252ZM199.978 146.586C196.737 146.586 193.943 147.317 191.598 148.739C184.796 152.904 181.682 156.115 182.109 158.513C182.706 161.947 190.596 164.223 198.23 165.99C216.738 170.277 243.243 174.463 244.821 171.151C245.035 170.704 244.885 169.607 241.388 167.25L241.367 167.229C241.282 167.169 232.902 159.996 222.603 154.165C216.568 150.752 211.066 148.456 206.247 147.358C204.008 146.85 201.918 146.586 199.978 146.586Z" fill="#848484"/>
<path d="M300.499 161.1C298.974 159.585 297.233 158.03 295.256 156.475C287.736 150.561 278.196 145.69 266.894 141.986C252.777 137.362 235.866 134.538 216.635 133.596C205.634 133.064 184.534 131.202 166.721 124.674C147.963 117.819 137.563 107.689 135.844 94.572C133.846 79.3879 135.801 69.9746 142.011 64.92C148.801 59.3948 161.092 59.1493 179.57 64.2243C192.398 67.744 202.776 72.5735 211.113 76.4616C219.343 80.3088 225.853 83.3374 231.655 83.8695C237.951 84.4424 242.871 82.0073 247.598 75.9705C250.606 72.1233 252.992 68.4807 255.097 65.2679C259.33 58.7809 262.403 54.0947 267.409 52.3553C272.695 50.5136 279.85 52.0688 291.367 57.5531C294.655 59.1083 297.684 60.8478 300.499 62.6486V61.9119C297.77 60.1725 294.827 58.5149 291.668 57.0006C279.979 51.4344 272.674 49.8792 267.194 51.7619C261.973 53.5831 258.879 58.3307 254.56 64.92C252.476 68.1124 250.091 71.7345 247.104 75.5816C237.392 88.0031 227.615 83.4397 211.414 75.8886C203.056 71.98 192.634 67.1301 179.764 63.6104C161.049 58.4944 148.565 58.7605 141.603 64.4289C135.221 69.6267 133.201 79.2242 135.221 94.6334C136.983 107.996 147.512 118.289 166.506 125.247C184.405 131.796 205.591 133.658 216.614 134.21C235.78 135.131 252.605 137.955 266.657 142.559C277.873 146.243 287.349 151.072 294.805 156.925C296.997 158.644 298.888 160.363 300.499 162V161.1Z" fill="#848484"/>
<path d="M300.501 148.201C295.978 144.945 290.538 141.668 284.372 138.575C266.856 129.768 246.205 123.643 226.257 121.35C206.053 119.015 191.311 116.454 179.876 113.259C165.261 109.204 156.045 104.145 151.693 97.8364C148.748 93.5557 148.108 88.6196 149.751 83.1304C150.989 79.075 153.25 76.3919 156.685 74.9377C168.312 69.9811 190.607 80.3654 210.277 89.5208C217.467 92.8798 224.273 96.034 230.054 98.2051C239.804 101.871 245.799 102.691 250.109 100.909C254.269 99.1882 256.659 95.2147 259.944 89.7051C261.928 86.387 264.168 82.6389 267.326 78.5015C270.697 74.0775 274.964 71.763 280.02 71.6196C286.932 71.4353 294.421 75.3473 300.501 79.6485V78.8907C291.05 72.2751 284.244 70.9028 280.02 71.0052C274.772 71.1486 270.334 73.5449 266.835 78.1329C263.656 82.2907 261.416 86.0798 259.411 89.3979C252.968 100.151 250.024 105.066 230.289 97.6316C224.529 95.4605 217.744 92.3063 210.555 88.9678C190.756 79.7509 168.312 69.3052 156.429 74.3847C152.845 75.9003 150.391 78.8088 149.133 82.9871C147.426 88.64 148.087 93.7605 151.138 98.2051C155.597 104.616 164.92 109.757 179.705 113.853C191.183 117.048 205.968 119.609 226.193 121.944C246.055 124.237 266.622 130.341 284.073 139.107C290.324 142.261 295.914 145.641 300.501 149V148.201Z" fill="#848484"/>
<path d="M300.479 139.16C288.306 129.013 271.797 124.954 258.855 121.798C246.297 118.723 237.241 116.509 238.224 110.524C238.501 108.781 241.022 108.904 245.442 109.273C249.543 109.601 254.626 110.032 259.431 108.474C265.112 106.629 269.02 102.468 271.37 95.7447C273.014 91.0301 275.641 88.3244 279.144 87.7504C285.551 86.6845 293.965 92.67 300.501 98.6144V97.7535C300.33 97.61 300.18 97.446 300.009 97.3025C291.381 89.6772 284.333 86.2541 279.037 87.1355C275.278 87.7504 272.502 90.5791 270.772 95.5397C265.603 110.319 253.515 109.314 245.507 108.658C241.15 108.289 237.989 108.044 237.604 110.442C237.113 113.475 238.843 115.812 243.115 117.76C246.916 119.502 252.383 120.855 258.705 122.392C271.754 125.59 288.391 129.669 300.501 140V139.16H300.479Z" fill="#848484"/>
<path d="M300.502 133.248C296.39 130.7 291.875 127.087 287.995 123.202C282.187 117.375 278.731 111.987 278.286 107.997C278.053 105.846 278.71 104.134 280.279 102.922C285.791 98.6615 294.779 105.763 300.502 111.423V110.525C299.315 109.376 298.022 108.185 296.665 107.058C293.507 104.447 290.581 102.651 288.016 101.732C284.752 100.562 281.996 100.792 279.876 102.442C278.138 103.778 277.396 105.679 277.65 108.081C278.541 116.226 290.942 128.152 300.502 134V133.248Z" fill="#848484"/>
<path d="M163.262 80.2647C170.021 78.8283 182.749 83.2392 201.058 93.334C214.662 100.819 226.449 108.85 226.577 108.931C229.122 110.731 229.998 112.208 229.25 113.341C228.394 114.534 225.635 115 221.999 115C217.015 115 210.341 114.13 204.48 113.018C190.213 110.327 176.609 105.755 168.096 100.799C158.513 95.2154 155.262 89.1665 158.706 83.2998C159.626 81.7219 161.165 80.7098 163.262 80.2647ZM165.977 80.6094C165.036 80.6094 164.181 80.6908 163.389 80.8526C161.486 81.2572 160.095 82.1669 159.261 83.583C157.549 86.4961 157.571 89.4496 159.347 92.3828C160.951 95.0532 164.009 97.7043 168.416 100.273C176.865 105.189 190.384 109.741 204.587 112.411C210.683 113.564 216.437 114.252 220.779 114.354C226.704 114.495 228.287 113.544 228.693 112.978C229.378 111.986 227.709 110.51 226.19 109.438C225.631 109.051 183.709 80.6094 165.977 80.6094Z" fill="#848484"/>
<path d="M174.185 91.1257C176.952 90.4612 183.084 92.4349 192.431 96.95C199.349 100.292 205.545 103.888 205.631 103.927C205.95 104.162 206.951 104.827 206.483 105.472C206.206 105.863 205.354 106 204.204 106C201.053 106 195.709 104.866 194.347 104.573C187.257 103.009 180.678 100.761 176.761 98.5525C172.822 96.3243 171.46 94.1545 172.694 92.1023C172.992 91.6139 173.504 91.2821 174.185 91.1257ZM175.377 91.5955C174.973 91.5955 174.632 91.6345 174.313 91.7127C173.78 91.8299 173.44 92.065 173.227 92.3972C172.184 94.1171 173.461 96.0131 177.059 98.0457C180.912 100.235 187.428 102.462 194.475 104.007C201.713 105.59 205.588 105.629 205.95 105.14C205.971 105.101 205.927 104.866 205.247 104.418C204.647 104.064 182.892 91.5955 175.377 91.5955Z" fill="#848484"/>
<path d="M92.8942 123.581C98.1112 119.929 102.796 118.443 106.799 119.185C110.1 119.805 112.933 121.889 115.233 125.397C117.49 128.823 118.575 132.785 118.426 136.871C118.277 140.936 116.894 144.836 114.445 148.138L113.785 149.025C105.65 159.983 97.2595 171.312 78.9459 178.782C76.8167 179.649 75.0708 180 73.6442 180C70.7482 180 69.1511 178.535 68.278 177.028C62.5922 167.267 75.4324 135.839 92.8942 123.581ZM104.734 119.619C101.348 119.619 97.5146 121.125 93.277 124.097C85.3766 129.648 77.6036 139.904 72.4928 151.522C67.7016 162.418 66.254 172.303 68.8307 176.719C70.5556 179.669 73.8562 180.164 78.6901 178.183C96.8332 170.775 105.181 159.528 113.252 148.633L113.912 147.746C116.297 144.547 117.639 140.77 117.788 136.829C117.937 132.867 116.872 129.029 114.7 125.727C112.507 122.385 109.802 120.382 106.693 119.805C106.054 119.681 105.394 119.619 104.734 119.619Z" fill="#848484"/>
<path d="M92.7793 134.716C95.9013 132.552 98.6957 131.669 101.119 132.11C103.106 132.468 104.831 133.708 106.206 135.809C108.935 139.969 108.761 145.263 105.727 149.318C100.901 155.768 95.6393 160.685 84.4609 165.223C83.1074 165.769 81.9937 166 81.0986 166C79.3957 166 78.4566 165.181 77.9326 164.319C76.4261 161.756 77.3433 156.336 80.3125 150.18C83.4128 143.793 88.0633 137.994 92.7793 134.716ZM99.876 132.637C97.8892 132.637 95.6618 133.519 93.1728 135.242C88.5662 138.457 83.9814 144.15 80.9248 150.453C78.0865 156.336 77.147 161.652 78.5224 164.026C79.4395 165.602 81.3616 165.812 84.2217 164.656C95.269 160.181 100.444 155.328 105.203 148.962C108.085 145.117 108.259 140.095 105.661 136.166C104.373 134.233 102.823 133.078 101.011 132.742C100.64 132.679 100.269 132.637 99.876 132.637Z" fill="#848484"/>
<path opacity="0.3" d="M89.8209 154C90.0669 154 90.3697 153.938 90.7293 153.771C93.5301 152.482 94.8359 151.068 96.047 149.217C96.8419 148.011 96.8987 146.409 96.1795 145.182C95.801 144.538 95.3468 144.163 94.798 144.038C94.1546 143.893 93.3976 144.163 92.5839 144.808C90.1048 146.784 87.9852 151.692 88.8747 153.418C89.0071 153.667 89.2721 154 89.8209 154Z" fill="#848484" stroke="url(#paint0_linear_1062_4476)" stroke-width="5"/>
<path d="M300.434 270.423C294.275 270.155 288.288 269.393 282.991 268.157C276.014 266.53 270.156 264.079 265.591 260.907C259.992 257.014 256.309 251.988 254.608 245.932C252.239 237.425 248.492 229.392 243.776 222.677C238.241 214.788 231.458 208.711 223.576 204.592C209.083 196.991 191.446 196.27 171.182 202.45C146.632 209.927 127.531 217.775 113.576 223.521C95.7668 230.834 85.9469 234.871 83.7072 230.442C83.5134 230.051 83.4919 229.639 83.6642 229.186C84.9347 225.828 95.4653 221.256 107.676 215.983C116.763 212.048 127.078 207.579 135.197 202.841C144.586 197.362 149.518 192.398 150.271 187.681C151.327 181.048 154.126 176.393 158.347 174.23C163.149 171.779 169.717 172.418 177.901 176.125C192.932 182.923 229.627 191.038 251.916 191.038C259.604 191.038 265.591 190.07 268.369 187.743C270.048 186.342 270.522 184.509 269.768 182.284C267.292 174.931 270.156 167.33 276.423 164.632C284.283 161.253 292.961 166.156 300.434 174.004V172.974C297.505 169.966 294.534 167.618 291.54 165.929C286.049 162.819 280.579 162.16 276.164 164.075C269.596 166.897 266.581 174.807 269.165 182.469C269.833 184.447 269.424 186.033 267.959 187.269C263.329 191.141 248.363 191.471 226.871 188.155C208.308 185.291 188.302 180.121 178.202 175.548C169.825 171.758 163.063 171.141 158.089 173.674C153.674 175.919 150.767 180.739 149.669 187.578C148.032 197.815 125.528 207.579 107.439 215.406C94.6039 220.967 84.461 225.355 83.1043 228.959C82.8674 229.577 82.8889 230.154 83.1689 230.69C84.3748 233.079 87.3251 233.491 92.7734 232.028C97.791 230.669 104.898 227.765 113.878 224.078C127.811 218.351 146.912 210.503 171.419 203.026C191.511 196.909 208.976 197.609 223.318 205.107C231.092 209.185 237.811 215.2 243.281 222.986C247.954 229.66 251.679 237.631 254.026 246.056C255.749 252.235 259.518 257.385 265.246 261.36C269.876 264.573 275.82 267.045 282.883 268.714C288.245 269.97 294.297 270.753 300.499 271V270.423H300.434Z" fill="#848484"/>
<path d="M300.478 257.973C290.384 260.205 282.425 259.857 276.3 256.928C267.263 252.587 263.294 243.126 260.361 233.542C257.255 223.426 248.348 215.951 241.187 209.951C236.377 205.917 232.581 202.743 232.409 200.204C232.366 199.487 232.625 198.852 233.185 198.258C235.148 196.169 241.403 197.48 249.34 199.139C255.702 200.47 263.639 202.128 271.9 202.579C275.717 202.784 278.219 202.169 279.578 200.695C281.519 198.565 280.786 195.002 280.01 191.234C278.91 185.971 277.788 180.544 283.029 177.555C284.776 176.551 286.717 176.367 288.788 176.94C292.282 177.944 296.272 181.261 300.499 186.606V185.562C297.048 181.302 293.015 177.514 288.982 176.367C286.739 175.712 284.625 175.937 282.706 177.022C277.076 180.237 278.306 186.135 279.384 191.357C280.139 194.982 280.851 198.401 279.104 200.306C277.896 201.616 275.545 202.169 271.943 201.965C263.726 201.514 255.832 199.855 249.491 198.524C241.058 196.763 234.954 195.473 232.732 197.828C232.064 198.545 231.74 199.343 231.805 200.224C231.978 203.009 235.86 206.265 240.799 210.381C247.895 216.32 256.738 223.733 259.779 233.685C262.755 243.392 266.767 252.996 276.041 257.44C279.6 259.14 283.762 260 288.572 260C292.174 260 296.142 259.529 300.499 258.567V257.973H300.478Z" fill="#848484"/>
<path d="M300.502 242.103C295.447 243.361 289.278 244.082 284.266 242.247C280.582 240.906 277.905 238.308 276.32 234.554C274.135 229.357 270.301 224.531 267.217 220.654C264.175 216.838 261.562 213.538 262.376 212.053C262.89 211.125 264.753 210.775 268.073 210.96L269.187 211.022C279.126 211.6 284.138 211.888 286.601 209.723C287.8 208.671 288.379 207.021 288.443 204.402C288.55 200.793 290.542 197.782 293.412 196.895C295.554 196.235 297.974 196.75 300.502 198.318V197.555C297.246 195.657 294.719 195.843 293.219 196.317C290.092 197.287 287.907 200.525 287.8 204.402C287.736 206.835 287.222 208.341 286.172 209.269C283.902 211.27 278.697 210.96 269.23 210.403L268.116 210.342C264.454 210.135 262.462 210.589 261.798 211.765C260.791 213.6 263.254 216.714 266.681 221.045C269.744 224.902 273.557 229.687 275.699 234.802C277.348 238.72 280.154 241.422 284.009 242.845C286.279 243.67 288.764 244 291.249 244C294.526 244 297.781 243.443 300.48 242.783V242.103H300.502Z" fill="#848484"/>
<path d="M300.499 230.391C295.335 230.513 288.019 229.905 286.642 225.645C285.802 223.049 286.383 220.533 288.234 218.566C290.73 215.909 295.141 214.529 300.499 214.61V214.002C294.947 213.941 290.364 215.381 287.761 218.16C285.738 220.31 285.114 223.028 286.018 225.828C287.007 228.87 290.665 230.594 296.884 230.939C297.702 230.98 298.519 231 299.294 231C299.703 231 300.09 231 300.477 230.98V230.391H300.499Z" fill="#848484"/>
<path d="M24.2582 154.714C32.4298 157.919 40.2339 161 45.5087 161C46.9355 161 48.1678 160.773 49.1838 160.276C50.6106 159.573 51.5185 158.312 51.9077 156.554C52.8372 152.419 48.2326 148.428 41.25 142.39C34.3322 136.414 24.8635 128.246 16.4973 116.005C10.8334 107.713 5.47215 102.378 0.521618 100V100.682C5.2992 103.06 10.4659 108.271 15.9569 116.336C24.3879 128.66 33.8782 136.848 40.8176 142.845C47.6273 148.738 52.1455 152.625 51.2808 156.409C50.9132 158.002 50.135 159.077 48.8811 159.697C44.4062 161.951 34.743 158.146 24.5176 154.114C17.7728 151.467 10.7902 148.717 4.73713 147.477C3.22387 147.166 1.79708 146.96 0.5 146.856V147.477C1.75385 147.58 3.1374 147.766 4.60743 148.076C10.5956 149.338 17.535 152.067 24.2582 154.714Z" fill="#848484"/>
<path d="M20.2263 144C22.3723 144 23.7341 143.482 24.2913 142.465C25.6531 139.914 21.5469 135.05 12.0552 127.953C7.76325 124.764 3.30625 121.814 0.5 120V120.698C9.88857 126.738 25.9007 138.159 23.7548 142.186C23.3008 143.043 22.0628 143.422 20.3295 143.422C15.7693 143.422 7.68071 140.91 0.5 138.239V138.877C2.04757 139.455 3.67767 140.033 5.32841 140.591C12.0345 142.864 17.028 144 20.2263 144Z" fill="#848484"/>
<path d="M117.391 186.53C121.431 181.923 127.502 179.519 133.615 180.08C137.211 180.421 139.03 181.623 139.052 183.686C139.094 190.516 117.159 204.778 107.28 205.779C105.842 205.94 104.742 206 103.917 206C102.14 206 101.547 205.7 101.336 205.259C100.913 204.338 102.436 203.016 104.974 200.813C107.682 198.469 111.383 195.263 113.773 191.438C114.916 189.615 116.121 187.973 117.391 186.53ZM131.899 180.621C126.569 180.621 121.45 182.905 117.918 186.911C116.67 188.313 115.485 189.956 114.364 191.738C111.932 195.644 108.166 198.889 105.437 201.253C103.619 202.835 101.715 204.477 101.968 204.998C102.116 205.319 103.153 205.599 107.257 205.179C111.783 204.718 119.335 201.293 126.506 196.466C133.888 191.498 138.478 186.591 138.457 183.706C138.436 182.004 136.807 181.002 133.613 180.701C133.042 180.641 132.47 180.621 131.899 180.621Z" fill="#848484"/>
<path d="M22.6086 82.0488C27.4366 90.5264 32.6079 99.2496 37.6504 105.618C43.208 112.601 48.0359 116 52.4348 116C52.4777 116 52.5206 116 52.5635 116C56.9409 115.939 60.8032 112.58 64.3652 105.782C71.8539 91.5093 80.7159 82.786 90.0071 80.5949C96.3585 79.1001 102.882 80.5744 109.383 85.018C114.383 88.4377 117.945 89.5639 120.219 88.4786C123.588 86.8814 123.781 80.9225 123.996 74.0422C124.232 66.4861 124.489 57.9062 129.232 53.9745C131.442 52.1521 134.403 51.4763 138.287 51.8859C148.458 52.9916 158.135 51.5173 166.268 47.6676C173.992 44.0021 179.979 38.4119 183.562 31.4906C186.974 24.9174 187.961 17.5046 186.459 10.0919C185.837 6.99982 184.785 3.9692 183.348 1H182.618C187.639 11.1157 187.918 21.7639 183.004 31.2244C179.485 38.0228 173.606 43.5107 166.01 47.1147C157.985 50.9234 148.415 52.3568 138.373 51.2715C134.36 50.8415 131.141 51.5787 128.824 53.5036C123.867 57.599 123.61 66.3223 123.352 74.0012C123.159 80.4106 122.966 86.4719 119.94 87.9053C117.881 88.8882 114.555 87.7619 109.748 84.4856C103.075 79.9396 96.38 78.4243 89.8354 79.9601C80.3511 82.2126 71.3389 91.0383 63.7858 105.475C60.3312 112.048 56.6619 115.283 52.5635 115.345C52.5206 115.345 52.4777 115.345 52.4348 115.345C43.1007 115.345 32.8654 98.7377 23.1665 81.7007C17.2228 71.2573 9.99155 64.0903 1.64453 60.2815V60.9573C9.77697 64.807 16.8151 71.8511 22.6086 82.0488Z" fill="#848484"/>
<path d="M30.4862 56C34.1768 56 37.4193 55.4854 40.0859 54.4356C46.1657 52.0479 49.1949 47.1695 49.0883 39.8829C48.9816 32.7403 50.9655 27.4296 55.1467 23.6628C65.4504 14.3177 87.6363 15.9233 111.145 17.6523C114.601 17.8993 118.185 18.1669 121.704 18.3933C125.139 18.6198 128.296 18.7227 131.197 18.7227C144.445 18.7227 151.954 16.4379 153.597 11.8888C154.749 8.67777 152.829 4.78743 149.757 1H148.925C152.082 4.76684 154.087 8.61602 152.999 11.7036C151.122 16.9319 140.626 18.9903 121.768 17.7964C118.249 17.57 114.665 17.3024 111.209 17.0554C87.5723 15.3263 65.237 13.7002 54.7201 23.2305C50.4109 27.1415 48.3629 32.5962 48.4696 39.924C48.5763 46.9225 45.675 51.6362 39.8726 53.9004C32.4062 56.8234 20.2679 55.4854 6.5297 50.2365C4.88709 49.619 3.26581 48.9397 1.64453 48.2399V48.9192C3.18048 49.5984 4.73776 50.2365 6.29504 50.8129C15.2761 54.2298 23.6385 56 30.4862 56Z" fill="#848484"/>
<path d="M18.3005 35.9594C25.978 35.5122 32.4825 31.6707 37.6648 24.5366L38.5179 23.3577C44.8092 14.6992 47.9655 10.3496 52.636 8.54065C57.3065 6.73171 63.6404 7.38211 76.2657 8.70325C77.8012 8.86585 79.4433 9.02845 81.1707 9.21138C96.1205 10.7561 106.954 11.2642 114.291 10.7764C121.35 10.3089 125.359 8.94715 126.895 6.4878C127.833 4.98374 127.79 3.15447 127.023 1H126.361C127.129 3.07317 127.214 4.80081 126.34 6.18293C124.933 8.43902 120.987 9.73984 114.248 10.187C106.954 10.6545 96.1632 10.1463 81.2347 8.60163C79.5073 8.4187 77.8651 8.2561 76.3296 8.0935C63.5978 6.75203 57.2212 6.0813 52.3801 7.97154C47.539 9.86179 44.34 14.252 37.9847 23.0122L37.1317 24.1911C32.056 31.1626 25.7221 34.9228 18.2578 35.3496C14.4191 35.5732 8.85286 34.9431 1.64453 31.7317V32.4024C7.97848 35.187 13.0542 36 16.8289 36C17.3408 36 17.8313 35.9797 18.3005 35.9594Z" fill="#848484"/>
<path d="M26.6935 22.4568C29.8411 21.0404 31.9982 18.6305 33.0768 15.2904C34.6836 10.4283 35.0358 5.5239 34.7717 1H34.1113C34.3755 5.46048 34.0233 10.3015 32.4385 15.1002C31.4039 18.2711 29.3569 20.5542 26.3853 21.886C19.3197 25.0781 8.31403 22.4568 0.5 19.8778V20.5542C5.76071 22.2877 12.4081 24 18.3952 24C21.4108 23.9789 24.2723 23.5561 26.6935 22.4568Z" fill="#848484"/>
<path d="M158.332 16.0704C154.087 24.0548 135.4 22.9725 135.187 22.9521C124.712 22.9521 114.985 22.2374 106.409 21.5839C93.6525 20.6241 82.6237 19.8073 74.4747 21.829C70.1656 22.8908 66.8164 24.7082 64.2566 27.3629C61.4834 30.2218 59.6061 34.0813 58.4968 39.1252C54.8063 55.9925 45.1428 58.0142 37.3565 59.6274C32.6634 60.6076 28.6102 61.4448 27.2663 65.4472C26.0503 69.1025 27.4583 76.3722 30.8928 83.9687C34.562 92.1165 39.5537 98.4264 44.2468 100.836C45.7614 101.612 47.276 102 48.7053 102C51.4358 102 54.017 100.611 56.2783 97.8955C59.7128 93.7705 62.5073 89.278 65.2165 84.9284C70.2723 76.8011 74.6241 69.7968 81.3864 68.2244C85.5462 67.2647 90.3887 68.4491 96.1484 71.9001C103.785 76.4539 109.076 77.8833 112.34 76.2701C116.393 74.2689 116.798 68.0815 117.225 61.5061C117.801 52.6844 118.398 43.5564 127.87 43.9648C130.045 44.0465 132.136 44.1078 134.163 44.1078C154.642 44.1078 167.932 39.4723 173.67 30.2831C178.193 23.0746 177.041 14.3755 175.291 8.37182C174.459 5.49252 173.414 2.96037 172.497 1H171.793C172.731 2.96037 173.819 5.59462 174.673 8.5556C177.766 19.2355 175.526 26.0968 173.115 29.9767C166.929 39.8603 151.698 44.3732 127.891 43.3726C123.347 43.1888 120.318 45.0267 118.633 49.0087C117.161 52.4598 116.862 57.0544 116.585 61.5061C116.179 67.8977 115.774 73.9218 112.041 75.7596C108.99 77.2707 103.913 75.8413 96.4684 71.41C90.538 67.8773 85.5462 66.652 81.2158 67.6731C74.1974 69.3067 69.7603 76.4131 64.6405 84.663C61.9527 88.9921 59.1581 93.4642 55.745 97.5483C52.4171 101.53 48.6413 102.449 44.5028 100.326C39.9377 97.9771 35.0313 91.7897 31.4261 83.7645C28.1196 76.4131 26.669 69.1433 27.8209 65.6719C29.0582 61.9962 32.7487 61.2202 37.4418 60.2604C41.367 59.4436 45.8041 58.5247 49.7719 55.625C54.3584 52.276 57.4089 46.9258 59.0728 39.2681C61.142 29.7725 65.9205 24.5857 74.5814 22.4416C78.2079 21.5431 82.453 21.2163 87.1675 21.2163C92.8846 21.2163 99.3483 21.7064 106.303 22.2169C114.9 22.85 124.627 23.5851 135.101 23.5851C135.101 23.5851 135.101 23.5851 135.123 23.5851C135.165 23.5851 139.986 23.8914 145.255 23.1563C152.423 22.1761 156.988 19.889 158.865 16.3767C160.892 12.558 159.591 7.41205 154.983 1.02042H154.215C158.908 7.35079 160.273 12.3947 158.332 16.0704Z" fill="#848484"/>
<path d="M159.715 23.8755C156.213 28.1309 145.62 29.8953 129.112 28.9819C116.576 28.2969 104.958 26.2834 104.851 26.2626C104.787 26.2419 97.6967 25.0171 89.7095 26.5325C84.9898 27.4043 80.8894 29.0442 77.4937 31.4107C73.2438 34.3583 70.1045 38.4269 68.1824 43.4919C64.4664 53.3105 60.3019 60.0153 55.4327 64.0009C51.2042 67.4675 47.0824 68.3809 43.2383 69.0244C37.6216 69.9585 35.7209 73.4458 35.1229 76.2067C33.927 81.6038 36.8101 88.8899 41.2949 91.8168C42.5122 92.6056 43.7508 93 44.9468 93C46.0573 93 47.1465 92.6679 48.1716 91.9828C52.3788 89.2013 56.6927 83.8457 61.263 78.1995C69.955 67.426 78.9459 56.2996 87.9796 61.8836C89.3037 62.6931 90.5851 63.5027 91.8024 64.2915C98.4228 68.5054 103.676 71.8475 106.987 70.2699C108.951 69.3357 110.062 66.8655 110.468 62.4648C111.301 53.3727 112.838 46.5226 117.643 42.6616C121.06 39.9007 125.93 38.8836 132.55 39.5063C151.087 41.2708 163.303 38.074 168.877 30.0406C173.341 23.6056 172.572 15.2401 171.141 9.34477C170.329 6.00271 169.219 3.05505 168.343 1H167.66C168.535 3.0343 169.689 6.04422 170.522 9.49007C171.91 15.2608 172.657 23.4395 168.343 29.6877C162.919 37.5135 150.895 40.6065 132.614 38.8836C125.823 38.2401 120.804 39.3195 117.238 42.1841C112.283 46.1904 110.681 53.1652 109.827 62.4233C109.443 66.5334 108.439 68.9206 106.709 69.7301C103.719 71.1417 98.615 67.9034 92.1655 63.7933C90.9268 63.0045 89.6454 62.1949 88.3213 61.3854C84.0287 58.7283 79.3944 59.3926 74.1621 63.4197C69.5919 66.907 65.1071 72.4702 60.7718 77.8466C56.2443 83.472 51.9516 88.7653 47.8299 91.5054C45.4166 93.1038 43.1529 92.2942 41.6579 91.3186C37.3653 88.5162 34.6104 81.5208 35.7423 76.352C36.3189 73.778 38.0914 70.519 43.3451 69.6471C47.2746 68.9828 51.4818 68.0487 55.8385 64.4783C60.7931 60.4097 65.0217 53.6218 68.7804 43.6995C70.6597 38.7383 73.7137 34.7735 77.8354 31.9088C81.1456 29.6047 85.182 28.0063 89.7949 27.1345C92.7848 26.574 95.6465 26.3872 98.0598 26.3872C101.989 26.3872 104.68 26.8646 104.723 26.8646C104.83 26.8854 116.49 28.8989 129.069 29.5839C146.026 30.5181 156.512 28.7329 160.206 24.2491C163.858 19.8276 164.713 13.8908 162.662 7.01986C161.958 4.67419 161.039 2.59838 160.228 1H159.502C160.335 2.57762 161.317 4.73646 162.043 7.18592C163.431 11.8565 164.157 18.4991 159.715 23.8755Z" fill="#848484"/>
<path d="M92.0219 31.999C94.3095 30.9325 96.8538 30.707 99.2055 31.3838C101.493 32.0401 103.225 33.4149 104.336 35.4658C107.671 41.6393 104.721 52.4888 102.668 58.3955C102.134 59.954 101.472 60.7744 100.595 60.959C100.467 60.9795 100.339 61 100.21 61C98.7781 61 97.1318 59.3799 95.0796 57.3701C93.1341 55.4627 90.9318 53.3087 88.2807 51.791C83.8552 49.2478 81.6739 46.3968 81.8022 43.2793C82.0377 37.8444 89.4565 33.2091 92.0219 31.999ZM96.4468 31.6309C95.0358 31.6309 93.6247 31.9384 92.2993 32.5537C89.8193 33.7228 82.6577 38.1734 82.4438 43.3008C82.3155 46.1721 84.4108 48.8591 88.6225 51.2588C91.3375 52.797 93.668 55.0937 95.5493 56.9394C97.5589 58.9084 99.2904 60.6113 100.466 60.3652C101.086 60.2217 101.621 59.5236 102.07 58.2109C106.773 44.6338 105.148 38.3166 103.758 35.7734C102.732 33.8868 101.129 32.6152 99.0122 32C98.1785 31.7539 97.3232 31.6309 96.4468 31.6309Z" fill="#848484"/>
<path d="M93.819 42.3439C94.4777 41.9823 95.2118 41.8971 95.8893 42.131C96.5668 42.3649 97.0752 42.8328 97.3952 43.5558C98.3362 45.5976 97.5272 49.1073 96.9625 51.0216C96.8685 51.3831 96.6802 51.8722 96.2663 51.9786C96.2099 51.9999 96.1721 52.0001 96.1159 52.0001C95.6453 52.0001 95.1928 51.4686 94.5905 50.7667C94.0823 50.1712 93.4988 49.4905 92.8024 49.0226C91.5415 48.1718 90.921 47.1932 90.9586 46.1085C91.0337 43.945 93.785 42.3737 93.819 42.3439ZM95.1168 42.6407C94.7593 42.6407 94.4204 42.7257 94.0817 42.9171C93.5735 43.2149 91.5971 44.5978 91.5407 46.1505C91.5032 46.9587 92.0304 47.7458 93.1032 48.4689C93.8559 48.9793 94.4955 49.724 95.0036 50.3194C95.4176 50.7874 95.945 51.4038 96.152 51.34C96.2085 51.3399 96.3214 51.17 96.4342 50.8087C96.8483 49.3411 97.7703 45.7252 96.9235 43.8321C96.66 43.2791 96.2835 42.9173 95.7565 42.7472C95.5495 42.6834 95.3238 42.6407 95.1168 42.6407Z" fill="#848484"/>
<path d="M300.499 48.1191C288.648 40.1101 274.375 33.4427 263.059 37.1829C254.872 39.8865 249.193 47.7736 246.214 60.6206C244.843 66.5562 241.414 70.2964 236.034 71.7397C225.962 74.4636 209.845 68.2027 198.594 57.1649C189.572 48.3427 185.95 38.6465 188.65 30.5765C191.157 23.096 191.865 14.965 190.772 6.44777C190.536 4.63862 190.215 2.82947 189.829 1H189.164C189.572 2.87013 189.893 4.6996 190.129 6.52908C191.222 14.965 190.515 23.0147 188.05 30.4139C185.264 38.7075 188.95 48.607 198.144 57.6121C203.502 62.8566 210.231 67.2676 217.111 70.0322C221.997 72.004 226.712 73 230.869 73C232.798 73 234.598 72.7764 236.227 72.3495C241.757 70.8656 245.443 66.8611 246.857 60.7628C249.793 48.1395 255.301 40.415 263.273 37.7724C274.461 34.0728 288.712 40.8622 300.499 48.8916V48.1191Z" fill="#848484"/>
<path d="M300.499 32.4951C291.786 25.3575 278.12 19.0381 267.016 21.1855C260.119 22.5148 254.866 26.9118 251.428 34.213C246.666 44.3159 240.623 51.3921 233.448 55.2779C225.76 59.4295 218.927 58.7341 214.55 57.4252C209.254 55.83 204.684 52.476 201.673 47.9767C198.556 43.3343 197.402 37.8533 198.449 32.5564C200.606 21.5536 201.438 10.9598 200.905 1H200.264C200.776 10.8984 199.965 21.4718 197.83 32.4337C196.762 37.8942 197.936 43.5183 201.139 48.2835C204.236 52.9055 208.934 56.3413 214.379 57.9774C216.664 58.6728 219.013 59 221.361 59C225.568 59 229.818 57.9161 233.768 55.7891C241.071 51.842 247.2 44.6636 252.026 34.4379C255.378 27.3209 260.46 23.067 267.144 21.7581C272.568 20.7151 279.081 21.6559 285.978 24.519C291.146 26.6664 296.356 29.8159 300.499 33.2927V32.4951Z" fill="#848484"/>
<path d="M160.566 281.615C160.022 281.132 159.33 280.939 158.534 281.016C155.831 281.287 152.142 284.855 149.355 288H150.173C152.834 285.029 156.229 281.846 158.597 281.595C159.204 281.537 159.707 281.672 160.126 282.039C161.572 283.293 163.186 285.589 164.653 288H165.386C163.856 285.454 162.117 282.984 160.566 281.615Z" fill="#848484"/>
<path d="M300.498 20.7089C298.736 20.8545 296.78 20.8545 294.696 20.6674C287.367 20.0021 278.513 17.2578 270.389 13.0998C260.976 8.27651 253.111 15.4699 244.02 23.7859C237.1 30.1268 229.256 37.2994 219.542 39.8981C216.125 40.8129 213.481 40.3347 211.654 38.526C205.444 32.3098 209.591 11.9563 212.428 1H211.762C210.902 4.34719 209.914 8.52599 209.14 12.8919C206.755 26.4678 207.442 35.2412 211.182 38.9834C212.536 40.3347 214.276 41 216.382 41C217.414 41 218.51 40.8337 219.714 40.5218C229.556 37.9023 237.487 30.6674 244.45 24.264C253.368 16.1143 261.062 9.06653 270.067 13.6819C278.362 17.9439 287.088 20.6466 294.61 21.3118C296.716 21.499 298.693 21.5198 300.477 21.3742V20.7089H300.498Z" fill="#848484"/>
<path d="M221.458 27.9387C221.804 27.9796 222.127 28 222.473 28C228.214 28 234.624 22.0318 238.055 18.3119C242.609 13.4065 247.034 7.02952 250.12 1H249.408C246.365 6.88645 242.027 13.0999 237.581 17.9031C231.451 24.5254 225.753 27.8774 221.545 27.3255C219.796 27.1007 218.652 26.3444 218.048 25.0568C215.782 20.1514 221.911 8.7464 226.724 1.02044H225.969C225.019 2.57381 224.005 4.24981 223.034 5.98713C217.746 15.4095 215.868 21.9092 217.465 25.302C218.134 26.7941 219.494 27.6934 221.458 27.9387Z" fill="#848484"/>
<path d="M229.176 14.9788C229.309 15 229.464 15 229.62 15C230.953 15 233.063 14.2364 235.995 11.0333C238.172 8.67879 240.26 5.47576 241.482 2.67576C241.682 2.20909 241.904 1.63636 242.104 1.02121H241.416C241.26 1.46667 241.082 1.93333 240.882 2.42121C238.372 8.19091 232.641 14.7879 229.287 14.3212C228.665 14.2364 228.265 13.9818 228.043 13.5152C226.91 11.0545 231.508 3.77879 233.485 1H232.685C231.264 3.05758 226.088 10.8 227.443 13.7697C227.732 14.4485 228.309 14.8515 229.176 14.9788Z" fill="#848484"/>
<path d="M300.479 12.5761C297.65 14.1224 294.367 14.6866 290.692 14.206C286.582 13.6836 281.978 11.9284 276.981 8.98209C272.624 6.41194 268.721 3.36119 265.954 1H265.004C267.833 3.44478 271.983 6.76716 276.671 9.52537C281.751 12.5134 286.438 14.3104 290.63 14.8328C291.497 14.9373 292.344 15 293.19 15C295.875 15 298.311 14.4358 300.5 13.2866V12.5761H300.479Z" fill="#848484"/>
<path d="M162.408 184.79C166.508 182.463 173.614 182.401 183.533 184.624C190.617 186.224 196.671 188.467 197.187 188.654C203.562 189.797 204.358 190.815 204.315 191.563C204.272 192.581 202.554 193.972 189.587 195.842C181.537 197.005 171.94 197.961 164.941 198.647L163.202 198.814C161.936 198.938 160.797 199 159.767 199C155.839 199 153.541 198.086 152.94 196.3C151.845 193.08 156.89 187.927 162.408 184.79ZM171.037 183.627C167.839 183.627 164.876 184.105 162.707 185.33C159.981 186.888 157.426 188.904 155.687 190.877C153.862 192.975 153.09 194.824 153.519 196.112C154.184 198.024 157.49 198.75 163.093 198.19L164.854 198.044C171.853 197.338 181.428 196.404 189.457 195.24C202.188 193.391 203.605 192.041 203.626 191.542C203.648 191.293 203.197 190.379 196.993 189.257L196.928 189.236C196.864 189.216 190.659 186.868 183.36 185.227C179.603 184.375 175.116 183.627 171.037 183.627Z" fill="#848484"/>
<path d="M174.872 48.7891C178.121 47.4233 181.97 47.8526 184.685 49.9014C186.821 51.521 189.135 53.824 187.978 55.7364C187.088 57.2194 184.262 58 180.501 58C177.987 58 175.05 57.6487 171.98 56.9268C169.198 56.2828 167.796 55.4043 167.685 54.2725C167.507 52.7115 169.933 50.8769 174.872 48.7891ZM178.787 48.5938C177.541 48.5938 176.295 48.8276 175.138 49.3155C170.621 51.2278 168.196 52.965 168.329 54.2139C168.418 55.053 169.732 55.7945 172.135 56.3604C179.233 58.0384 186.063 57.6287 187.376 55.4629C188.133 54.2335 187.042 52.4571 184.239 50.3496C182.681 49.1985 180.745 48.5938 178.787 48.5938Z" fill="#848484"/>
<path d="M235.57 281.664C224.341 280.315 217.746 271.281 209.427 259.835C207.1 256.646 204.686 253.335 201.97 249.901C195.16 241.296 187.53 236.125 179.319 234.531C169.987 232.732 159.728 235.512 148.844 242.788C136.883 250.78 119.576 263.636 104.727 275.573C100.567 278.925 95.1359 283.381 89.8125 288H90.7608C94.985 284.362 99.7912 280.356 105.136 276.043C119.964 264.127 137.249 251.27 149.189 243.299C169.469 229.748 187.056 232.098 201.431 250.289C204.125 253.703 206.539 257.014 208.867 260.202C217.294 271.771 223.953 280.887 235.462 282.277C243.631 283.258 248.307 285.179 249.428 288H250.118C249.062 284.832 244.169 282.706 235.57 281.664Z" fill="#848484"/>
<path d="M174.703 258.129C170.653 256.445 166.496 256.648 162.339 258.718C152.033 263.831 142.69 269.879 134.569 276.717C129.576 280.918 125.805 284.773 123.02 288H123.877C130.219 280.756 142.476 269.25 162.618 259.245C166.603 257.277 170.567 257.074 174.424 258.677C182.203 261.904 188.288 271.847 192.016 279.639C193.452 282.602 194.652 285.504 195.616 288H196.302C195.316 285.443 194.095 282.46 192.616 279.396C187.131 267.931 181.088 260.767 174.703 258.129Z" fill="#848484"/>
<path opacity="0.459984" d="M261.656 161.796C262.276 161.939 262.851 162 263.404 162C266.369 162 268.448 160.065 269.223 157.987C270.152 155.44 269.422 152.018 265.616 150.551C259.466 148.167 255.152 147.454 252.763 148.412C251.679 148.839 251.17 149.858 251.28 151.284C251.435 153.097 252.608 155.359 254.422 157.355C256.457 159.596 259.024 161.165 261.656 161.796Z" fill="#848484" stroke="url(#paint1_linear_1062_4476)" stroke-width="5"/>
<path d="M74.6504 211.027C78.0175 209.233 82.5679 210.057 84.3653 211.46C85.1387 212.058 85.4109 212.76 85.1153 213.42C84.5237 214.823 82.2486 216.267 78.3809 217.69C77.8123 217.897 77.2438 218 76.7207 218C75.0371 218 73.7171 217.01 73.0801 215.854C72.2839 214.369 72.4209 212.224 74.6504 211.027ZM79.0635 210.635C77.6758 210.635 76.2425 210.903 74.9912 211.563C73.1256 212.554 72.9891 214.286 73.6944 215.565C74.3997 216.844 76.0834 217.876 78.1309 217.112C81.7708 215.771 83.9777 214.409 84.501 213.192C84.728 212.677 84.3186 212.223 83.9092 211.935C82.9537 211.192 81.0655 210.635 79.0635 210.635Z" fill="#848484"/>
<path d="M92.0437 267.109C96.3627 264.741 106.75 264.359 108.823 266.005C109.255 266.326 109.384 266.748 109.189 267.19C108.346 269.177 99.2123 273.512 96.1892 274.656C95.5416 274.917 94.9372 275.018 94.3327 274.998C92.4756 274.998 91.0288 273.893 90.3161 272.568C89.4092 270.882 89.5819 268.454 92.0437 267.109ZM108.391 266.468C106.534 265.003 96.3198 265.464 92.3679 267.632C90.2516 268.796 90.1001 270.823 90.8991 272.309C91.6981 273.794 93.6199 274.998 95.9304 274.095C99.7527 272.63 107.895 268.535 108.564 266.969C108.629 266.829 108.65 266.668 108.391 266.468Z" fill="#848484"/>
<path d="M18.6966 14.3213C22.3135 12.169 21.1079 5.3241 19.9246 1H19.2324C19.545 2.08587 19.8352 3.34626 20.0808 4.66482C20.6613 8.01939 20.84 12.3435 18.317 13.856C15.3698 15.6011 9.38617 13.313 0.5 7.04986V7.80609C7.35441 12.5956 12.5566 15 16.0396 15C17.0667 14.9806 17.9598 14.7673 18.6966 14.3213Z" fill="#848484"/>
<path d="M136.508 142.647C139.204 141.579 143.451 141.831 149.119 143.424C153.301 144.609 156.762 146.104 156.805 146.124C158.588 146.94 158.652 147.717 158.418 148.223C157.717 149.679 153.301 150.534 149.416 150.845C148.206 150.942 146.847 151 145.446 151C142.325 151 138.992 150.708 136.614 149.873C133.218 148.688 133.048 146.921 133.515 145.639C134.003 144.259 135.001 143.25 136.508 142.647ZM140.477 142.588C139.097 142.588 137.822 142.743 136.761 143.171C135.423 143.695 134.532 144.589 134.107 145.812C133.577 147.328 134.489 148.513 136.867 149.329C139.67 150.3 144.468 150.649 149.372 150.261C153.894 149.891 157.376 148.959 157.843 147.988C158.076 147.483 157.248 146.978 156.526 146.647C156.31 146.549 147.099 142.588 140.477 142.588Z" fill="#848484"/>
<path d="M262.059 268.59C250.731 266.641 249.38 259.353 247.663 250.115C245.733 239.801 243.351 226.969 226.017 216.737C217.328 211.62 209.005 208.412 200.552 206.93C193 205.611 185.492 205.692 177.64 207.194C163.052 209.996 149.279 217.468 135.935 224.675C123.449 231.436 110.534 238.44 96.6322 241.892C89.1665 243.76 82.044 244.45 74.8571 244.044C66.7907 243.577 58.853 241.73 50.6149 238.38C36.2197 232.532 21.9104 230.502 8.09447 232.329C5.54152 232.674 3.01004 233.141 0.5 233.75V234.38C3.05294 233.771 5.60588 233.284 8.20173 232.938C21.9104 231.111 36.091 233.141 50.3789 238.928C60.5263 243.049 69.9229 244.755 78.7831 244.755C100.172 244.755 118.429 234.867 136.256 225.223C150.158 217.691 163.266 210.585 177.769 207.803C185.535 206.301 192.957 206.22 200.423 207.539C208.811 209.001 217.071 212.189 225.674 217.264C233.29 221.751 242.772 227.335 247.041 250.216C247.921 254.987 248.693 259.109 250.731 262.418C252.984 266.093 256.566 268.245 261.951 269.179C277.891 271.94 287.373 276.305 291.771 282.924C292.823 284.488 293.595 286.193 294.11 288H294.775C294.238 286.071 293.445 284.285 292.308 282.599C287.802 275.839 278.191 271.372 262.059 268.59Z" fill="#848484"/>
<path d="M249.609 275.324C236.115 273.427 234.849 269.612 232.103 261.296C229.701 254.05 226.075 243.069 211.895 227.144C192.824 205.708 172.594 219.11 149.167 234.632C125.419 250.376 98.496 268.199 65.6304 255.362C53.0377 250.437 40.3377 248.014 27.8522 248.115C18.5632 248.196 9.35997 249.69 0.5 252.556V253.202C9.35997 250.316 18.5417 248.822 27.8522 248.741C40.2519 248.62 52.8661 251.062 65.373 255.947C80.1754 261.74 95.1279 261.841 111.046 256.29C124.969 251.426 137.454 243.15 149.532 235.157C161.116 227.487 172.057 220.241 182.29 217.657C193.596 214.791 202.842 217.94 211.402 227.568C225.496 243.412 229.1 254.312 231.481 261.518C234.227 269.834 235.622 274.012 249.523 275.97C257.654 277.121 262.738 279.946 264.647 284.367C265.119 285.477 265.398 286.688 265.505 288H266.149C266.063 286.607 265.763 285.315 265.248 284.145C263.231 279.462 257.975 276.515 249.609 275.324Z" fill="#848484"/>
<path d="M181.92 247.724C175.969 243.965 167.983 244.087 158.199 248.151C150.428 251.361 141.5 257.051 131.652 265.017C121.589 273.186 112.597 282.127 106.988 288H107.845C113.454 282.127 122.232 273.43 132.058 265.464C141.864 257.519 150.727 251.87 158.435 248.679C168.004 244.717 175.776 244.554 181.535 248.212C194.916 256.686 202.024 270.991 208.297 283.611C209.046 285.094 209.752 286.557 210.48 287.98H211.187C210.416 286.476 209.645 284.932 208.875 283.347C202.602 270.666 195.451 256.279 181.92 247.724Z" fill="#848484"/>
<path d="M165.995 269.365C163.251 267.505 159.706 267.546 155.465 269.486C152.131 271.022 148.354 273.731 144.239 277.551C140.314 281.209 136.79 285.191 134.469 288H135.292C141.875 280.138 156.963 263.989 165.615 269.85C171.207 273.65 174.477 281.189 177.305 288H177.98C175.11 281.067 171.797 273.306 165.995 269.365Z" fill="#848484"/>
<path d="M59.8113 269.11C54.3223 267.797 48.641 266.443 43.5365 264.831C30.8711 260.79 16.1982 264.194 6.11717 267.757C4.13087 268.454 2.25136 269.19 0.5 269.927V270.583C2.31543 269.827 4.28037 269.051 6.3521 268.314C16.3263 264.791 30.8498 261.427 43.3229 265.408C48.4274 267.04 54.13 268.394 59.6404 269.708C72.0281 272.653 83.7323 275.44 84.5439 280.496C84.8856 282.626 83.3051 285.114 79.7597 288H80.6994C84.0527 285.114 85.5264 282.606 85.1846 280.396C84.2876 274.943 72.9465 272.235 59.8113 269.11Z" fill="#848484"/>
<path d="M52.3908 277.496C48.1062 276.796 42.8912 276.837 38.0873 277.62C29.1936 279.061 11.7957 283.675 0.5 286.785V287.423C11.7957 284.313 29.3018 279.679 38.2171 278.217C42.9561 277.455 48.0846 277.393 52.3042 278.093C58.4064 279.103 60.5487 281.224 61.2845 282.851C61.9553 284.313 61.7822 286.043 60.7868 288H61.5225C62.4746 285.982 62.5828 284.169 61.8687 282.604C60.4189 279.432 55.9179 278.073 52.3908 277.496Z" fill="#848484"/>
<path d="M26.7805 164.061C36.4459 170.262 42.7541 179.156 48.2925 187.009C54.5793 195.902 60.0321 203.593 68.5428 204.837C69.334 204.959 70.1466 205 70.9592 205C77.524 205 85.329 201.39 95.2296 193.781C102.65 188.07 108.83 182.888 114.282 178.299C125.787 168.61 134.105 161.613 143.3 159.349C152.688 157.024 162.994 159.471 178.861 167.773C191.82 174.566 207.28 179.237 221.244 180.583C227.744 181.216 233.646 181.093 238.329 180.196C243.269 179.258 246.733 177.565 248.593 175.137C251.138 171.812 251.758 165.632 240.189 155.045C226.354 142.378 210.616 140.848 193.958 139.237C182.924 138.176 171.505 137.054 159.979 132.628C146.935 127.63 135.623 118.94 125.381 106.11C117.811 96.6249 108.979 92.1374 99.8057 93.1369C93.5617 93.81 87.4246 96.9513 81.5655 102.438C75.685 107.987 70.3818 115.636 65.8485 125.182C62.4699 132.26 58.7491 135.891 54.4082 136.258C45.0208 137.054 34.1579 122 23.6799 107.436C18.4409 100.154 13.0308 92.6473 7.87736 87.2622C5.20441 84.4269 2.76667 82.3667 0.5 81V81.7547C7.7063 86.2831 15.5327 97.1349 23.1667 107.742C28.4271 115.044 33.8799 122.612 39.1189 128.12C44.7214 133.994 49.5114 136.87 53.7239 136.87C53.9805 136.87 54.2372 136.85 54.4938 136.83C59.0699 136.442 62.9831 132.709 66.4472 125.407C70.9592 115.922 76.1982 108.333 82.0359 102.846C87.7881 97.4409 93.7969 94.3608 99.8913 93.708C108.808 92.7493 117.469 97.1553 124.889 106.457C135.196 119.389 146.615 128.12 159.744 133.158C171.355 137.625 182.817 138.727 193.894 139.808C210.445 141.419 226.076 142.929 239.762 155.453C251.01 165.754 250.496 171.629 248.101 174.75C244.595 179.298 234.587 181.236 221.329 179.951C207.451 178.605 192.076 173.954 179.182 167.202C163.166 158.819 152.73 156.371 143.15 158.737C133.806 161.042 125.445 168.079 113.876 177.83C108.423 182.419 102.265 187.6 94.8447 193.291C83.8535 201.736 75.5353 205.204 68.6497 204.204C60.417 203.021 55.0497 195.433 48.8271 186.642C43.2459 178.748 36.9164 169.813 27.144 163.531C19.0396 158.329 11.3201 155.718 4.11384 155.718C2.89497 155.718 1.69749 155.8 0.5 155.943V156.555C8.60441 155.555 17.4145 158.044 26.7805 164.061Z" fill="#848484"/>
<path d="M12.552 224.734C22.4986 224.878 33.6268 226.788 43.4445 228.452C57.5159 230.855 68.6011 232.745 69.976 228.39C72.0384 221.859 65.3357 216.456 54.2075 207.521C46.2373 201.113 36.2907 193.143 25.6566 181.682C17.6649 173.096 9.69472 169.193 2.00381 170.138C1.53118 170.2 1.03707 170.282 0.5 170.385V171.022C1.01559 170.919 1.55267 170.816 2.08974 170.754C9.56582 169.851 17.3212 173.671 25.184 182.113C35.861 193.616 45.8076 201.606 53.7993 208.035C64.7127 216.806 71.3079 222.105 69.3745 228.247C68.1714 232.067 56.764 230.116 43.5734 227.877C29.3302 225.433 12.5949 222.577 0.5 225.063V225.7C3.93728 224.981 7.93311 224.673 12.552 224.734Z" fill="#848484"/>
<path d="M41.3464 222C46.9923 222 50.1628 221.023 50.7708 219.047C52.1171 214.743 40.8904 206.986 34.0501 202.744C24.3868 196.734 12.8777 191.078 6.68885 189.269C4.6259 188.665 2.54123 188.25 0.5 188V188.624C2.47609 188.873 4.49561 189.289 6.49341 189.872C12.6388 191.66 24.0828 197.275 33.6809 203.264C44.8643 210.23 51.0097 216.053 50.1193 218.86C49.2507 221.605 41.5201 222.104 28.3389 220.274C17.6768 218.818 6.53684 216.261 0.521715 214.639V215.283C6.60198 216.926 17.6768 219.442 28.2738 220.919C33.5506 221.646 37.9154 222 41.3464 222Z" fill="#848484"/>
<path d="M13.3011 210C15.8916 210 17.3379 209.52 17.6186 208.56C18.223 206.641 13.9056 203.449 10.171 201.112C6.95454 199.088 3.28473 197.168 0.5 196V196.689C3.21997 197.857 6.73867 199.714 9.82562 201.654C14.618 204.659 17.3595 207.246 16.9925 208.393C16.4097 210.25 7.75326 209.207 0.5 207.642V208.268C2.6803 208.727 5.11964 209.186 7.49421 209.52C9.86879 209.833 11.79 210 13.3011 210Z" fill="#848484"/>
<path d="M101.469 105.238C104.518 104.646 107.312 105.157 109.722 106.772C118.87 112.862 124.799 118.789 130.045 124C138.106 132.012 144.461 138.348 158.407 142.006C167.214 144.315 171.373 146.441 171.097 148.525C170.883 150.14 167.897 151.428 162.203 152.368C156.68 153.267 148.704 153.819 139.15 153.941C131.942 154.044 124.457 156.722 116.247 162.179C109.082 166.961 102.3 173.195 96.3077 178.713C87.4577 186.868 79.7164 194 73.3828 194C72.7646 194 72.1675 193.939 71.5918 193.796C66.3672 192.57 62.2079 189.013 59.5635 183.557C56.8978 177.998 56.0026 170.823 57.0049 162.791C57.922 155.556 60.5879 148.383 64.7676 142.047C79.6314 119.463 91.979 107.078 101.469 105.238ZM103.877 105.627C103.152 105.627 102.384 105.709 101.616 105.852C92.3183 107.65 80.0989 119.934 65.3203 142.374C61.2045 148.628 58.5598 155.72 57.6641 162.873C56.6831 170.782 57.5578 177.854 60.1807 183.311C62.7184 188.604 66.728 192.038 71.7608 193.224C72.2937 193.346 72.8481 193.407 73.4024 193.407C79.4588 193.407 87.115 186.356 95.8584 178.304C101.851 172.765 108.654 166.511 115.883 161.708C124.2 156.19 131.813 153.452 139.149 153.35C148.682 153.227 156.615 152.675 162.096 151.775C169.153 150.611 170.37 149.201 170.477 148.465C170.775 146.135 162.031 143.58 158.257 142.599C144.14 138.879 137.721 132.503 129.617 124.43C124.392 119.239 118.485 113.352 109.379 107.282C107.716 106.179 105.882 105.627 103.877 105.627Z" fill="#848484"/>
<path d="M190.09 148.252C193.992 145.875 199.067 145.367 205.23 146.789C210.113 147.907 215.678 150.223 221.776 153.677C231.925 159.426 240.219 166.456 240.626 166.803C243.611 168.814 244.806 170.318 244.273 171.436C243.761 172.472 241.714 173 238.046 173C234.911 173 230.604 172.614 225.081 171.862C215.081 170.481 203.673 168.185 196.935 166.62C185.676 164.019 180.857 161.723 180.323 158.676C179.833 155.933 182.947 152.62 190.09 148.252ZM198.811 146.605C195.57 146.605 192.776 147.337 190.431 148.759C183.629 152.924 180.537 156.135 180.942 158.532C181.539 161.966 189.428 164.242 197.062 166.01C215.57 170.297 242.074 174.482 243.653 171.171C243.867 170.724 243.718 169.626 240.221 167.27L240.199 167.249C240.108 167.183 231.73 160.014 221.435 154.185C215.4 150.771 209.898 148.475 205.079 147.378C202.84 146.87 200.751 146.605 198.811 146.605Z" fill="#848484"/>
<path d="M203.448 153.928C206.099 152.186 210.116 152.9 215.334 156.047C219.04 158.271 222.084 160.998 222.313 161.209C223.141 161.797 224.032 162.573 223.721 163.266C223.555 163.643 223.079 164 221.257 164C220.18 164 218.648 163.874 216.432 163.56C212.746 163.014 208.521 162.112 206.036 161.503C202.454 160.622 200.031 159.719 199.762 158.208C199.555 157.033 200.695 155.711 203.448 153.928ZM206.784 153.654C205.687 153.654 204.672 153.906 203.802 154.473C201.4 156.025 200.241 157.263 200.365 158.103C200.572 159.341 203.409 160.202 206.163 160.873C215.418 163.16 222.747 163.873 223.143 163.014C223.143 163.014 223.267 162.699 221.942 161.734L221.921 161.712C221.803 161.615 213.033 153.655 206.784 153.654Z" fill="#848484"/>
<path d="M266.732 51.7734C261.529 53.6012 258.446 58.3657 254.142 64.9785C252.065 68.1822 249.688 71.8172 246.712 75.6781C237.034 88.1439 227.291 83.5642 211.146 75.9862C202.817 72.0636 192.432 67.1965 179.606 63.6642C160.956 58.53 148.516 58.797 141.578 64.4856C135.219 69.7019 133.206 79.3336 135.219 94.7977C136.974 108.208 147.466 118.538 166.395 125.521C184.231 132.092 205.344 133.961 216.328 134.516C235.428 135.44 252.193 138.274 266.197 142.895C277.374 146.591 286.817 151.438 294.247 157.311C296.688 159.242 298.765 161.152 300.499 163V162.096C298.851 160.412 296.945 158.646 294.718 156.88C287.224 150.945 277.717 146.057 266.454 142.34C252.386 137.699 235.535 134.865 216.371 133.92C205.408 133.386 184.381 131.517 166.63 124.966C147.937 118.086 137.574 107.921 135.861 94.7567C133.87 79.5185 135.818 70.0716 142.006 64.999C148.773 59.4541 161.02 59.2077 179.435 64.3008C192.218 67.8331 202.56 72.6797 210.868 76.5817C219.069 80.4426 225.557 83.482 231.338 84.016C237.612 84.591 242.515 82.1472 247.226 76.0888C250.223 72.2279 252.6 68.5724 254.699 65.3482C258.917 58.838 261.979 54.1351 266.968 52.3895C272.235 50.5412 279.365 52.102 290.842 57.6058C294.333 59.2898 297.544 61.1381 300.499 63.0891V62.3087C297.63 60.4194 294.504 58.6532 291.121 57.0308C279.451 51.4448 272.171 49.8635 266.732 51.7734Z" fill="#848484"/>
<path d="M279.399 71.0071C274.13 71.1515 269.674 73.5652 266.161 78.1864C262.97 82.3743 260.721 86.1909 258.707 89.533C252.239 100.364 249.283 105.315 229.469 97.8263C223.686 95.6395 216.874 92.4625 209.656 89.0998C189.778 79.8162 167.244 69.2948 155.313 74.4111C151.715 75.9377 149.252 78.8672 147.988 83.0757C146.274 88.7697 146.938 93.9272 150.001 98.404C154.457 104.902 163.839 110.06 178.661 114.186C190.185 117.404 205.029 119.983 225.335 122.335C245.277 124.646 265.926 130.793 283.447 139.623C289.98 142.924 295.785 146.472 300.498 150V149.175C295.85 145.75 290.195 142.326 283.726 139.066C266.14 130.195 245.406 124.027 225.378 121.716C205.093 119.364 190.292 116.785 178.811 113.567C164.138 109.482 154.885 104.387 150.515 98.0326C147.559 93.7209 146.917 88.749 148.566 83.2202C149.808 79.1354 152.079 76.4328 155.528 74.9681C167.201 69.9756 189.585 80.4351 209.334 89.6568C216.553 93.0401 223.386 96.2172 229.191 98.404C238.98 102.097 244.999 102.922 249.325 101.127C253.502 99.3942 255.901 95.392 259.2 89.8424C261.192 86.5004 263.441 82.725 266.611 78.5577C269.996 74.1016 274.28 71.7704 279.356 71.626C286.51 71.4403 294.286 75.6489 300.476 80.1256V79.3417C290.752 72.3274 283.726 70.8833 279.399 71.0071Z" fill="#848484"/>
<path d="M278.264 86.1343C274.471 86.7438 271.67 89.5476 269.925 94.4644C264.71 109.113 252.514 108.118 244.433 107.467C240.038 107.102 236.849 106.858 236.461 109.235C235.965 112.242 237.71 114.558 242.02 116.488C245.856 118.215 251.372 119.556 257.75 121.08C271.11 124.29 288.219 128.415 300.479 139V138.167C288.154 127.765 271.174 123.681 257.901 120.491C245.231 117.443 236.094 115.249 237.086 109.316C237.366 107.589 239.908 107.711 244.369 108.077C248.506 108.402 253.634 108.829 258.483 107.285C264.214 105.456 268.158 101.332 270.528 94.6676C272.187 89.9946 274.837 87.3127 278.371 86.7438C285.03 85.6467 293.8 91.9654 300.501 98.0199V97.1666C300.156 96.8415 299.79 96.5368 299.424 96.2117C290.718 88.6536 283.607 85.2606 278.264 86.1343Z" fill="#848484"/>
<path d="M287.132 101.746C283.784 100.553 280.959 100.788 278.785 102.471C277.003 103.834 276.242 105.773 276.503 108.222C277.438 116.701 290.631 129.184 300.499 135V134.233C296.13 131.613 291.261 127.778 287.088 123.624C281.133 117.681 277.59 112.185 277.133 108.116C276.894 105.922 277.568 104.175 279.177 102.939C285.023 98.4443 294.652 106.326 300.499 112.163V111.247C299.151 109.905 297.608 108.499 295.978 107.157C292.739 104.516 289.762 102.684 287.132 101.746Z" fill="#848484"/>
<path d="M163.261 80.2597C170.02 78.8434 182.746 83.2338 201.053 93.3505C214.656 100.837 226.441 108.869 226.569 108.95C229.114 110.751 230.012 112.228 229.242 113.341C228.386 114.535 225.628 115 221.992 115C217.008 115 210.335 114.13 204.475 113.018C190.21 110.326 176.607 105.753 168.095 100.796C158.514 95.2115 155.262 89.1616 158.706 83.2939C159.625 81.7159 161.166 80.7049 163.261 80.2597ZM165.977 80.6035C165.036 80.6035 164.181 80.6848 163.389 80.8466C161.486 81.2513 160.095 82.1618 159.261 83.5781C157.551 86.4915 157.572 89.4452 159.347 92.3789C160.951 95.0497 164.01 97.7008 168.416 100.27C176.864 105.187 190.38 109.739 204.582 112.41C210.677 113.563 216.43 114.251 220.772 114.353C226.696 114.494 228.279 113.543 228.685 112.977C229.391 112.005 227.723 110.509 226.183 109.436C225.627 109.052 183.707 80.6035 165.977 80.6035Z" fill="#848484"/>
<path d="M174.185 90.1201C176.952 89.475 183.103 91.4306 192.446 95.9472C199.364 99.2907 205.557 102.889 205.643 102.928C205.962 103.143 206.961 103.827 206.473 104.472C206.196 104.863 205.345 105 204.195 105C201.045 105 195.703 103.866 194.341 103.572C187.253 102.008 180.676 99.7602 176.76 97.5507C172.822 95.3217 171.46 93.1507 172.694 91.0976C172.992 90.6088 173.504 90.2765 174.185 90.1201ZM175.399 90.5703C174.995 90.5703 174.655 90.6093 174.336 90.6874C173.804 90.8048 173.463 91.0396 173.25 91.372C172.207 93.0926 173.484 94.989 177.081 97.0224C180.934 99.2123 187.447 101.442 194.492 102.986C201.729 104.57 205.602 104.609 205.964 104.12C206.006 104.1 205.942 103.866 205.262 103.397C204.666 103.045 182.913 90.5703 175.399 90.5703Z" fill="#848484"/>
<path d="M91.7496 123.581C96.9666 119.929 101.652 118.443 105.655 119.185C108.956 119.804 111.789 121.889 114.089 125.397C116.346 128.823 117.432 132.785 117.283 136.871C117.134 140.936 115.749 144.836 113.3 148.138L112.64 149.025C104.506 159.983 96.115 171.312 77.8014 178.782C75.6722 179.649 73.9263 180 72.4996 180C69.6036 180 68.0278 178.555 67.1334 177.028C61.4477 167.267 74.2879 135.839 91.7496 123.581ZM103.591 119.64C100.206 119.64 96.3721 121.146 92.1344 124.118C84.234 129.669 76.462 139.926 71.3512 151.544C66.5599 162.419 65.1327 172.324 67.6881 176.74C69.413 179.691 72.7136 180.186 77.5475 178.205C95.6907 170.797 104.038 159.55 112.109 148.654L112.769 147.767C115.154 144.569 116.496 140.792 116.645 136.85C116.794 132.889 115.729 129.051 113.557 125.749C111.364 122.406 108.659 120.404 105.55 119.826C104.912 119.702 104.252 119.641 103.591 119.64Z" fill="#848484"/>
<path d="M92.7793 134.716C95.9013 132.552 98.6957 131.669 101.119 132.11C103.106 132.468 104.831 133.708 106.206 135.809C108.935 139.969 108.761 145.263 105.727 149.318C100.901 155.768 95.6393 160.685 84.4609 165.223C83.1074 165.769 81.9937 166 81.0986 166C79.3739 166 78.4348 165.181 77.9326 164.319C76.4261 161.756 77.3433 156.336 80.3125 150.18C83.4128 143.793 88.0633 137.994 92.7793 134.716ZM99.874 132.637C97.8872 132.637 95.6599 133.519 93.1709 135.242C88.5643 138.457 83.9794 144.15 80.9228 150.453C78.0627 156.315 77.1242 161.652 78.5215 164.026C79.4386 165.602 81.3598 165.812 84.2197 164.656C95.2671 160.181 100.442 155.328 105.201 148.962C108.083 145.117 108.258 140.095 105.66 136.166C104.372 134.233 102.822 133.079 101.01 132.742C100.639 132.679 100.267 132.637 99.874 132.637Z" fill="#848484"/>
<path d="M291.005 165.929C285.527 162.819 280.072 162.16 275.668 164.075C269.117 166.897 266.11 174.805 268.687 182.466C269.353 184.443 268.945 186.029 267.485 187.264C262.866 191.136 247.938 191.465 226.502 188.15C207.986 185.287 188.032 180.118 177.958 175.546C169.602 171.757 162.858 171.139 157.896 173.672C153.492 175.917 150.593 180.736 149.497 187.573C147.865 197.808 125.419 207.57 107.376 215.396C94.5739 220.956 84.4571 225.343 83.1038 228.947C82.8676 229.565 82.889 230.141 83.1683 230.677C84.3711 233.066 87.3138 233.477 92.7482 232.015C97.7529 230.656 104.841 227.752 113.798 224.066C127.695 218.341 146.748 210.494 171.192 203.019C191.232 196.902 208.652 197.602 222.957 205.099C230.712 209.176 237.413 215.19 242.869 222.974C247.53 229.647 251.246 237.617 253.587 246.04C255.306 252.218 259.065 257.367 264.778 261.341C269.396 264.554 275.325 267.025 282.37 268.693C287.869 269.991 294.119 270.773 300.499 271V270.382C294.162 270.156 287.976 269.373 282.52 268.076C275.561 266.449 269.718 263.998 265.165 260.826C259.58 256.934 255.907 251.909 254.21 245.855C251.847 237.349 248.11 229.317 243.406 222.604C237.886 214.716 231.12 208.641 223.258 204.522C208.802 196.923 191.211 196.223 170.998 202.38C146.512 209.856 127.459 217.702 113.54 223.448C95.7768 230.759 85.9821 234.795 83.7482 230.368C83.5549 229.976 83.5334 229.565 83.7053 229.111C84.9726 225.755 95.4761 221.183 107.655 215.911C116.719 211.977 127.008 207.508 135.106 202.772C144.471 197.294 149.39 192.33 150.142 187.614C151.194 180.983 153.986 176.329 158.196 174.166C162.986 171.716 169.538 172.354 177.7 176.061C192.693 182.857 229.294 190.971 251.525 190.971C259.193 190.971 265.165 190.003 267.936 187.676C269.611 186.276 270.084 184.443 269.332 182.219C266.862 174.866 269.718 167.267 275.969 164.569C284.002 161.11 292.895 166.341 300.477 174.537V173.487C297.341 170.295 294.184 167.741 291.005 165.929Z" fill="#848484"/>
<path d="M288.501 176.367C286.277 175.712 284.181 175.937 282.278 177.022C276.696 180.237 277.915 186.135 278.984 191.357C279.733 194.982 280.438 198.401 278.706 200.306C277.508 201.616 275.177 202.169 271.606 201.965C263.457 201.514 255.63 199.855 249.342 198.524C240.98 196.763 234.927 195.473 232.725 197.828C232.062 198.545 231.741 199.343 231.805 200.224C231.976 203.009 235.826 206.265 240.723 210.381C247.759 216.32 256.528 223.733 259.544 233.685C262.495 243.392 266.473 252.996 275.669 257.44C279.198 259.14 283.326 260 288.095 260C291.816 260 295.944 259.488 300.478 258.444V257.809C290.212 260.184 282.128 259.877 275.947 256.887C266.986 252.546 263.051 243.085 260.142 233.501C257.063 223.385 248.23 215.91 241.13 209.91C236.36 205.876 232.596 202.702 232.425 200.163C232.382 199.446 232.639 198.811 233.195 198.217C235.141 196.128 241.343 197.439 249.214 199.098C255.523 200.429 263.393 202.087 271.584 202.538C275.37 202.743 277.851 202.128 279.198 200.654C281.123 198.524 280.396 194.961 279.626 191.193C278.535 185.93 277.423 180.503 282.62 177.514C284.352 176.51 286.277 176.326 288.33 176.899C291.944 177.944 296.115 181.527 300.499 187.282V186.217C296.949 181.732 292.714 177.575 288.501 176.367Z" fill="#848484"/>
<path d="M292.773 196.309C289.69 197.279 287.536 200.517 287.43 204.395C287.367 206.829 286.86 208.335 285.825 209.263C283.587 211.264 278.456 210.955 269.122 210.398L268.024 210.336C264.413 210.13 262.449 210.583 261.794 211.759C260.802 213.595 263.23 216.71 266.609 221.042C269.629 224.899 273.388 229.685 275.499 234.8C277.125 238.719 279.892 241.422 283.693 242.845C285.931 243.67 288.381 244 290.83 244C294.293 244 297.735 243.361 300.502 242.639V241.979C295.434 243.319 289.077 244.165 283.925 242.267C280.293 240.927 277.653 238.327 276.091 234.573C273.937 229.375 270.157 224.548 267.116 220.67C264.117 216.854 261.541 213.554 262.344 212.069C262.85 211.14 264.687 210.79 267.961 210.975L269.059 211.037C278.857 211.615 283.798 211.904 286.227 209.738C287.409 208.686 287.979 207.036 288.043 204.416C288.148 200.806 290.112 197.794 292.942 196.907C295.201 196.206 297.799 196.846 300.502 198.681V197.898C297.038 195.649 294.357 195.814 292.773 196.309Z" fill="#848484"/>
<path d="M287.683 218.181C285.733 220.328 285.132 223.041 286.003 225.836C286.957 228.874 290.482 230.595 296.476 230.939C297.264 230.98 298.052 231 298.798 231C299.379 231 299.96 230.98 300.499 230.959V230.352C295.501 230.534 287.952 230.048 286.584 225.633C285.775 223.041 286.335 220.53 288.118 218.566C290.607 215.832 295.065 214.435 300.478 214.617V214.009C294.92 213.868 290.296 215.326 287.683 218.181Z" fill="#848484"/>
<path d="M24.2699 154.714C32.438 157.919 40.2389 161 45.5115 161C46.9377 161 48.1694 160.773 49.185 160.276C50.6112 159.573 51.5188 158.312 51.9077 156.554C52.8369 152.419 48.2342 148.428 41.2545 142.39C34.3396 136.414 24.8749 128.246 16.5122 116.005C10.8291 107.713 5.49167 102.378 0.521609 100V100.682C5.29719 103.06 10.4617 108.271 15.9504 116.336C24.3779 128.66 33.8642 136.848 40.8007 142.845C47.6075 148.738 52.1238 152.625 51.2595 156.409C50.8921 158.002 50.1142 159.077 48.8609 159.697C44.3878 161.951 34.7286 158.146 24.5076 154.114C17.7656 151.467 10.7859 148.717 4.73536 147.477C3.22273 147.166 1.79654 146.96 0.5 146.856V147.477C1.75332 147.58 3.13629 147.766 4.6057 148.076C10.613 149.338 17.5711 152.067 24.2699 154.714Z" fill="#848484"/>
<path d="M20.2263 143C22.3723 143 23.7341 142.482 24.2913 141.465C25.6531 138.914 21.5469 134.05 12.0552 126.953C7.76325 123.764 3.30625 120.814 0.5 119V119.698C9.88857 125.738 25.9007 137.159 23.7548 141.186C23.3008 142.043 22.0628 142.422 20.3295 142.422C15.7693 142.422 7.68071 139.91 0.5 137.239V137.877C2.04757 138.455 3.67767 139.033 5.32841 139.591C12.0139 141.864 17.0074 143 20.2263 143Z" fill="#848484"/>
<path d="M116.242 186.53C120.261 181.923 126.354 179.519 132.467 180.08C136.063 180.421 137.882 181.623 137.903 183.686C137.946 190.516 116.01 204.778 106.132 205.779C104.694 205.94 103.593 206 102.768 206C100.992 206 100.399 205.7 100.187 205.259C99.7644 204.338 101.288 203.016 103.826 200.813C106.534 198.469 110.235 195.263 112.625 191.438C113.767 189.615 114.973 187.973 116.242 186.53ZM130.731 180.621C125.401 180.621 120.282 182.905 116.75 186.911C115.502 188.313 114.317 189.956 113.196 191.738C110.764 195.644 106.998 198.889 104.269 201.253C102.451 202.835 100.547 204.477 100.8 204.998C100.948 205.319 101.985 205.599 106.089 205.179C110.616 204.718 118.167 201.293 125.338 196.466C132.72 191.498 137.31 186.591 137.289 183.706C137.289 182.004 135.639 180.982 132.445 180.701C131.874 180.641 131.302 180.621 130.731 180.621Z" fill="#848484"/>
<path d="M21.4641 82.0488C26.2921 90.5264 31.4634 99.2496 36.5059 105.618C42.0634 112.601 46.8914 116 51.2902 116C51.3331 116 51.376 116 51.419 116C55.7963 115.939 59.6587 112.58 63.2207 105.782C70.7094 91.5093 79.5714 82.786 88.8625 80.5949C95.214 79.1001 101.737 80.5744 108.239 85.018C113.238 88.4377 116.8 89.5639 119.075 88.4786C122.444 86.8814 122.637 80.9225 122.851 74.0422C123.087 66.4861 123.345 57.9062 128.087 53.9745C130.297 52.1521 133.258 51.4763 137.142 51.8859C147.313 52.9916 156.991 51.5173 165.123 47.6676C172.848 44.0021 178.834 38.4119 182.418 31.4906C185.83 24.9174 186.817 17.5046 185.315 10.0919C184.692 6.99982 183.641 3.9692 182.203 1H181.474C186.495 11.1157 186.774 21.7639 181.86 31.2244C178.341 38.0228 172.461 43.5107 164.865 47.1147C156.84 50.9234 147.27 52.3568 137.228 51.2715C133.215 50.8415 129.997 51.5787 127.679 53.5036C122.723 57.599 122.465 66.3223 122.208 74.0012C122.015 80.4106 121.821 86.4719 118.796 87.9053C116.736 88.8882 113.41 87.7619 108.604 84.4856C101.93 79.9396 95.2355 78.4243 88.6909 79.9601C79.2066 82.2126 70.1944 91.0383 62.6413 105.475C59.1866 112.048 55.5174 115.283 51.419 115.345C51.376 115.345 51.3331 115.345 51.2902 115.345C41.9562 115.345 31.7209 98.7377 22.022 81.7007C16.0782 71.3187 8.86848 64.1517 0.5 60.3429V61.0187C8.61099 64.807 15.6491 71.8511 21.4641 82.0488Z" fill="#848484"/>
<path d="M29.3417 56C33.0322 56 36.2748 55.4854 38.9414 54.4356C45.0212 52.0479 48.0504 47.1695 47.9437 39.8829C47.8371 32.7403 49.821 27.4296 54.0022 23.6628C64.3058 14.3177 86.4917 15.9233 110 17.6523C113.456 17.8993 117.04 18.1669 120.56 18.3933C123.994 18.6198 127.152 18.7227 130.053 18.7227C143.3 18.7227 150.81 16.4379 152.452 11.8888C153.604 8.67777 151.684 4.78743 148.612 1H147.78C150.938 4.76684 152.943 8.61602 151.855 11.7036C149.978 16.9319 139.482 18.9903 120.624 17.7964C117.104 17.57 113.52 17.3024 110.064 17.0554C86.4277 15.3263 64.0925 13.7002 53.5755 23.2305C49.2663 27.1415 47.2184 32.5962 47.3251 39.924C47.4317 46.9225 44.5305 51.6362 38.728 53.9004C31.2616 56.8234 19.1234 55.4854 5.38517 50.2365C3.74256 49.619 2.12128 48.9397 0.5 48.2399V48.9192C2.03595 49.5984 3.59323 50.2365 5.15051 50.8129C14.1529 54.2298 22.5153 56 29.3417 56Z" fill="#848484"/>
<path d="M17.1559 35.9594C24.8334 35.5122 31.338 31.6707 36.5203 24.5366L37.3734 23.3577C43.6647 14.6992 46.821 10.3496 51.4915 8.54065C56.1619 6.73171 62.4959 7.38211 75.1211 8.70325C76.6566 8.86585 78.2988 9.02845 80.0262 9.21138C94.9973 10.7358 105.831 11.2642 113.146 10.7764C120.205 10.3089 124.215 8.94715 125.75 6.4878C126.688 4.98374 126.646 3.15447 125.878 1H125.217C125.985 3.07317 126.07 4.80081 125.196 6.18293C123.788 8.39837 119.843 9.71951 113.103 10.1667C105.81 10.6545 95.0187 10.1463 80.0902 8.60163C78.3627 8.4187 76.7206 8.2561 75.1851 8.0935C62.4532 6.75203 56.0766 6.0813 51.2355 7.97154C46.3944 9.86179 43.1955 14.252 36.8402 23.0122L35.9872 24.1911C30.9115 31.1626 24.5775 34.9228 17.1133 35.3496C13.2745 35.5732 7.70833 34.9431 0.5 31.7317V32.4024C6.83394 35.187 11.9096 36 15.6844 36C16.2176 36 16.7081 35.9797 17.1559 35.9594Z" fill="#848484"/>
<path d="M26.6935 22.4765C29.8411 21.0589 31.9982 18.6467 33.0768 15.3036C34.6836 10.437 35.0358 5.52806 34.7717 1H34.1113C34.3755 5.46458 34.0233 10.31 32.4385 15.1132C31.4039 18.287 29.3569 20.5722 26.3853 21.9052C19.3197 25.0791 8.33604 22.4765 0.5 19.874V20.5511C5.76071 22.2861 12.4081 24 18.3952 24C21.4108 24 24.2723 23.5557 26.6935 22.4765Z" fill="#848484"/>
<path d="M158.332 16.0704C154.108 24.0548 135.4 22.9725 135.187 22.9521C124.712 22.9521 114.985 22.2374 106.409 21.5839C93.6525 20.6241 82.6237 19.8073 74.4747 21.829C70.1656 22.8908 66.8164 24.7082 64.2566 27.3629C61.4834 30.2218 59.6061 34.0813 58.4968 39.1252C54.8063 55.9925 45.1428 58.0142 37.3565 59.6274C32.6634 60.6076 28.6102 61.4448 27.2663 65.4472C26.0503 69.1025 27.4583 76.3722 30.8928 83.9687C34.562 92.1165 39.5537 98.4264 44.2468 100.836C45.7614 101.612 47.276 102 48.7053 102C51.4358 102 54.017 100.611 56.2783 97.8955C59.7128 93.7705 62.5073 89.278 65.2165 84.9284C70.2723 76.8011 74.6241 69.7968 81.3864 68.2244C85.5462 67.2647 90.3887 68.4491 96.1484 71.9001C103.785 76.4539 109.076 77.8833 112.34 76.2701C116.393 74.2689 116.798 68.0815 117.225 61.5061C117.801 52.6844 118.398 43.5564 127.87 43.9648C130.045 44.0465 132.136 44.1078 134.163 44.1078C154.642 44.1078 167.932 39.4723 173.67 30.2831C178.193 23.0746 177.041 14.3755 175.291 8.37182C174.459 5.49252 173.414 2.96037 172.497 1H171.793C172.731 2.96037 173.819 5.59462 174.673 8.5556C177.766 19.2355 175.526 26.0968 173.115 29.9767C166.929 39.8603 151.698 44.3732 127.891 43.3726C123.347 43.1888 120.318 45.0267 118.633 49.0087C117.161 52.4598 116.862 57.0544 116.585 61.5061C116.179 67.8977 115.774 73.9218 112.041 75.7596C108.99 77.2707 103.913 75.8413 96.4684 71.41C90.538 67.8773 85.5462 66.652 81.2158 67.6731C74.1974 69.3067 69.7603 76.4131 64.6405 84.663C61.9527 88.9921 59.1581 93.4642 55.745 97.5483C52.4171 101.53 48.6413 102.449 44.5028 100.326C39.9377 97.9771 35.0313 91.7897 31.4261 83.7645C28.1196 76.4131 26.669 69.1433 27.8209 65.6719C29.0582 61.9962 32.7487 61.2202 37.4418 60.2604C41.367 59.4436 45.8041 58.5247 49.7719 55.625C54.3584 52.276 57.4089 46.9258 59.0728 39.2681C61.142 29.7725 65.9205 24.5857 74.5814 22.4416C78.2079 21.5431 82.453 21.2163 87.1675 21.2163C92.8846 21.2163 99.3483 21.7064 106.303 22.2169C114.9 22.85 124.627 23.5851 135.101 23.5851C135.101 23.5851 135.101 23.5851 135.123 23.5851C135.165 23.5851 139.986 23.8914 145.255 23.1563C152.423 22.1761 156.988 19.889 158.865 16.3767C160.892 12.558 159.591 7.41205 154.983 1.02042H154.215C158.908 7.33037 160.273 12.3947 158.332 16.0704Z" fill="#848484"/>
<path d="M159.715 22.8755C156.213 27.1309 145.62 28.8953 129.112 27.9819C116.576 27.2969 104.958 25.2834 104.851 25.2626C104.787 25.2419 97.6967 24.0171 89.7095 25.5325C84.9898 26.4043 80.8894 28.0442 77.4937 30.4107C73.2438 33.3583 70.1045 37.4269 68.1824 42.4919C64.4664 52.3105 60.3019 59.0153 55.4327 63.0009C51.2042 66.4675 47.0824 67.3809 43.2383 68.0244C37.6216 68.9585 35.7209 72.4458 35.1229 75.2067C33.927 80.6038 36.8101 87.8899 41.2949 90.8168C42.5122 91.6056 43.7508 92 44.9468 92C46.0573 92 47.1465 91.6679 48.1716 90.9828C52.3788 88.2013 56.6927 82.8457 61.263 77.1995C69.955 66.426 78.9459 55.2996 87.9796 60.8836C89.3037 61.6931 90.5851 62.5027 91.8024 63.2915C98.4228 67.5054 103.676 70.8475 106.987 69.2699C108.951 68.3357 110.062 65.8655 110.468 61.4648C111.301 52.3727 112.838 45.5226 117.643 41.6616C121.06 38.9007 125.93 37.8836 132.55 38.5063C151.087 40.2708 163.303 37.074 168.877 29.0406C173.341 22.6056 172.572 14.2401 171.141 8.34477C170.329 5.00271 169.219 2.05505 168.343 0H167.66C168.535 2.0343 169.689 5.04422 170.522 8.49007C171.91 14.2608 172.657 22.4395 168.343 28.6877C162.919 36.5135 150.895 39.6065 132.614 37.8836C125.823 37.2401 120.804 38.3195 117.238 41.1841C112.283 45.1904 110.681 52.1652 109.827 61.4233C109.443 65.5334 108.439 67.9206 106.709 68.7301C103.719 70.1417 98.615 66.9034 92.1655 62.7933C90.9268 62.0045 89.6454 61.1949 88.3213 60.3854C84.0287 57.7283 79.3944 58.3926 74.1621 62.4197C69.5919 65.907 65.1071 71.4702 60.7718 76.8466C56.2443 82.472 51.9516 87.7653 47.8299 90.5054C45.4166 92.1038 43.1529 91.2942 41.6579 90.3186C37.3653 87.5162 34.6104 80.5208 35.7423 75.352C36.3189 72.778 38.0914 69.519 43.3451 68.6471C47.2746 67.9828 51.4818 67.0487 55.8385 63.4783C60.7931 59.4097 65.0217 52.6218 68.7804 42.6995C70.6597 37.7383 73.7137 33.7735 77.8354 30.9088C81.1456 28.6047 85.182 27.0063 89.7949 26.1345C92.7848 25.574 95.6465 25.3872 98.0598 25.3872C101.989 25.3872 104.68 25.8646 104.723 25.8646C104.83 25.8854 116.49 27.8989 129.069 28.5839C146.026 29.5181 156.512 27.7329 160.206 23.2491C163.858 18.8484 164.713 12.8908 162.662 6.04061C161.958 3.69495 161.039 1.61913 160.228 0.0207581H159.502C160.335 1.59838 161.317 3.75722 162.043 6.20668C163.431 10.8357 164.136 17.4991 159.715 22.8755Z" fill="#848484"/>
<path d="M90.8774 31.999C93.165 30.9325 95.7093 30.707 98.061 31.3838C100.37 32.0401 102.102 33.4149 103.192 35.4658C106.527 41.6393 103.576 52.4888 101.524 58.3955C100.989 59.954 100.327 60.7744 99.4507 60.959C99.3224 60.9795 99.1941 61 99.0659 61C97.6336 61 95.9873 59.3799 93.935 57.3701C91.9895 55.4627 89.7872 53.3087 87.1362 51.791C82.7107 49.2478 80.5294 46.3968 80.6577 43.2793C80.8931 37.8444 88.3119 33.2091 90.8774 31.999ZM95.3022 31.6309C93.8913 31.6309 92.4802 31.9384 91.1548 32.5537C88.6747 33.7228 81.5132 38.1734 81.2993 43.3008C81.171 46.1721 83.2663 48.8591 87.478 51.2588C90.193 52.797 92.5235 55.0937 94.4048 56.9394C96.4144 58.9084 98.1459 60.6113 99.3218 60.3652C99.9418 60.2217 100.476 59.5236 100.925 58.2109C105.65 44.6338 104.025 38.3166 102.614 35.7734C101.588 33.8868 99.984 32.6152 97.8676 32C97.0339 31.7539 96.1787 31.6309 95.3022 31.6309Z" fill="#848484"/>
<path d="M92.6745 41.3439C93.3331 40.9823 94.0673 40.8971 94.7448 41.131C95.4035 41.3649 95.9118 41.8328 96.2506 42.5558C97.1917 44.5976 96.3827 48.1073 95.818 50.0216C95.7239 50.3831 95.5357 50.8722 95.1217 50.9786C95.0654 50.9999 95.0276 51.0001 94.9713 51.0001C94.5008 51.0001 94.0482 50.4686 93.4459 49.7667C92.9378 49.1712 92.3542 48.4905 91.6579 48.0226C90.397 47.1718 89.7765 46.1932 89.8141 45.1085C89.8892 42.945 92.6405 41.3737 92.6745 41.3439ZM93.9528 41.6407C93.5952 41.6407 93.2564 41.7257 92.9176 41.9171C92.4094 42.2149 90.4331 43.5978 90.3766 45.1505C90.3391 45.9587 90.8664 46.7458 91.9391 47.4689C92.6918 47.9793 93.3314 48.724 93.8395 49.3194C94.2536 49.7874 94.7809 50.4038 94.9879 50.34C95.0444 50.3399 95.1573 50.17 95.2702 49.8087C95.7031 48.3411 96.6063 44.7252 95.7594 42.8321C95.4959 42.2791 95.1194 41.9173 94.5924 41.7472C94.3855 41.6834 94.1597 41.6407 93.9528 41.6407Z" fill="#848484"/>
<path d="M262.688 37.1829C254.541 39.8865 248.89 47.7736 245.925 60.6206C244.56 66.5562 241.148 70.2964 235.795 71.7397C225.772 74.4636 209.734 68.2027 198.538 57.1649C189.56 48.3427 185.956 38.6465 188.643 30.5765C191.138 23.096 191.842 14.965 190.754 6.44777C190.519 4.65895 190.199 2.82947 189.816 1H189.154C189.56 2.87013 189.88 4.6996 190.114 6.52908C191.202 14.965 190.498 23.0147 188.046 30.4139C185.273 38.7075 188.941 48.607 198.09 57.6121C203.422 62.8566 210.118 67.2676 216.964 70.0322C221.826 72.004 226.518 73 230.656 73C232.575 73 234.366 72.7764 235.987 72.3495C241.489 70.8656 245.157 66.8611 246.565 60.7628C249.487 48.1395 254.968 40.415 262.901 37.7724C274.204 34.0119 288.685 41.0858 300.499 49.2778V48.5257C288.599 40.3337 274.119 33.402 262.688 37.1829Z" fill="#848484"/>
<path d="M266.267 21.1855C259.331 22.5148 254.048 26.9118 250.59 34.213C245.801 44.3159 239.724 51.3921 232.508 55.2779C224.777 59.4295 217.905 58.7341 213.502 57.4252C208.177 55.83 203.581 52.476 200.553 47.9767C197.417 43.3343 196.258 37.8533 197.31 32.5564C199.479 21.5536 200.295 10.9394 199.78 1H199.135C199.651 10.8984 198.835 21.4718 196.687 32.4337C195.613 37.8942 196.795 43.5183 200.016 48.2835C203.13 52.9055 207.854 56.3413 213.331 57.9774C215.629 58.6728 217.991 59 220.353 59C224.584 59 228.857 57.9161 232.83 55.7891C240.175 51.842 246.338 44.6636 251.192 34.4379C254.563 27.3209 259.675 23.067 266.396 21.7581C271.851 20.7151 278.401 21.6559 285.338 24.519C290.771 26.7482 296.269 30.1023 300.499 33.763V32.945C291.759 25.6234 277.671 18.9972 266.267 21.1855Z" fill="#848484"/>
<path d="M160.566 281.702C160.022 281.151 159.33 280.931 158.534 281.019C155.831 281.327 152.142 285.406 149.355 289H150.173C152.834 285.605 156.229 281.967 158.597 281.68C159.204 281.614 159.707 281.768 160.126 282.187C161.572 283.62 163.186 286.244 164.653 289H165.386C163.856 286.09 162.138 283.246 160.566 281.702Z" fill="#848484"/>
<path d="M294.153 20.6882C286.869 20.0229 278.068 17.2786 269.993 13.1206C260.636 8.2973 252.818 15.4906 243.781 23.8067C236.903 30.1476 229.105 37.3202 219.45 39.9189C216.053 40.8337 213.426 40.3555 211.61 38.5468C205.436 32.3306 209.58 11.9771 212.4 1H211.738C210.883 4.34719 209.901 8.52599 209.132 12.8919C206.76 26.4678 207.444 35.2412 211.161 38.9834C212.507 40.3347 214.237 41 216.331 41C217.356 41 218.446 40.8337 219.642 40.5218C229.426 37.9023 237.309 30.6674 244.23 24.264C253.095 16.1143 260.743 9.06653 269.694 13.6819C277.94 17.9439 286.613 20.6466 294.089 21.3118C296.418 21.5198 298.554 21.5198 300.498 21.3118V20.6882C298.597 20.8961 296.461 20.8961 294.153 20.6882Z" fill="#848484"/>
<path d="M221.458 27.9387C221.804 27.9796 222.127 28 222.473 28C228.214 28 234.624 22.0318 238.055 18.3119C242.609 13.4065 247.034 7.02952 250.12 1H249.408C246.365 6.88645 242.027 13.0999 237.581 17.9031C231.451 24.5254 225.753 27.8774 221.545 27.3255C219.796 27.1007 218.652 26.3444 218.048 25.0568C215.782 20.1514 221.911 8.7464 226.724 1.02044H225.969C225.019 2.57381 224.005 4.24981 223.034 5.98713C217.746 15.4095 215.868 21.9092 217.465 25.302C218.156 26.7941 219.494 27.673 221.458 27.9387Z" fill="#848484"/>
<path d="M229.176 14.9788C229.309 15 229.464 15 229.62 15C230.953 15 233.063 14.2364 235.995 11.0333C238.172 8.67879 240.26 5.47576 241.482 2.67576C241.682 2.20909 241.904 1.63636 242.104 1.02121H241.416C241.26 1.46667 241.082 1.93333 240.882 2.42121C238.372 8.19091 232.641 14.7879 229.287 14.3212C228.665 14.2364 228.265 13.9818 228.043 13.5152C226.91 11.0545 231.508 3.77879 233.485 1H232.685C231.264 3.05758 226.088 10.8 227.443 13.7697C227.732 14.4697 228.331 14.8727 229.176 14.9788Z" fill="#848484"/>
<path d="M289.966 14.206C285.79 13.6836 281.11 11.9284 276.031 8.98209C271.603 6.41194 267.637 3.36119 264.825 1H263.859C266.734 3.44478 270.953 6.76716 275.716 9.52537C280.879 12.5134 285.643 14.3104 289.903 14.8328C290.784 14.9373 291.645 15 292.505 15C295.464 15 298.129 14.3313 300.501 12.994V12.2627C297.458 14.0388 293.953 14.7075 289.966 14.206Z" fill="#848484"/>
<path d="M162.408 184.79C166.508 182.463 173.614 182.401 183.533 184.624C190.638 186.224 196.692 188.467 197.187 188.654C203.562 189.797 204.358 190.815 204.315 191.563C204.272 192.581 202.554 193.972 189.587 195.842C181.537 197.005 171.94 197.961 164.941 198.647L163.202 198.814C161.936 198.938 160.797 199 159.767 199C155.839 199 153.541 198.086 152.94 196.3C151.845 193.08 156.89 187.927 162.408 184.79ZM171.08 183.649C167.882 183.649 164.919 184.126 162.75 185.352C160.024 186.91 157.469 188.925 155.73 190.899C153.905 192.997 153.132 194.846 153.562 196.134C154.227 198.045 157.533 198.772 163.136 198.211L164.875 198.045C171.874 197.339 181.45 196.404 189.479 195.24C202.207 193.392 203.626 192.042 203.648 191.543C203.648 191.294 203.197 190.379 197.035 189.278L196.971 189.258C196.907 189.237 190.702 186.889 183.403 185.248C179.646 184.396 175.159 183.649 171.08 183.649Z" fill="#848484"/>
<path d="M174.872 48.7891C178.121 47.4233 181.993 47.8526 184.685 49.9014C186.821 51.521 189.135 53.824 187.978 55.7364C187.088 57.2194 184.262 58 180.501 58C177.987 58 175.05 57.6487 171.98 56.9268C169.198 56.2828 167.796 55.4043 167.685 54.2725C167.507 52.7115 169.933 50.8769 174.872 48.7891ZM178.811 48.5938C177.565 48.5938 176.318 48.8276 175.161 49.3155C170.645 51.2278 168.219 52.965 168.353 54.2139C168.442 55.053 169.755 55.7945 172.158 56.3604C179.256 58.0384 186.087 57.6287 187.4 55.4629C188.134 54.214 187.066 52.4571 184.262 50.3496C182.705 49.1985 180.769 48.5938 178.811 48.5938Z" fill="#848484"/>
<path d="M235.57 281.664C224.341 280.315 217.746 271.281 209.427 259.835C207.1 256.646 204.686 253.335 201.97 249.901C195.16 241.296 187.53 236.125 179.319 234.531C169.987 232.732 159.728 235.512 148.844 242.788C136.883 250.78 119.576 263.636 104.727 275.573C100.567 278.925 95.1359 283.381 89.8125 288H90.7608C94.985 284.362 99.7912 280.356 105.136 276.043C119.964 264.127 137.249 251.27 149.189 243.299C169.469 229.748 187.056 232.098 201.431 250.289C204.125 253.703 206.539 257.014 208.867 260.202C217.294 271.771 223.953 280.887 235.462 282.277C243.631 283.258 248.307 285.179 249.428 288H250.118C249.062 284.832 244.169 282.706 235.57 281.664Z" fill="#848484"/>
<path d="M173.895 258.166C169.909 256.427 165.817 256.636 161.725 258.773C151.579 264.052 142.383 270.294 134.389 277.353C129.474 281.689 125.762 285.669 123.02 289H123.863C130.107 281.522 142.172 269.645 161.999 259.318C165.922 257.286 169.824 257.076 173.621 258.731C181.278 262.062 187.268 272.326 190.938 280.37C192.352 283.428 193.533 286.423 194.482 289H195.157C194.187 286.361 192.984 283.281 191.529 280.118C186.129 268.283 180.181 260.889 173.895 258.166Z" fill="#848484"/>
<path d="M74.6504 211.027C77.9948 209.233 82.5679 210.057 84.3653 211.46C85.1387 212.058 85.4109 212.76 85.1153 213.42C84.5237 214.823 82.2486 216.267 78.3809 217.69C77.8123 217.897 77.2438 218 76.7207 218C75.0371 218 73.7171 217.01 73.0801 215.854C72.2839 214.369 72.4209 212.224 74.6504 211.027ZM79.0401 210.635C77.6523 210.635 76.2191 210.903 74.9678 211.563C73.1022 212.554 72.9656 214.286 73.6709 215.565C74.3763 216.844 76.06 217.876 78.1074 217.112C81.7473 215.771 83.9543 214.409 84.4776 213.192C84.7046 212.677 84.2951 212.203 83.8858 211.935C82.9303 211.192 81.042 210.635 79.0401 210.635Z" fill="#848484"/>
<path d="M90.8992 267.109C95.2182 264.741 105.605 264.359 107.678 266.005C108.11 266.326 108.24 266.748 108.046 267.189C107.204 269.177 98.0695 273.512 95.0457 274.656C94.3979 274.897 93.7713 275.018 93.1883 274.998C91.3313 274.998 89.8844 273.894 89.1717 272.569C88.2647 270.883 88.4374 268.454 90.8992 267.109ZM107.247 266.468C105.39 265.002 95.1754 265.464 91.2234 267.632C89.1072 268.796 88.9557 270.823 89.7547 272.309C90.5536 273.794 92.4539 274.999 94.7859 274.096C98.6082 272.63 106.75 268.534 107.42 266.969C107.484 266.828 107.505 266.668 107.247 266.468Z" fill="#848484"/>
<path d="M18.6865 14.3398C22.306 12.1845 21.1218 5.3301 19.9153 1H19.2227C19.5355 2.08738 19.826 3.34951 20.0717 4.6699C20.6526 8.02913 20.8314 12.3592 18.329 13.8738C15.3799 15.6214 9.39218 13.3301 0.5 7.05825V7.79612C7.35905 12.5922 12.5648 15 16.0501 15C17.0779 15 17.9492 14.767 18.6865 14.3398Z" fill="#848484"/>
<path d="M136.516 142.647C139.211 141.578 143.456 141.831 149.122 143.424C153.296 144.607 156.751 146.1 156.805 146.124C158.587 146.94 158.651 147.717 158.418 148.222C157.718 149.679 153.303 150.534 149.419 150.845C148.21 150.942 146.852 151 145.451 151C142.331 151 138.999 150.709 136.622 149.873C133.227 148.708 133.035 146.921 133.523 145.639C134.012 144.26 135.009 143.249 136.516 142.647ZM140.462 142.608C139.083 142.608 137.809 142.763 136.748 143.191C135.411 143.715 134.52 144.609 134.096 145.832C133.565 147.328 134.478 148.514 136.855 149.349C139.656 150.32 144.452 150.669 149.355 150.281C153.875 149.911 157.355 148.979 157.822 148.008C158.056 147.503 157.228 146.997 156.507 146.667C156.294 146.57 147.083 142.608 140.462 142.608Z" fill="#848484"/>
</g>
<defs>
<linearGradient id="paint0_linear_1062_4476" x1="92.6756" y1="144" x2="92.6756" y2="154" gradientUnits="userSpaceOnUse">
<stop stop-color="#7A43A4" stop-opacity="0.3"/>
<stop offset="1" stop-color="#6049BC" stop-opacity="0.17"/>
</linearGradient>
<linearGradient id="paint1_linear_1062_4476" x1="260.426" y1="148" x2="260.426" y2="162" gradientUnits="userSpaceOnUse">
<stop stop-color="#7A43A4" stop-opacity="0.3"/>
<stop offset="1" stop-color="#6049BC" stop-opacity="0.17"/>
</linearGradient>
</defs>
</svg>