<svg xmlns="http://www.w3.org/2000/svg" width="19" height="19" viewBox="0 0 19 19" fill="none">
  <path opacity="0.4" d="M12.2734 7.91162L13.1933 8.70452C13.5801 9.03782 13.7734 9.20455 13.7734 9.41162C13.7734 9.6187 13.5801 9.78542 13.1933 10.1187L12.2734 10.9116" stroke="white" stroke-width="1.5" stroke-linecap="round" stroke-linejoin="round"/>
  <path opacity="0.4" d="M6.27344 7.91162L5.35353 8.70452C4.9668 9.03782 4.77344 9.20455 4.77344 9.41162C4.77344 9.6187 4.9668 9.78542 5.35353 10.1187L6.27344 10.9116" stroke="white" stroke-width="1.5" stroke-linecap="round" stroke-linejoin="round"/>
  <path opacity="0.4" d="M10.0234 7.16162L8.52344 11.6616" stroke="white" stroke-width="1.5" stroke-linecap="round" stroke-linejoin="round"/>
  <path d="M2.14844 9.41162C2.14844 6.05287 2.14844 4.37349 3.19187 3.33005C4.2353 2.28662 5.91468 2.28662 9.27344 2.28662C12.6322 2.28662 14.3116 2.28662 15.355 3.33005C16.3984 4.37349 16.3984 6.05287 16.3984 9.41162C16.3984 12.7703 16.3984 14.4497 15.355 15.4932C14.3116 16.5366 12.6322 16.5366 9.27344 16.5366C5.91468 16.5366 4.2353 16.5366 3.19187 15.4932C2.14844 14.4497 2.14844 12.7703 2.14844 9.41162Z" stroke="white" stroke-width="1.5"/>
</svg>