<svg xmlns="http://www.w3.org/2000/svg" width="16" height="16" viewBox="0 0 16 16" fill="none">
  <g clip-path="url(#clip0_646_15711)">
    <path d="M11.6276 3.2041H11.2279V2.33058C11.7786 2.13598 12.1091 1.5726 12.0103 0.996818C11.9114 0.420883 11.4122 0 10.8279 0C10.2436 0 9.7444 0.420883 9.64554 0.996818C9.54672 1.57264 9.87722 2.13598 10.428 2.33058V3.20406H5.62944V2.33058C6.18037 2.13598 6.51072 1.5726 6.41201 0.996818C6.31327 0.420883 5.81399 0 5.2297 0C4.6454 0 4.14606 0.420883 4.04735 0.996818C3.94853 1.57264 4.27888 2.13598 4.82977 2.33058V3.20406H4.42985C3.32619 3.20526 2.43171 4.0997 2.43051 5.20344V12.0013C2.43171 13.1051 3.32615 13.9996 4.42985 14.0008H5.62948V15.6002C5.62954 15.6716 5.64868 15.7416 5.68494 15.8031C5.72119 15.8646 5.77323 15.9153 5.83566 15.9499C5.89807 15.9845 5.9686 16.0017 6.03993 15.9998C6.11126 15.998 6.18079 15.977 6.24129 15.9392L9.3432 14.0008H11.6276C12.7315 13.9997 13.6261 13.1052 13.6271 12.0013V5.2034C13.6261 4.09966 12.7315 3.20511 11.6276 3.2041ZM6.0294 5.60336C6.69164 5.60411 7.22828 6.1408 7.22903 6.80299C7.22903 7.0238 7.0501 7.20277 6.82911 7.20277C6.6083 7.20277 6.42933 7.0238 6.42933 6.80299C6.42933 6.58219 6.25029 6.40303 6.0294 6.40303C5.8086 6.40303 5.62948 6.58211 5.62948 6.80296C5.62948 7.0238 5.45054 7.20273 5.2297 7.20273C5.00886 7.20273 4.82977 7.02376 4.82977 6.80296C4.83052 6.14076 5.36721 5.60411 6.0294 5.60336ZM11.0067 10.5596C10.0761 10.9985 9.05764 11.2197 8.02874 11.2063C6.99987 11.2198 5.98153 10.9986 5.05077 10.5596C4.8532 10.4609 4.77328 10.2206 4.87195 10.023C4.9708 9.82546 5.21096 9.74539 5.40852 9.84421C6.90221 10.5908 9.15575 10.5908 10.6491 9.84421C10.8467 9.74539 11.0869 9.82546 11.1857 10.023C11.2844 10.2206 11.2043 10.4609 11.0067 10.5596ZM10.8279 7.20277C10.7219 7.20292 10.6201 7.16075 10.5452 7.08577C10.4702 7.01079 10.428 6.90901 10.428 6.80299C10.428 6.58219 10.2491 6.40307 10.0282 6.40307C9.80738 6.40307 9.6283 6.58215 9.6283 6.80299C9.6283 7.02384 9.44936 7.20277 9.22837 7.20277C9.00756 7.20277 8.82859 7.0238 8.82859 6.80299C8.82859 6.14035 9.36561 5.60336 10.0282 5.60336C10.6907 5.60336 11.2279 6.14035 11.2279 6.80299C11.2279 6.90901 11.1859 7.01079 11.1107 7.08577C11.0357 7.16075 10.934 7.20296 10.8279 7.20277ZM14.8267 6.40303H14.4268V10.4019H14.8267C15.4889 10.4012 16.0256 9.86449 16.0264 9.20229V7.60266C16.0256 6.94046 15.4889 6.40378 14.8267 6.40303ZM0.03125 7.60266V9.20225C0.0319998 9.86445 0.568685 10.4011 1.23088 10.4019H1.63081V6.40303H1.23088C0.568685 6.40378 0.0319998 6.94046 0.03125 7.60266Z" fill="#F9F9F9"/>
  </g>
  <defs>
    <clipPath id="clip0_646_15711">
      <rect width="16" height="16" fill="white"/>
    </clipPath>
  </defs>
</svg>