<svg xmlns="http://www.w3.org/2000/svg" width="19" height="19" viewBox="0 0 19 19" fill="none">
  <path opacity="0.4" d="M5.00591 2.49839C5.07227 2.48923 5.12964 2.54343 5.12964 2.61042C5.12964 3.86265 6.14477 4.87779 7.39701 4.87779H11.5538C12.8061 4.87779 13.8212 3.86265 13.8212 2.61042C13.8212 2.54343 13.8786 2.48923 13.945 2.49839C14.6253 2.59222 15.1903 2.79274 15.6365 3.23938C16.0913 3.69463 16.2869 4.26779 16.3784 4.94856C16.4665 5.60435 16.4665 6.4382 16.4665 7.47284V12.4728C16.4665 13.5075 16.4665 14.3414 16.3784 14.9972C16.2869 15.6779 16.0913 16.2511 15.6365 16.7063C15.1817 17.1617 14.6088 17.3575 13.9284 17.4491C13.2732 17.5373 12.44 17.5373 11.4064 17.5372H7.54443C6.51086 17.5372 5.67771 17.5373 5.02244 17.4491C4.34205 17.3575 3.76921 17.1617 3.31431 16.7063C2.85948 16.2511 2.66388 15.6779 2.57243 14.9972C2.48435 14.3414 2.48436 13.5075 2.48438 12.4729V7.4728C2.48436 6.4382 2.48435 5.60433 2.57243 4.94856C2.66388 4.26779 2.85948 3.69463 3.31431 3.23938C3.76054 2.79274 4.32561 2.59222 5.00591 2.49839Z" fill="#F9F9F9"/>
  <path d="M6.07422 2.60956C6.07422 1.87909 6.66638 1.28693 7.39685 1.28693H11.5537C12.2841 1.28693 12.8763 1.87909 12.8763 2.60956C12.8763 3.34003 12.2841 3.93219 11.5537 3.93219H7.39685C6.66638 3.93219 6.07422 3.34003 6.07422 2.60956Z" fill="#F9F9F9"/>
  <path fill-rule="evenodd" clip-rule="evenodd" d="M4.75 7.90003C4.75 7.58698 5.00379 7.33319 5.31684 7.33319H8.34C8.65305 7.33319 8.90684 7.58698 8.90684 7.90003C8.90684 8.21308 8.65305 8.46688 8.34 8.46688H5.31684C5.00379 8.46688 4.75 8.21308 4.75 7.90003Z" fill="#F9F9F9"/>
  <path fill-rule="evenodd" clip-rule="evenodd" d="M4.75 12.4348C4.75 12.1218 5.00379 11.868 5.31684 11.868H8.34C8.65305 11.868 8.90684 12.1218 8.90684 12.4348C8.90684 12.7479 8.65305 13.0017 8.34 13.0017H5.31684C5.00379 13.0017 4.75 12.7479 4.75 12.4348Z" fill="#F9F9F9"/>
  <path d="M14.1673 6.95521C14.2718 7.25031 14.1173 7.57426 13.8222 7.67877C13.6531 7.73866 13.4412 7.87482 13.2023 8.08435C12.9693 8.28871 12.7399 8.53661 12.5344 8.78292C12.33 9.02803 12.156 9.26323 12.0329 9.43759C11.9716 9.52443 11.8766 9.6669 11.8442 9.71557C11.7346 9.88796 11.5406 9.98833 11.3366 9.9779C11.1326 9.96747 10.95 9.84806 10.8586 9.66531C10.7033 9.35468 10.5737 9.25023 10.5316 9.22211C10.528 9.2197 10.5248 9.21773 10.5221 9.21614C10.2507 9.17397 10.043 8.93922 10.043 8.65603C10.043 8.34298 10.2968 8.08919 10.6098 8.08919C10.905 8.08919 11.0403 8.19877 11.1604 8.27889C11.2267 8.32303 11.2935 8.37578 11.3602 8.43813C11.4514 8.31834 11.5534 8.18918 11.6639 8.05676C11.8919 7.7835 12.1627 7.48818 12.4548 7.23198C12.7411 6.98093 13.0794 6.73919 13.4437 6.61013C13.7389 6.50562 14.0628 6.66012 14.1673 6.95521Z" fill="#F9F9F9"/>
  <path d="M14.1673 11.4899C14.2718 11.785 14.1173 12.109 13.8222 12.2135C13.6531 12.2733 13.4412 12.4095 13.2023 12.619C12.9693 12.8234 12.7399 13.0713 12.5344 13.3176C12.33 13.5627 12.156 13.7979 12.0329 13.9723C11.9716 14.0591 11.8766 14.2016 11.8442 14.2503C11.7346 14.4227 11.5406 14.523 11.3366 14.5126C11.1326 14.5022 10.95 14.3828 10.8586 14.2C10.7033 13.8894 10.5737 13.7849 10.5316 13.7568C10.528 13.7544 10.5248 13.7524 10.5221 13.7508C10.2507 13.7087 10.043 13.4739 10.043 13.1907C10.043 12.8777 10.2968 12.6239 10.6098 12.6239C10.905 12.6239 11.0403 12.7335 11.1604 12.8136C11.2267 12.8577 11.2935 12.9105 11.3602 12.9728C11.4514 12.853 11.5534 12.7239 11.6639 12.5915C11.8919 12.3182 12.1627 12.0229 12.4548 11.7667C12.7411 11.5156 13.0794 11.2739 13.4437 11.1448C13.7389 11.0403 14.0628 11.1948 14.1673 11.4899Z" fill="#F9F9F9"/>
</svg>