<svg xmlns="http://www.w3.org/2000/svg" width="24" height="25" viewBox="0 0 24 25" fill="none">
  <path opacity="0.4" d="M10.5874 1.7501C11.1574 1.74934 11.6619 1.74866 12.1373 1.91733C12.2353 1.95209 12.3314 1.99208 12.4251 2.03715C12.8799 2.25582 13.2362 2.61489 13.6387 3.02053L18.4215 7.82819C18.8889 8.29654 19.3036 8.7122 19.5277 9.25596C19.7518 9.79971 19.7509 10.3885 19.7499 11.0519L19.7498 12.5H7C5.89543 12.5 5 13.3955 5 14.5V19.5C5 20.6046 5.89543 21.5 7 21.5H18.6104C18.5229 21.6098 18.4282 21.7161 18.326 21.8189C17.5457 22.6032 16.5633 22.9405 15.3965 23.0982C14.2727 23.2501 12.8438 23.2501 11.071 23.25C9.29819 23.2501 7.72705 23.2501 6.60322 23.0982C5.43643 22.9405 4.45402 22.6032 3.67377 21.8189C2.89352 21.0346 2.55792 20.047 2.40105 18.8742C2.24996 17.7445 2.24998 16.3082 2.25 14.5262V9.95262C2.24998 8.41899 2.24997 7.18239 2.36424 6.19856C2.48248 5.1806 2.73418 4.30839 3.32681 3.56954C3.54435 3.29833 3.79012 3.05128 4.05992 2.83261C4.79495 2.2369 5.66265 1.98389 6.67534 1.86504C7.6541 1.75017 9.0617 1.75008 10.5874 1.7501Z" fill="#F9F9F9"/>
  <path fill-rule="evenodd" clip-rule="evenodd" d="M12.4251 2.03777C12.3314 1.99271 12.2353 1.95271 12.1373 1.91795C11.9283 1.84379 11.7136 1.80237 11.4902 1.7793V3.77072C11.4902 5.13257 11.4902 5.78029 11.6065 6.64548C11.7275 7.54559 11.9864 8.30346 12.5884 8.90538C13.1903 9.5073 13.9481 9.76619 14.8483 9.88721C15.7152 10.0038 16.3638 10.0045 17.7314 10.0045H19.7122C19.6816 9.74478 19.6265 9.49631 19.5277 9.25658C19.3036 8.71283 18.8889 8.29717 18.4215 7.82882L13.6387 3.02116C13.2362 2.61551 12.8799 2.25644 12.4251 2.03777ZM7 13.75C6.58579 13.75 6.25 14.0858 6.25 14.5V19.5C6.25 19.9143 6.58579 20.25 7 20.25C7.41421 20.25 7.75 19.9143 7.75 19.5V18.25H8.5C9.74264 18.25 10.75 17.2427 10.75 16C10.75 14.7574 9.74264 13.75 8.5 13.75H7ZM8.5 16.75H7.75V15.25H8.5C8.91421 15.25 9.25 15.5858 9.25 16C9.25 16.4143 8.91421 16.75 8.5 16.75ZM12.5 13.75C12.0858 13.75 11.75 14.0858 11.75 14.5V19.5C11.75 19.9143 12.0858 20.25 12.5 20.25H13.7857C15.1266 20.25 16.25 19.1878 16.25 17.8334V16.1667C16.25 14.8122 15.1266 13.75 13.7857 13.75H12.5ZM13.25 18.75V15.25H13.7857C14.3383 15.25 14.75 15.6802 14.75 16.1667V17.8334C14.75 18.3199 14.3383 18.75 13.7857 18.75H13.25ZM19 13.75C18.0335 13.75 17.25 14.5335 17.25 15.5V19.5C17.25 19.9143 17.5858 20.25 18 20.25C18.4142 20.25 18.75 19.9143 18.75 19.5V17.75H20.5C20.9142 17.75 21.25 17.4143 21.25 17C21.25 16.5858 20.9142 16.25 20.5 16.25H18.75V15.5C18.75 15.362 18.8619 15.25 19 15.25H21C21.4142 15.25 21.75 14.9143 21.75 14.5C21.75 14.0858 21.4142 13.75 21 13.75H19Z" fill="#F9F9F9"/>
</svg>