<svg xmlns="http://www.w3.org/2000/svg" width="19" height="19" viewBox="0 0 19 19" fill="none">
  <path d="M13.0023 3.86544L13.7448 3.12294C14.3599 2.50785 15.3572 2.50785 15.9723 3.12294C16.5873 3.73805 16.5873 4.73532 15.9723 5.35042L15.2298 6.09291M13.0023 3.86544L8.00778 8.85992C7.62715 9.24062 7.35712 9.71747 7.22657 10.2397L6.68359 12.4116L8.85552 11.8686C9.37774 11.7381 9.85459 11.468 10.2353 11.0874L15.2298 6.09291M13.0023 3.86544L15.2298 6.09291" stroke="#F9F9F9" stroke-width="1.5" stroke-linejoin="round"/>
  <path opacity="0.4" d="M14.9335 10.5366C14.9335 13.0022 14.9335 14.235 14.2526 15.0648C14.1279 15.2167 13.9887 15.356 13.8367 15.4806C13.007 16.1616 11.7741 16.1616 9.30852 16.1616H8.93359C6.10516 16.1616 4.69096 16.1616 3.81229 15.2829C2.93362 14.4043 2.93359 12.99 2.93359 10.1616V9.78662C2.93359 7.32101 2.93359 6.08821 3.61455 5.25845C3.73922 5.10655 3.87852 4.96725 4.03042 4.84258C4.86019 4.16162 6.09298 4.16162 8.55859 4.16162" stroke="#F9F9F9" stroke-width="1.5" stroke-linecap="round" stroke-linejoin="round"/>
</svg>