<svg xmlns="http://www.w3.org/2000/svg" width="17" height="16" viewBox="0 0 17 16" fill="none">
  <g clip-path="url(#clip0_649_10230)">
    <path d="M12.3001 7.19698C12.6407 7.19698 12.9167 6.92093 12.9167 6.58042C12.9167 6.23991 12.6407 5.96387 12.3001 5.96387C11.9596 5.96387 11.6836 6.23991 11.6836 6.58042C11.6836 6.92093 11.9596 7.19698 12.3001 7.19698Z" fill="#F9F9F9"/>
    <path d="M13.7316 1.33955H12.9301V0.722999C12.9301 0.382477 12.6541 0.106445 12.3136 0.106445C11.973 0.106445 11.697 0.382477 11.697 0.722999V1.33955H8.89168V0.722999C8.89168 0.382477 8.61565 0.106445 8.27513 0.106445C7.9346 0.106445 7.65857 0.382477 7.65857 0.722999V1.33955H4.88408V0.722999C4.88408 0.382477 4.60805 0.106445 4.26753 0.106445C3.927 0.106445 3.65097 0.382477 3.65097 0.722999V1.33955H2.88028C1.52041 1.33955 0.414062 2.4459 0.414062 3.80577V13.424C0.414062 14.7839 1.52041 15.8902 2.88028 15.8902H7.59692C7.93744 15.8902 8.21347 15.6142 8.21347 15.2737C8.21347 14.9332 7.93744 14.6571 7.59692 14.6571H2.88028C2.20034 14.6571 1.64717 14.1039 1.64717 13.424V3.80577C1.64717 3.12583 2.20034 2.57266 2.88028 2.57266H3.65097V3.18922C3.65097 3.52974 3.927 3.80577 4.26753 3.80577C4.60805 3.80577 4.88408 3.52974 4.88408 3.18922V2.57266H7.65857V3.18922C7.65857 3.52974 7.9346 3.80577 8.27513 3.80577C8.61565 3.80577 8.89168 3.52974 8.89168 3.18922V2.57266H11.697V3.18922C11.697 3.52974 11.973 3.80577 12.3136 3.80577C12.6541 3.80577 12.9301 3.52974 12.9301 3.18922V2.57266H13.7316C14.4116 2.57266 14.9647 3.12583 14.9647 3.80577V7.32013C14.9647 7.66065 15.2408 7.93668 15.5813 7.93668C15.9218 7.93668 16.1978 7.66065 16.1978 7.32013V3.80577C16.1978 2.4459 15.0915 1.33955 13.7316 1.33955Z" fill="#F9F9F9"/>
    <path d="M12.4489 8.42725C10.3921 8.42725 8.71875 10.1006 8.71875 12.1574C8.71875 14.2142 10.3921 15.8875 12.4489 15.8875C14.5057 15.8875 16.1791 14.2142 16.1791 12.1574C16.1791 10.1006 14.5057 8.42725 12.4489 8.42725ZM12.4489 14.6544C11.072 14.6544 9.95186 13.5343 9.95186 12.1574C9.95186 10.7805 11.072 9.66035 12.4489 9.66035C13.8258 9.66035 14.9459 10.7805 14.9459 12.1574C14.9459 13.5343 13.8258 14.6544 12.4489 14.6544Z" fill="#F9F9F9"/>
    <path d="M13.3582 11.5432H13.0808V10.8959C13.0808 10.5553 12.8047 10.2793 12.4642 10.2793C12.1237 10.2793 11.8477 10.5553 11.8477 10.8959V12.1598C11.8477 12.5003 12.1237 12.7763 12.4642 12.7763H13.3582C13.6987 12.7763 13.9748 12.5003 13.9748 12.1598C13.9748 11.8193 13.6987 11.5432 13.3582 11.5432Z" fill="#F9F9F9"/>
    <path d="M9.63999 7.19698C9.9805 7.19698 10.2565 6.92093 10.2565 6.58042C10.2565 6.23991 9.9805 5.96387 9.63999 5.96387C9.29948 5.96387 9.02344 6.23991 9.02344 6.58042C9.02344 6.92093 9.29948 7.19698 9.63999 7.19698Z" fill="#F9F9F9"/>
    <path d="M6.94468 9.88008C7.28519 9.88008 7.56123 9.60404 7.56123 9.26353C7.56123 8.92301 7.28519 8.64697 6.94468 8.64697C6.60417 8.64697 6.32812 8.92301 6.32812 9.26353C6.32812 9.60404 6.60417 9.88008 6.94468 9.88008Z" fill="#F9F9F9"/>
    <path d="M4.27671 7.19698C4.61722 7.19698 4.89326 6.92093 4.89326 6.58042C4.89326 6.23991 4.61722 5.96387 4.27671 5.96387C3.9362 5.96387 3.66016 6.23991 3.66016 6.58042C3.66016 6.92093 3.9362 7.19698 4.27671 7.19698Z" fill="#F9F9F9"/>
    <path d="M4.27671 9.88008C4.61722 9.88008 4.89326 9.60404 4.89326 9.26353C4.89326 8.92301 4.61722 8.64697 4.27671 8.64697C3.9362 8.64697 3.66016 8.92301 3.66016 9.26353C3.66016 9.60404 3.9362 9.88008 4.27671 9.88008Z" fill="#F9F9F9"/>
    <path d="M4.27671 12.5622C4.61722 12.5622 4.89326 12.2862 4.89326 11.9457C4.89326 11.6051 4.61722 11.3291 4.27671 11.3291C3.9362 11.3291 3.66016 11.6051 3.66016 11.9457C3.66016 12.2862 3.9362 12.5622 4.27671 12.5622Z" fill="#F9F9F9"/>
    <path d="M6.94468 12.5622C7.28519 12.5622 7.56123 12.2862 7.56123 11.9457C7.56123 11.6051 7.28519 11.3291 6.94468 11.3291C6.60417 11.3291 6.32812 11.6051 6.32812 11.9457C6.32812 12.2862 6.60417 12.5622 6.94468 12.5622Z" fill="#F9F9F9"/>
    <path d="M6.94468 7.19698C7.28519 7.19698 7.56123 6.92093 7.56123 6.58042C7.56123 6.23991 7.28519 5.96387 6.94468 5.96387C6.60417 5.96387 6.32812 6.23991 6.32812 6.58042C6.32812 6.92093 6.60417 7.19698 6.94468 7.19698Z" fill="#F9F9F9"/>
  </g>
  <defs>
    <clipPath id="clip0_649_10230">
      <rect width="15.7838" height="15.7838" fill="white" transform="translate(0.433594 0.107422)"/>
    </clipPath>
  </defs>
</svg>