<svg xmlns="http://www.w3.org/2000/svg" width="18" height="18" viewBox="0 0 18 18" fill="none">
  <g clip-path="url(#clip0_649_11465)">
    <path opacity="0.4" d="M12.5476 1.82399C12.4967 1.81691 12.4452 1.81023 12.3932 1.80392C11.4347 1.68749 10.1402 1.68749 8.58653 1.6875C7.03298 1.68749 5.81531 1.68749 4.85684 1.80392C3.87737 1.9229 3.09342 2.17058 2.44925 2.72075C2.27747 2.86748 2.11748 3.02747 1.97075 3.19925C1.42058 3.84342 1.1729 4.62737 1.05392 5.60684C0.937485 6.56532 0.937493 7.85985 0.9375 9.41348C0.937493 10.967 0.937485 12.1847 1.05392 13.1432C1.1729 14.1227 1.42058 14.9066 1.97075 15.5507C2.11748 15.7226 2.27747 15.8825 2.44925 16.0292C3.09342 16.5794 3.87737 16.8271 4.85684 16.9461C5.81532 17.0625 7.10987 17.0625 8.66348 17.0625C10.217 17.0625 11.4347 17.0625 12.3932 16.9461C13.3727 16.8271 14.1566 16.5794 14.8007 16.0292C14.9726 15.8825 15.1325 15.7226 15.2792 15.5507C15.8294 14.9066 16.0771 14.1227 16.1961 13.1432C16.3125 12.1847 16.3125 10.967 16.3125 9.41348C16.3125 7.85985 16.3125 6.56532 16.1961 5.60684C16.1898 5.55483 16.1831 5.50337 16.176 5.45246C15.73 5.71948 15.4137 6.18201 15.3467 6.7206C15.2747 7.29923 14.7901 7.875 14.0625 7.875C13.3349 7.875 12.8503 7.29923 12.7783 6.7206C12.6812 5.93981 12.0602 5.31887 11.2794 5.22171C10.7008 5.1497 10.125 4.66505 10.125 3.9375C10.125 3.20995 10.7008 2.72531 11.2794 2.6533C11.818 2.58627 12.2805 2.27002 12.5476 1.82399Z" fill="#F9F9F9"/>
    <path fill-rule="evenodd" clip-rule="evenodd" d="M9 5.4375C9.31065 5.4375 9.5625 5.68934 9.5625 6V12.75C9.5625 13.0606 9.31065 13.3125 9 13.3125C8.68935 13.3125 8.4375 13.0606 8.4375 12.75V6C8.4375 5.68934 8.68935 5.4375 9 5.4375ZM11.25 6.9375C11.5606 6.9375 11.8125 7.18934 11.8125 7.5V11.25C11.8125 11.5606 11.5606 11.8125 11.25 11.8125C10.9394 11.8125 10.6875 11.5606 10.6875 11.25V7.5C10.6875 7.18934 10.9394 6.9375 11.25 6.9375ZM6.75 7.6875C7.06066 7.6875 7.3125 7.93935 7.3125 8.25V10.5C7.3125 10.8106 7.06066 11.0625 6.75 11.0625C6.43934 11.0625 6.1875 10.8106 6.1875 10.5V8.25C6.1875 7.93935 6.43934 7.6875 6.75 7.6875ZM4.5 8.4375C4.81066 8.4375 5.0625 8.68935 5.0625 9V9.75C5.0625 10.0606 4.81066 10.3125 4.5 10.3125C4.18934 10.3125 3.9375 10.0606 3.9375 9.75V9C3.9375 8.68935 4.18934 8.4375 4.5 8.4375Z" fill="#F9F9F9"/>
    <path d="M11.3952 3.58362C12.6019 3.43344 13.5584 2.47694 13.7087 1.27017C13.7314 1.08749 13.8784 0.9375 14.0625 0.9375C14.2466 0.9375 14.3936 1.08749 14.4163 1.27017C14.5666 2.47694 15.5231 3.43344 16.7298 3.58362C16.9125 3.60635 17.0625 3.75341 17.0625 3.9375C17.0625 4.12159 16.9125 4.26865 16.7298 4.29138C15.5231 4.44156 14.5666 5.39806 14.4163 6.60483C14.3936 6.78752 14.2466 6.9375 14.0625 6.9375C13.8784 6.9375 13.7314 6.78752 13.7087 6.60483C13.5584 5.39806 12.6019 4.44156 11.3952 4.29138C11.2125 4.26865 11.0625 4.12159 11.0625 3.9375C11.0625 3.75341 11.2125 3.60635 11.3952 3.58362Z" fill="#F9F9F9"/>
  </g>
  <defs>
    <clipPath id="clip0_649_11465">
      <rect width="18" height="18" fill="white"/>
    </clipPath>
  </defs>
</svg>