<svg xmlns="http://www.w3.org/2000/svg" width="24" height="25" viewBox="0 0 24 25" fill="none">
  <path d="M18.7721 7.61863C18.5104 7.61863 18.2595 7.72256 18.0745 7.90756C17.8895 8.09256 17.7856 8.34348 17.7856 8.60511V19.6449C17.7573 20.1437 17.533 20.6112 17.1616 20.9454C16.7902 21.2797 16.3018 21.4537 15.8027 21.4294H7.93058C7.43151 21.4537 6.94309 21.2797 6.5717 20.9454C6.20031 20.6112 5.97604 20.1437 5.94774 19.6449V8.60511C5.94774 8.34348 5.84381 8.09256 5.65881 7.90756C5.4738 7.72256 5.22289 7.61863 4.96125 7.61863C4.69962 7.61863 4.44871 7.72256 4.2637 7.90756C4.0787 8.09256 3.97477 8.34348 3.97477 8.60511V19.6449C4.00293 20.6671 4.43504 21.6365 5.17649 22.3408C5.91793 23.0451 6.90826 23.4268 7.93058 23.4024H15.8027C16.8251 23.4268 17.8154 23.0451 18.5568 22.3408C19.2983 21.6365 19.7304 20.6671 19.7586 19.6449V8.60511C19.7586 8.34348 19.6546 8.09256 19.4696 7.90756C19.2846 7.72256 19.0337 7.61863 18.7721 7.61863ZM19.7586 4.65917H15.8126V2.68619C15.8126 2.42456 15.7087 2.17364 15.5237 1.98864C15.3387 1.80364 15.0878 1.69971 14.8261 1.69971H8.9072C8.64557 1.69971 8.39465 1.80364 8.20965 1.98864C8.02465 2.17364 7.92071 2.42456 7.92071 2.68619V4.65917H3.97477C3.71314 4.65917 3.46222 4.7631 3.27722 4.9481C3.09221 5.1331 2.98828 5.38402 2.98828 5.64565C2.98828 5.90729 3.09221 6.1582 3.27722 6.3432C3.46222 6.52821 3.71314 6.63214 3.97477 6.63214H19.7586C20.0202 6.63214 20.2711 6.52821 20.4561 6.3432C20.6411 6.1582 20.745 5.90729 20.745 5.64565C20.745 5.38402 20.6411 5.1331 20.4561 4.9481C20.2711 4.7631 20.0202 4.65917 19.7586 4.65917ZM9.89369 4.65917V3.67268H13.8396V4.65917H9.89369Z" fill="#D00A43"/>
  <path d="M10.8753 17.4837V10.5783C10.8753 10.3167 10.7714 10.0657 10.5864 9.88073C10.4014 9.69573 10.1505 9.5918 9.88883 9.5918C9.6272 9.5918 9.37628 9.69573 9.19128 9.88073C9.00628 10.0657 8.90234 10.3167 8.90234 10.5783V17.4837C8.90234 17.7453 9.00628 17.9962 9.19128 18.1812C9.37628 18.3662 9.6272 18.4702 9.88883 18.4702C10.1505 18.4702 10.4014 18.3662 10.5864 18.1812C10.7714 17.9962 10.8753 17.7453 10.8753 17.4837ZM14.8213 17.4837V10.5783C14.8213 10.3167 14.7173 10.0657 14.5323 9.88073C14.3473 9.69573 14.0964 9.5918 13.8348 9.5918C13.5731 9.5918 13.3222 9.69573 13.1372 9.88073C12.9522 10.0657 12.8483 10.3167 12.8483 10.5783V17.4837C12.8483 17.7453 12.9522 17.9962 13.1372 18.1812C13.3222 18.3662 13.5731 18.4702 13.8348 18.4702C14.0964 18.4702 14.3473 18.3662 14.5323 18.1812C14.7173 17.9962 14.8213 17.7453 14.8213 17.4837Z" fill="#D00A43"/>
</svg>