<svg xmlns="http://www.w3.org/2000/svg" width="16" height="17" viewBox="0 0 16 17" fill="none">
  <g clip-path="url(#clip0_646_15764)">
    <path d="M10.2809 5.43568C9.68599 5.43568 9.20196 4.95165 9.20196 4.35671V0.811523H3.6838C2.74889 0.811523 1.98828 1.57214 1.98828 2.50705V14.8998C1.98828 15.8347 2.74889 16.5953 3.6838 16.5953H12.3156C13.2505 16.5953 14.0111 15.8347 14.0111 14.8998V5.43568H10.2809ZM4.51615 11.9095H6.75794C7.01332 11.9095 7.22036 12.1165 7.22036 12.3719C7.22036 12.6273 7.01332 12.8343 6.75794 12.8343H4.51615C4.26078 12.8343 4.05374 12.6273 4.05374 12.3719C4.05374 12.1165 4.26078 11.9095 4.51615 11.9095ZM4.05374 9.90569C4.05374 9.65032 4.26078 9.44328 4.51615 9.44328H11.2982C11.5536 9.44328 11.7607 9.65032 11.7607 9.90569C11.7607 10.1611 11.5536 10.3681 11.2982 10.3681H4.51615C4.26078 10.3681 4.05374 10.1611 4.05374 9.90569ZM11.2982 6.97706C11.5536 6.97706 11.7607 7.1841 11.7607 7.43948C11.7607 7.69486 11.5536 7.90189 11.2982 7.90189H4.51615C4.26078 7.90189 4.05374 7.69486 4.05374 7.43948C4.05374 7.1841 4.26078 6.97706 4.51615 6.97706H11.2982Z" fill="#F9F9F9"/>
    <path d="M10.1289 4.35634C10.1289 4.44133 10.1981 4.51047 10.283 4.51047H13.8071C13.7221 4.35312 13.6127 4.21023 13.4829 4.08715L10.5104 1.27498C10.3964 1.16712 10.2681 1.07557 10.1289 1.00293V4.35634H10.1289Z" fill="#F9F9F9"/>
  </g>
  <defs>
    <clipPath id="clip0_646_15764">
      <rect width="15.7838" height="15.7838" fill="white" transform="translate(0.136719 0.811035)"/>
    </clipPath>
  </defs>
</svg>