<svg xmlns="http://www.w3.org/2000/svg" width="41" height="41" viewBox="0 0 41 41" fill="none">
<rect x="1.72086" y="1.80973" width="37.4865" height="37.4865" rx="18.7432" fill="#82C8E5" fill-opacity="0.1"/>
<rect x="1.72086" y="1.80973" width="37.4865" height="37.4865" rx="18.7432" stroke="#82C8E5" stroke-width="1.97297"/>
<g clip-path="url(#clip0_649_12355)">
<path d="M14.6893 8.71484H22.611L29.3167 15.711V29.3106C29.3167 31.0117 27.9379 32.3905 26.2367 32.3905H14.6893C12.9881 32.3905 11.6094 31.0117 11.6094 29.3106V11.7948C11.6094 10.0936 12.9881 8.71484 14.6893 8.71484Z" fill="#82C8E5"/>
<path fill-rule="evenodd" clip-rule="evenodd" d="M22.5977 8.71484V15.6535H29.3129L22.5977 8.71484Z" fill="#CAF4FF"/>
<path d="M14.4688 25.6081V21.6887H15.8571C16.1348 21.6887 16.3933 21.7302 16.6327 21.8068C16.8721 21.8866 17.0891 22.0015 17.2838 22.1547C17.4785 22.3079 17.6317 22.5122 17.7434 22.7675C17.8551 23.0228 17.9126 23.3165 17.9126 23.6484C17.9126 23.9803 17.8551 24.274 17.7434 24.5293C17.6317 24.7846 17.4785 24.9889 17.2838 25.1421C17.0891 25.2953 16.8721 25.4102 16.6327 25.49C16.3933 25.5666 16.1348 25.6081 15.8571 25.6081H14.4688ZM15.4486 24.7559H15.739C15.8954 24.7559 16.0422 24.7368 16.1731 24.7017C16.3071 24.6634 16.4284 24.6027 16.5433 24.5229C16.6582 24.4431 16.7476 24.3282 16.8114 24.1782C16.8784 24.0314 16.9103 23.8527 16.9103 23.6484C16.9103 23.4442 16.8784 23.2654 16.8114 23.1154C16.7476 22.9686 16.6582 22.8537 16.5433 22.7739C16.4284 22.6909 16.3071 22.6335 16.1731 22.5952C16.0422 22.56 15.8954 22.5409 15.739 22.5409H15.4486V24.7559ZM20.2903 25.6528C19.6999 25.6528 19.2116 25.4613 18.8254 25.0815C18.4392 24.7017 18.2477 24.2229 18.2477 23.6484C18.2477 23.0739 18.4392 22.5952 18.8254 22.2154C19.2116 21.8356 19.6999 21.6441 20.2903 21.6441C20.8712 21.6441 21.3532 21.8356 21.7394 22.2154C22.1223 22.5952 22.3139 23.074 22.3139 23.6484C22.3139 24.2229 22.1223 24.7017 21.7394 25.0815C21.3532 25.4613 20.8712 25.6528 20.2903 25.6528ZM19.5371 24.4751C19.7318 24.6921 19.9807 24.8006 20.2839 24.8006C20.5872 24.8006 20.8329 24.6921 21.0276 24.4751C21.2223 24.2548 21.318 23.9803 21.318 23.6484C21.318 23.3165 21.2223 23.042 21.0276 22.8218C20.8329 22.6047 20.5872 22.4962 20.2839 22.4962C19.9807 22.4962 19.7318 22.6047 19.5371 22.8218C19.3424 23.042 19.2435 23.3165 19.2435 23.6484C19.2435 23.9803 19.3424 24.2548 19.5371 24.4751ZM24.6437 25.6528C24.0724 25.6528 23.5969 25.474 23.2203 25.123C22.8405 24.7687 22.6522 24.2772 22.6522 23.6484C22.6522 23.0228 22.8437 22.5313 23.2267 22.1771C23.6129 21.8228 24.0821 21.644 24.6438 21.644C25.1512 21.644 25.5662 21.7685 25.8949 22.0207C26.2205 22.2696 26.4088 22.6015 26.4566 23.0164L25.4672 23.2175C25.4257 23.0005 25.3268 22.825 25.1736 22.6941C25.0204 22.5632 24.8417 22.4962 24.6374 22.4962C24.3565 22.4962 24.1235 22.5952 23.9352 22.7962C23.7469 23.0005 23.6511 23.2813 23.6511 23.6484C23.6511 24.0154 23.7469 24.2963 23.932 24.4974C24.1203 24.7016 24.3533 24.8006 24.6373 24.8006C24.8416 24.8006 25.0172 24.7431 25.1608 24.6282C25.3044 24.5133 25.3938 24.3602 25.4321 24.1686L26.4438 24.3984C26.3513 24.7942 26.147 25.1006 25.8278 25.3208C25.5119 25.5411 25.1161 25.6528 24.6437 25.6528Z" fill="#070622"/>
</g>
<defs>
<clipPath id="clip0_649_12355">
<rect width="23.6757" height="23.6757" fill="white" transform="translate(8.625 8.71533)"/>
</clipPath>
</defs>
</svg>