<svg xmlns="http://www.w3.org/2000/svg" width="25" height="25" viewBox="0 0 25 25" fill="none">
  <path d="M21.9767 7.23913L17.8436 3.10699C17.4968 2.76023 17.0264 2.56543 16.5359 2.56543C16.0455 2.56543 15.5751 2.76023 15.2282 3.10699L3.82321 14.5111C3.65086 14.6824 3.51422 14.8862 3.42119 15.1106C3.32816 15.3351 3.2806 15.5758 3.28126 15.8188V19.9519C3.28126 20.4424 3.47613 20.9129 3.82301 21.2598C4.16989 21.6066 4.64036 21.8015 5.13092 21.8015H20.6681C20.9624 21.8015 21.2447 21.6846 21.4528 21.4765C21.661 21.2683 21.7779 20.9861 21.7779 20.6917C21.7779 20.3974 21.661 20.1151 21.4528 19.907C21.2447 19.6989 20.9624 19.5819 20.6681 19.5819H12.2521L21.9767 9.85548C22.1486 9.68371 22.2849 9.47977 22.3779 9.25531C22.4709 9.03085 22.5187 8.79027 22.5187 8.5473C22.5187 8.30434 22.4709 8.06376 22.3779 7.8393C22.2849 7.61484 22.1486 7.4109 21.9767 7.23913ZM9.10769 19.5819H5.50085V15.9751L13.2694 8.2065L16.8763 11.8133L9.10769 19.5819ZM18.4485 10.2411L14.8416 6.63429L16.5378 4.93815L20.1446 8.54499L18.4485 10.2411Z" fill="#049F4D"/>
</svg>