<svg xmlns="http://www.w3.org/2000/svg" width="24" height="24" viewBox="0 0 24 24" fill="none">
  <g clip-path="url(#clip0_649_12734)">
    <path d="M23.2991 11.0608C23.527 10.8403 23.6881 10.5601 23.764 10.2524C23.84 9.94455 23.8277 9.62158 23.7287 9.32044C23.6318 9.01842 23.4518 8.7498 23.2093 8.54537C22.9668 8.34095 22.6717 8.20899 22.3576 8.16462L16.625 7.33166C16.5048 7.31419 16.3906 7.26773 16.2923 7.19629C16.194 7.12484 16.1146 7.03056 16.0608 6.92158L13.498 1.72753C13.3587 1.44269 13.1419 1.20285 12.8726 1.03549C12.6033 0.868127 12.2923 0.780021 11.9752 0.781263C11.6582 0.780111 11.3473 0.868259 11.0781 1.03561C10.8088 1.20297 10.5922 1.44276 10.4529 1.72753L7.88956 6.92205C7.78052 7.14345 7.56908 7.29658 7.32493 7.33213L1.59232 8.1651C1.27828 8.20946 0.98309 8.34142 0.740597 8.54585C0.498103 8.75027 0.318119 9.01889 0.221278 9.32091C0.122186 9.62206 0.10992 9.94503 0.185884 10.2528C0.261848 10.5606 0.422971 10.8408 0.650796 11.0613L4.79854 15.1042C4.97538 15.2768 5.05644 15.5252 5.01473 15.768L4.03622 21.4769C3.99195 21.7194 4.00221 21.9688 4.06625 22.2069C4.13029 22.4451 4.2465 22.6659 4.40648 22.8536C4.91185 23.4543 5.79412 23.6373 6.49955 23.2665L11.6263 20.5709C11.7343 20.5157 11.8539 20.487 11.9752 20.487C12.0965 20.487 12.2161 20.5157 12.3241 20.5709L17.4513 23.2665C17.6944 23.3962 17.9656 23.4641 18.2411 23.4642C18.7423 23.4642 19.2173 23.2414 19.5439 22.8536C19.7039 22.666 19.8202 22.4451 19.8842 22.2069C19.9482 21.9688 19.9585 21.7194 19.9142 21.4769L18.9352 15.768C18.9147 15.6481 18.9237 15.525 18.9614 15.4094C18.999 15.2938 19.0642 15.1891 19.1514 15.1042L23.2991 11.0608Z" fill="#FFD900"/>
  </g>
  <defs>
    <clipPath id="clip0_649_12734">
      <rect width="23.6757" height="23.6757" fill="white" transform="translate(0.152344 0.283203)"/>
    </clipPath>
  </defs>
</svg>