<svg xmlns="http://www.w3.org/2000/svg" width="21" height="20" viewBox="0 0 21 20" fill="none">
  <path d="M16.5512 10.4943C16.5512 10.7396 16.4538 10.9748 16.2803 11.1482C16.1069 11.3217 15.8717 11.4191 15.6264 11.4191H5.76151C5.51623 11.4191 5.28099 11.3217 5.10755 11.1482C4.93411 10.9748 4.83668 10.7396 4.83668 10.4943C4.83668 10.249 4.93411 10.0138 5.10755 9.84032C5.28099 9.66688 5.51623 9.56944 5.76151 9.56944H15.6264C15.8717 9.56944 16.1069 9.66688 16.2803 9.84032C16.4538 10.0138 16.5512 10.249 16.5512 10.4943ZM18.7091 5.87012H2.67874C2.43346 5.87012 2.19822 5.96755 2.02478 6.14099C1.85134 6.31443 1.75391 6.54967 1.75391 6.79495C1.75391 7.04023 1.85134 7.27546 2.02478 7.4489C2.19822 7.62234 2.43346 7.71978 2.67874 7.71978H18.7091C18.9544 7.71978 19.1897 7.62234 19.3631 7.4489C19.5365 7.27546 19.634 7.04023 19.634 6.79495C19.634 6.54967 19.5365 6.31443 19.3631 6.14099C19.1897 5.96755 18.9544 5.87012 18.7091 5.87012ZM12.5436 13.2688H8.84428C8.599 13.2688 8.36376 13.3662 8.19032 13.5396C8.01688 13.7131 7.91945 13.9483 7.91945 14.1936C7.91945 14.4389 8.01688 14.6741 8.19032 14.8476C8.36376 15.021 8.599 15.1184 8.84428 15.1184H12.5436C12.7889 15.1184 13.0241 15.021 13.1976 14.8476C13.371 14.6741 13.4684 14.4389 13.4684 14.1936C13.4684 13.9483 13.371 13.7131 13.1976 13.5396C13.0241 13.3662 12.7889 13.2688 12.5436 13.2688Z" fill="#D9D9D9"/>
</svg>