<svg xmlns="http://www.w3.org/2000/svg" width="18" height="18" viewBox="0 0 18 18" fill="none">
  <path opacity="0.4" d="M6.25 15.75H5.75C3.87071 15.75 2.93107 15.75 2.30373 15.2855C2.20339 15.2113 2.1106 15.1294 2.0264 15.0408C1.5 14.4873 1.5 13.6582 1.5 12C1.5 11.7286 1.5 11.4794 1.50231 11.25H10.4977C10.5 11.4794 10.5 11.7286 10.5 12C10.5 13.6582 10.5 14.4873 9.97358 15.0408C9.88943 15.1294 9.79657 15.2113 9.6963 15.2855C9.06892 15.75 8.12932 15.75 6.25 15.75Z" fill="#BCBCBC"/>
  <path d="M1.5 12C1.5 13.6582 1.5 14.4873 2.0264 15.0408C2.1106 15.1294 2.20339 15.2113 2.30373 15.2855C2.93107 15.75 3.87071 15.75 5.75 15.75H6.25C8.12933 15.75 9.06893 15.75 9.6963 15.2855C9.79658 15.2113 9.88943 15.1294 9.97358 15.0408C10.5 14.4873 10.5 13.6582 10.5 12C10.5 10.3418 10.5 9.5127 9.97358 8.9592C9.88943 8.87062 9.79658 8.78872 9.6963 8.71447C9.06893 8.25 8.12933 8.25 6.25 8.25H5.75C3.87071 8.25 2.93107 8.25 2.30373 8.71447C2.20339 8.78872 2.1106 8.87062 2.0264 8.9592C1.5 9.5127 1.5 10.3418 1.5 12Z" stroke="#BCBCBC" stroke-width="1.5" stroke-linecap="round" stroke-linejoin="round"/>
  <path opacity="0.4" d="M11.75 9.75H12.25C14.1293 9.75 15.0689 9.75 15.6963 9.28553C15.7966 9.21128 15.8894 9.12938 15.9736 9.0408C16.5 8.4873 16.5 7.65817 16.5 6C16.5 5.7286 16.5 5.47941 16.4977 5.25H7.50233C7.5 5.47941 7.5 5.7286 7.5 6C7.5 7.02825 7.5 7.73767 7.62555 8.26027C8.63265 8.28667 9.24518 8.3805 9.6963 8.71447C9.79658 8.78872 9.88943 8.87062 9.97358 8.9592C10.1736 9.16942 10.2976 9.41955 10.3744 9.73973C10.768 9.75 11.222 9.75 11.75 9.75Z" fill="#BCBCBC"/>
  <path d="M7.5 6.00049C7.5 4.34229 7.5 3.5132 8.02642 2.95966C8.11057 2.87112 8.20342 2.78924 8.3037 2.71496C8.93107 2.25049 9.87068 2.25049 11.75 2.25049H12.25C14.1293 2.25049 15.0689 2.25049 15.6963 2.71496C15.7966 2.78924 15.8894 2.87112 15.9736 2.95966C16.5 3.5132 16.5 4.34229 16.5 6.00049C16.5 7.65866 16.5 8.48779 15.9736 9.04129C15.8894 9.12986 15.7966 9.21176 15.6963 9.28601C15.1272 9.70736 14.3012 9.74651 12.75 9.75011" stroke="#BCBCBC" stroke-width="1.5" stroke-linecap="round" stroke-linejoin="round"/>
  <path d="M1.5 11.25H10.5" stroke="#BCBCBC" stroke-width="1.5" stroke-linecap="round"/>
  <path d="M7.5 5.25H16.5" stroke="#BCBCBC" stroke-width="1.5" stroke-linecap="round"/>
  <path d="M1.5 6.75C1.5 4.26214 3.51214 2.25 6 2.25L5.35714 3.53572" stroke="#BCBCBC" stroke-width="1.5" stroke-linecap="round" stroke-linejoin="round"/>
  <path d="M16.5 11.25C16.5 13.7378 14.4878 15.75 12 15.75L12.6428 14.4643" stroke="#BCBCBC" stroke-width="1.5" stroke-linecap="round" stroke-linejoin="round"/>
</svg>