<svg xmlns="http://www.w3.org/2000/svg" width="24" height="24" viewBox="0 0 24 24" fill="none">
  <g clip-path="url(#clip0_1062_674)">
    <path fill-rule="evenodd" clip-rule="evenodd" d="M5.92499 17.003C5.67627 17.003 5.42755 16.9419 5.21169 16.8152C4.87851 16.6275 4.6438 16.3272 4.55474 15.9705L1.36822 3.97083C1.25085 3.61411 1.29782 3.23864 1.49488 2.91019C1.67793 2.60512 1.97357 2.37047 2.33029 2.25319C2.33497 2.25319 2.34435 2.2485 2.34904 2.2485L10.6555 0.0428899H10.6602C11.3876 -0.14011 12.1197 0.277499 12.3637 1.00959C12.3637 1.01428 12.3684 1.0237 12.3684 1.02844L15.5596 13.0422V13.0469C15.7426 13.7742 15.3249 14.5063 14.5928 14.7503C14.5881 14.7503 14.5788 14.755 14.5741 14.755L6.26765 16.9608H6.26296C6.15257 16.9893 6.03899 17.0034 5.92499 17.003V17.003Z" fill="url(#paint0_linear_1062_674)"/>
    <path fill-rule="evenodd" clip-rule="evenodd" d="M14.5905 19.6308C14.4732 19.6308 14.3512 19.6167 14.2292 19.5886C14.2245 19.5886 14.2199 19.5886 14.2151 19.5839L6.67969 17.5296L14.6753 15.4064H14.6972L14.7982 15.3728C15.8084 15.036 16.4292 14.0147 16.2136 12.9732V12.9564L13.7478 3.67334L18.1853 4.88112C18.908 5.06412 19.3585 5.84782 19.1708 6.59403V6.59871L15.9327 18.6078C15.7779 19.232 15.2288 19.6309 14.5905 19.6309V19.6308Z" fill="#C7C7C6"/>
    <path fill-rule="evenodd" clip-rule="evenodd" d="M12.5213 23.9998C12.1693 23.9998 11.8127 23.8637 11.5405 23.5868L5.91016 17.9997L13.9684 20.1965C14.0415 20.2277 14.1068 20.2393 14.1541 20.2433C14.2979 20.2721 14.4442 20.2867 14.5908 20.2869C15.5273 20.2869 16.3224 19.684 16.5666 18.7785L19.0489 9.57227L22.2824 12.8448C22.8315 13.3938 22.8315 14.2574 22.2824 14.8112L13.5068 23.5868C13.2299 23.859 12.8733 23.9997 12.5212 23.9997L12.5213 23.9998Z" fill="#BCBCBC"/>
  </g>
  <defs>
    <linearGradient id="paint0_linear_1062_674" x1="8.45358" y1="0" x2="8.45358" y2="17.003" gradientUnits="userSpaceOnUse">
      <stop stop-color="#7A43A4"/>
      <stop offset="1" stop-color="#6049BC"/>
    </linearGradient>
    <clipPath id="clip0_1062_674">
      <rect width="24" height="24" fill="white"/>
    </clipPath>
  </defs>
</svg>