<svg xmlns="http://www.w3.org/2000/svg" width="70" height="70" viewBox="0 0 70 70" fill="none">
<rect x="1.88102" y="1.37076" width="67.0811" height="67.0811" rx="26.6351" fill="#6265FF" fill-opacity="0.18"/>
<rect x="1.88102" y="1.37076" width="67.0811" height="67.0811" rx="26.6351" stroke="#6265FF" stroke-width="1.97297"/>
<path opacity="0.4" d="M22.1445 36.3088H41.7098M22.8433 41.8989H35.421M35.421 48.1878V30.7188" stroke="#6265FF" stroke-width="1.47973" stroke-linecap="round"/>
<path d="M35.421 48.1877C29.1624 48.1877 26.0331 48.1877 24.0888 46.2435C22.1445 44.2991 22.1445 41.1698 22.1445 34.9112C22.1445 28.6526 22.1445 25.5234 24.0888 23.5791C26.0331 21.6348 29.1624 21.6348 35.421 21.6348C41.6795 21.6348 44.8089 21.6348 46.7532 23.5791C48.6975 25.5234 48.6975 28.6526 48.6975 34.9112" stroke="#6265FF" stroke-width="1.47973" stroke-linecap="round" stroke-linejoin="round"/>
<path d="M22.1445 30.7188H48.6975" stroke="#6265FF" stroke-width="1.47973"/>
<path d="M44.6498 45.6484L47.7654 42.5328C48.2007 42.0976 48.4183 41.88 48.5346 41.6452C48.756 41.1986 48.756 40.6742 48.5346 40.2276C48.4183 39.9928 48.2007 39.7752 47.7654 39.34C47.3302 38.9047 47.1126 38.6871 46.8778 38.5708C46.4312 38.3494 45.9068 38.3494 45.4602 38.5708C45.2254 38.6871 45.0078 38.9047 44.5726 39.34L41.1757 42.737C40.1797 43.733 39.6816 44.2309 39.3738 44.8412C39.2788 45.0296 39.1979 45.225 39.1319 45.4255C38.918 46.0745 38.918 46.7789 38.918 48.1874L39.8333 48.0566C41.2258 47.8578 41.9221 47.7583 42.5399 47.4493C43.1579 47.1404 43.6552 46.643 44.6498 45.6484Z" stroke="#6265FF" stroke-width="1.47973" stroke-linecap="square" stroke-linejoin="round"/>
</svg>