<svg xmlns="http://www.w3.org/2000/svg" width="70" height="70" viewBox="0 0 70 70" fill="none">
<rect x="1.0568" y="1.37076" width="67.0811" height="67.0811" rx="26.6351" fill="#D3B335" fill-opacity="0.18"/>
<rect x="1.0568" y="1.37076" width="67.0811" height="67.0811" rx="26.6351" stroke="#DAB72A" stroke-width="1.97297"/>
<path opacity="0.8" d="M42.2514 32.815C42.2617 32.8148 42.2722 32.8148 42.2827 32.8148C45.756 32.8148 48.5715 35.6304 48.5715 39.1037C48.5715 42.5769 45.756 45.3925 42.2827 45.3925H27.6087C23.7496 45.3925 20.6211 42.264 20.6211 38.4049C20.6211 34.7718 23.3938 31.7863 26.9385 31.449M42.2514 32.815C42.2721 32.5848 42.2827 32.3517 42.2827 32.1161C42.2827 27.871 38.8414 24.4297 34.5963 24.4297C30.576 24.4297 27.2766 27.5163 26.9385 31.449M42.2514 32.815C42.1084 34.4003 41.4842 35.8469 40.5257 37.0074M26.9385 31.449C27.1591 31.428 27.3826 31.4173 27.6087 31.4173C29.1821 31.4173 30.634 31.9373 31.802 32.8148" stroke="#FFD940" stroke-width="1.47973" stroke-linecap="round" stroke-linejoin="round"/>
<path d="M26.9102 31.449C27.2488 27.5163 30.5544 24.4297 34.5823 24.4297C38.8352 24.4297 42.2829 27.871 42.2829 32.1161C42.2829 33.9742 41.6223 35.6785 40.5227 37.0074" stroke="#FFD940" stroke-width="1.47973" stroke-linecap="round" stroke-linejoin="round"/>
</svg>