<svg xmlns="http://www.w3.org/2000/svg" width="18" height="19" viewBox="0 0 18 19" fill="none">
<path d="M9 12.125C10.6575 12.125 12 10.7825 12 9.125V5C12 3.3425 10.6575 2 9 2C7.3425 2 6 3.3425 6 5V9.125C6 10.7825 7.3425 12.125 9 12.125Z" stroke="#BCBCBC" stroke-width="1.5" stroke-linecap="round" stroke-linejoin="round"/>
<path d="M3.26172 7.73755V9.01255C3.26172 12.1775 5.83422 14.75 8.99922 14.75C12.1642 14.75 14.7367 12.1775 14.7367 9.01255V7.73755" stroke="#BCBCBC" stroke-width="1.5" stroke-linecap="round" stroke-linejoin="round"/>
<path d="M7.95703 5.32259C8.63203 5.07509 9.36703 5.07509 10.042 5.32259" stroke="#BCBCBC" stroke-width="1.5" stroke-linecap="round" stroke-linejoin="round"/>
<path d="M8.39844 6.91249C8.79594 6.80749 9.20844 6.80749 9.60594 6.91249" stroke="#BCBCBC" stroke-width="1.5" stroke-linecap="round" stroke-linejoin="round"/>
<path d="M9 14.75V17" stroke="#BCBCBC" stroke-width="1.5" stroke-linecap="round" stroke-linejoin="round"/>
</svg>