<svg xmlns="http://www.w3.org/2000/svg" width="21" height="21" viewBox="0 0 21 21" fill="none">
  <g clip-path="url(#clip0_649_10207)">
    <path d="M19.7799 15.7074C18.0231 18.4478 14.9531 20.2656 11.458 20.2731C6.04339 20.2849 1.59746 15.9051 1.53199 10.4908C1.47041 5.39643 5.25532 1.17315 10.1648 0.544496C10.2697 0.531047 10.3381 0.651083 10.2743 0.735474C9.09056 2.30233 8.38877 4.25315 8.38877 6.36835C8.38877 11.5344 12.5766 15.7222 17.7426 15.7222C18.3978 15.7222 19.037 15.655 19.6542 15.5266C19.7578 15.5051 19.837 15.6183 19.7799 15.7074Z" fill="white"/>
    <path d="M19.6542 15.5266C19.7577 15.5051 19.8369 15.618 19.7799 15.707C18.0194 18.4534 14.9403 20.2733 11.4361 20.2733C5.96551 20.2733 1.53125 15.8386 1.53125 10.3685C1.53125 8.17939 2.24121 6.1564 3.44392 4.5166C3.17086 5.41234 3.02154 6.36195 3.01557 7.34578C2.98216 12.8575 7.40886 17.3122 12.9207 17.3119C14.9179 17.3119 16.7771 16.7207 18.3323 15.7035C18.7766 15.6763 19.2184 15.6172 19.6542 15.5266Z" fill="white"/>
  </g>
  <defs>
    <clipPath id="clip0_649_10207">
      <rect width="19.7297" height="19.7297" fill="white" transform="translate(0.804688 0.541016)"/>
    </clipPath>
  </defs>
</svg>