<svg xmlns="http://www.w3.org/2000/svg" width="18" height="18" viewBox="0 0 18 18" fill="none">
  <path opacity="0.4" d="M1.875 7.5C1.875 5.02513 1.875 3.78769 2.64385 3.01885C3.41269 2.25 4.65013 2.25 7.125 2.25H9.375C11.8498 2.25 13.0873 2.25 13.8562 3.01885C14.625 3.78769 14.625 5.02513 14.625 7.5V11.25C14.625 13.7248 14.625 14.9623 13.8562 15.7312C13.0873 16.5 11.8498 16.5 9.375 16.5H7.125C4.65013 16.5 3.41269 16.5 2.64385 15.7312C1.875 14.9623 1.875 13.7248 1.875 11.25V7.5Z" fill="#BCBCBC"/>
  <path d="M14.625 9.75V7.5C14.625 5.02513 14.625 3.78769 13.8562 3.01885C13.0873 2.25 11.8498 2.25 9.375 2.25H7.125C4.65013 2.25 3.41269 2.25 2.64385 3.01885C1.875 3.78769 1.875 5.02513 1.875 7.5V11.25C1.875 13.7248 1.875 14.9623 2.64385 15.7312C3.41269 16.5 4.65013 16.5 7.125 16.5H8.25" stroke="#BCBCBC" stroke-linecap="round" stroke-linejoin="round"/>
  <path d="M12 1.5V3M8.25 1.5V3M4.5 1.5V3" stroke="#BCBCBC" stroke-linecap="round" stroke-linejoin="round"/>
  <path d="M10.125 15C10.125 15 10.875 15 11.625 16.5C11.625 16.5 14.0074 12.75 16.125 12" stroke="#BCBCBC" stroke-width="1.5" stroke-linecap="round" stroke-linejoin="round"/>
  <path d="M5.25 11.25H8.25M5.25 7.5H11.25" stroke="#BCBCBC" stroke-width="1.5" stroke-linecap="round"/>
</svg>