<svg xmlns="http://www.w3.org/2000/svg" width="24" height="24" viewBox="0 0 24 24" fill="none">
  <path opacity="0.4" fill-rule="evenodd" clip-rule="evenodd" d="M6.80301 10.3196C6.36217 9.89348 5.63377 9.89348 5.19293 10.3196L3.21058 12.2184C2.81346 12.6022 2.18039 12.5914 1.79657 12.1943C1.41276 11.7972 1.42354 11.1641 1.82066 10.7803L3.80301 8.88146C5.01902 7.70618 6.97691 7.70618 8.19293 8.88146C9.42807 10.0752 9.42807 12.0253 8.19293 13.219C7.77122 13.6266 7.77122 14.2729 8.19293 14.6804C8.63377 15.1065 9.36217 15.1065 9.80301 14.6804L10.303 14.1972C10.7001 13.8134 11.3332 13.8242 11.717 14.2213C12.1008 14.6184 12.0901 15.2515 11.6929 15.6353L11.1929 16.1185C9.97692 17.2938 8.01902 17.2938 6.80301 16.1185C5.56786 14.9248 5.56786 12.9747 6.80301 11.781C7.22471 11.3734 7.22471 10.7271 6.80301 10.3196Z" fill="#BCBCBC"/>
  <path opacity="0.4" d="M18.5313 3.90896C19.41 3.03033 20.8346 3.03034 21.7133 3.90901L22.092 4.28769C22.9706 5.16637 22.9706 6.59099 22.092 7.46967L16.6161 12.9445C16.1004 13.4602 15.4009 13.75 14.6716 13.75H13C12.5858 13.75 12.25 13.4142 12.25 13V11.3284C12.25 10.5991 12.5397 9.89961 13.0555 9.38388L18.5313 3.90896Z" fill="#BCBCBC"/>
  <path fill-rule="evenodd" clip-rule="evenodd" d="M9.96429 3.25H13.9405C14.4796 3.25 14.9167 3.68528 14.9167 4.22222C14.9167 4.75917 14.4796 5.19445 13.9405 5.19445H10.0357C8.1674 5.19445 6.86436 5.19651 5.88121 5.32815C4.92613 5.45604 4.42037 5.68995 4.06014 6.04872C3.69991 6.40748 3.46504 6.91119 3.33664 7.86238C3.20446 8.84154 3.20238 10.1393 3.20238 12C3.20238 13.8607 3.20446 15.1585 3.33664 16.1376C3.46504 17.0888 3.69991 17.5925 4.06014 17.9513C4.42037 18.3101 4.92613 18.544 5.88121 18.6718C6.86436 18.8035 8.1674 18.8056 10.0357 18.8056H13.9405C15.3318 18.8056 16.3018 18.8044 17.0496 18.7286C17.781 18.6545 18.1908 18.5172 18.4961 18.314C18.8158 18.1012 19.0904 17.8278 19.3041 17.5093C19.5081 17.2052 19.646 16.7972 19.7204 16.0687C19.7964 15.324 19.7976 14.3579 19.7976 12.9722C19.7976 12.4353 20.2347 12 20.7738 12C21.3129 12 21.75 12.4353 21.75 12.9722V13.0247C21.75 14.3456 21.75 15.4108 21.6627 16.2655C21.5726 17.1477 21.3815 17.9128 20.9274 18.5896C20.5713 19.1204 20.1137 19.5761 19.5808 19.9308C18.9012 20.383 18.133 20.5733 17.2472 20.6631C16.389 20.75 15.3195 20.75 13.9932 20.75H9.96432C8.18427 20.75 6.74949 20.75 5.62106 20.599C4.44949 20.4421 3.46305 20.1065 2.6796 19.3262C1.89615 18.546 1.55918 17.5635 1.40167 16.3967C1.24995 15.2729 1.24997 13.8439 1.25 12.0711V11.9289C1.24997 10.1561 1.24995 8.72713 1.40167 7.60329C1.55918 6.43648 1.89615 5.45405 2.6796 4.67379C3.46305 3.89353 4.44949 3.55792 5.62105 3.40105C6.74949 3.24995 8.18425 3.24997 9.96429 3.25Z" fill="#BCBCBC"/>
</svg>