<svg xmlns="http://www.w3.org/2000/svg" width="25" height="25" viewBox="0 0 25 25" fill="none">
  <path opacity="0.4" d="M11.0874 1.7501C11.6574 1.74934 12.1619 1.74866 12.6373 1.91733C12.7353 1.95209 12.8314 1.99208 12.9251 2.03715C13.3799 2.25582 13.7362 2.61489 14.1387 3.02053L18.9215 7.82819C19.3889 8.29654 19.8036 8.7122 20.0277 9.25596C20.2518 9.79971 20.2509 10.3885 20.2499 11.0519L20.2498 12.5H7.5C6.39543 12.5 5.5 13.3955 5.5 14.5V19.5C5.5 20.6046 6.39543 21.5 7.5 21.5H19.1104C19.0229 21.6098 18.9282 21.7161 18.826 21.8189C18.0457 22.6032 17.0633 22.9405 15.8965 23.0982C14.7727 23.2501 13.3438 23.2501 11.571 23.25C9.79819 23.2501 8.22705 23.2501 7.10322 23.0982C5.93643 22.9405 4.95402 22.6032 4.17377 21.8189C3.39352 21.0346 3.05792 20.047 2.90105 18.8742C2.74996 17.7445 2.74998 16.3082 2.75 14.5262V9.95262C2.74998 8.41899 2.74997 7.18239 2.86424 6.19856C2.98248 5.1806 3.23418 4.30839 3.82681 3.56954C4.04435 3.29833 4.29012 3.05128 4.55992 2.83261C5.29495 2.2369 6.16265 1.98389 7.17534 1.86504C8.1541 1.75017 9.5617 1.75008 11.0874 1.7501Z" fill="#F9F9F9"/>
  <path fill-rule="evenodd" clip-rule="evenodd" d="M12.9251 2.03777C12.8314 1.99271 12.7353 1.95271 12.6373 1.91795C12.4283 1.84379 12.2136 1.80237 11.9902 1.7793V3.77072C11.9902 5.13257 11.9902 5.78029 12.1065 6.64548C12.2275 7.54559 12.4864 8.30346 13.0884 8.90538C13.6903 9.5073 14.4481 9.76619 15.3483 9.88721C16.2152 10.0038 16.8638 10.0045 18.2314 10.0045H20.2122C20.1816 9.74478 20.1265 9.49631 20.0277 9.25658C19.8036 8.71283 19.3889 8.29717 18.9215 7.82882L14.1387 3.02116C13.7362 2.61551 13.3799 2.25644 12.9251 2.03777ZM7.5 13.75C7.08579 13.75 6.75 14.0858 6.75 14.5V19.5C6.75 19.9143 7.08579 20.25 7.5 20.25C7.91421 20.25 8.25 19.9143 8.25 19.5V18.25H9C10.2426 18.25 11.25 17.2427 11.25 16C11.25 14.7574 10.2426 13.75 9 13.75H7.5ZM9 16.75H8.25V15.25H9C9.41421 15.25 9.75 15.5858 9.75 16C9.75 16.4143 9.41421 16.75 9 16.75ZM13 13.75C12.5858 13.75 12.25 14.0858 12.25 14.5V19.5C12.25 19.9143 12.5858 20.25 13 20.25H14.2857C15.6266 20.25 16.75 19.1878 16.75 17.8334V16.1667C16.75 14.8122 15.6266 13.75 14.2857 13.75H13ZM13.75 18.75V15.25H14.2857C14.8383 15.25 15.25 15.6802 15.25 16.1667V17.8334C15.25 18.3199 14.8383 18.75 14.2857 18.75H13.75ZM19.5 13.75C18.5335 13.75 17.75 14.5335 17.75 15.5V19.5C17.75 19.9143 18.0858 20.25 18.5 20.25C18.9142 20.25 19.25 19.9143 19.25 19.5V17.75H21C21.4142 17.75 21.75 17.4143 21.75 17C21.75 16.5858 21.4142 16.25 21 16.25H19.25V15.5C19.25 15.362 19.3619 15.25 19.5 15.25H21.5C21.9142 15.25 22.25 14.9143 22.25 14.5C22.25 14.0858 21.9142 13.75 21.5 13.75H19.5Z" fill="#F9F9F9"/>
</svg>