<svg xmlns="http://www.w3.org/2000/svg" width="25" height="25" viewBox="0 0 25 25" fill="none">
  <path opacity="0.4" d="M17.2301 2.93198C17.1622 2.92255 17.0936 2.91364 17.0242 2.90522C15.7462 2.74998 14.0202 2.74999 11.9487 2.75C9.87731 2.74999 8.25375 2.74998 6.97578 2.90522C5.66982 3.06386 4.62456 3.39411 3.76567 4.12767C3.53662 4.3233 3.3233 4.53662 3.12767 4.76567C2.39411 5.62456 2.06386 6.66982 1.90522 7.97578C1.74998 9.25376 1.74999 10.9798 1.75 13.0513C1.74999 15.1227 1.74998 16.7462 1.90522 18.0242C2.06386 19.3302 2.39411 20.3754 3.12767 21.2343C3.3233 21.4634 3.53662 21.6767 3.76567 21.8723C4.62456 22.6059 5.66982 22.9361 6.97578 23.0948C8.25376 23.25 9.97982 23.25 12.0513 23.25C14.1227 23.25 15.7462 23.25 17.0242 23.0948C18.3302 22.9361 19.3754 22.6059 20.2343 21.8723C20.4634 21.6767 20.6767 21.4634 20.8723 21.2343C21.6059 20.3754 21.9361 19.3302 22.0948 18.0242C22.25 16.7462 22.25 15.1227 22.25 13.0513C22.25 10.9798 22.25 9.25376 22.0948 7.97578C22.0864 7.90644 22.0774 7.83783 22.068 7.76994C21.4733 8.12597 21.0516 8.74268 20.9623 9.4608C20.8663 10.2323 20.2201 11 19.25 11C18.2799 11 17.6337 10.2323 17.5377 9.4608C17.4082 8.41975 16.5803 7.59183 15.5392 7.46228C14.7677 7.36627 14 6.72007 14 5.75C14 4.77993 14.7677 4.13374 15.5392 4.03773C16.2573 3.94836 16.874 3.52669 17.2301 2.93198Z" fill="#F9F9F9"/>
  <path fill-rule="evenodd" clip-rule="evenodd" d="M12.5 7.75C12.9142 7.75 13.25 8.08579 13.25 8.5V17.5C13.25 17.9142 12.9142 18.25 12.5 18.25C12.0858 18.25 11.75 17.9142 11.75 17.5V8.5C11.75 8.08579 12.0858 7.75 12.5 7.75ZM15.5 9.75C15.9142 9.75 16.25 10.0858 16.25 10.5V15.5C16.25 15.9142 15.9142 16.25 15.5 16.25C15.0858 16.25 14.75 15.9142 14.75 15.5V10.5C14.75 10.0858 15.0858 9.75 15.5 9.75ZM9.5 10.75C9.91421 10.75 10.25 11.0858 10.25 11.5V14.5C10.25 14.9142 9.91421 15.25 9.5 15.25C9.08579 15.25 8.75 14.9142 8.75 14.5V11.5C8.75 11.0858 9.08579 10.75 9.5 10.75ZM6.5 11.75C6.91421 11.75 7.25 12.0858 7.25 12.5V13.5C7.25 13.9142 6.91421 14.25 6.5 14.25C6.08579 14.25 5.75 13.9142 5.75 13.5V12.5C5.75 12.0858 6.08579 11.75 6.5 11.75Z" fill="#F9F9F9"/>
  <path d="M15.6936 5.27816C17.3026 5.07792 18.5779 3.80259 18.7782 2.19356C18.8085 1.94998 19.0045 1.75 19.25 1.75C19.4955 1.75 19.6915 1.94998 19.7218 2.19356C19.9221 3.80259 21.1974 5.07792 22.8064 5.27816C23.05 5.30847 23.25 5.50454 23.25 5.75C23.25 5.99546 23.05 6.19153 22.8064 6.22184C21.1974 6.42208 19.9221 7.69741 19.7218 9.30644C19.6915 9.55002 19.4955 9.75 19.25 9.75C19.0045 9.75 18.8085 9.55002 18.7782 9.30644C18.5779 7.69741 17.3026 6.42208 15.6936 6.22184C15.45 6.19153 15.25 5.99546 15.25 5.75C15.25 5.50454 15.45 5.30847 15.6936 5.27816Z" fill="#F9F9F9"/>
</svg>