<svg xmlns="http://www.w3.org/2000/svg" width="18" height="19" viewBox="0 0 18 19" fill="none">
  <path d="M15.3008 2.75005C15.3008 2.6307 15.2534 2.51624 15.169 2.43185C15.0846 2.34746 14.9701 2.30005 14.8508 2.30005C14.7314 2.30005 14.617 2.34746 14.5326 2.43185C14.4482 2.51624 14.4008 2.6307 14.4008 2.75005V3.20005H13.9508C13.8314 3.20005 13.717 3.24746 13.6326 3.33185C13.5482 3.41624 13.5008 3.5307 13.5008 3.65005C13.5008 3.7694 13.5482 3.88386 13.6326 3.96825C13.717 4.05264 13.8314 4.10005 13.9508 4.10005H14.4008V4.55005C14.4008 4.6694 14.4482 4.78386 14.5326 4.86825C14.617 4.95264 14.7314 5.00005 14.8508 5.00005C14.9701 5.00005 15.0846 4.95264 15.169 4.86825C15.2534 4.78386 15.3008 4.6694 15.3008 4.55005V4.10005H15.7508C15.8701 4.10005 15.9846 4.05264 16.069 3.96825C16.1534 3.88386 16.2008 3.7694 16.2008 3.65005C16.2008 3.5307 16.1534 3.41624 16.069 3.33185C15.9846 3.24746 15.8701 3.20005 15.7508 3.20005H15.3008V2.75005ZM3.60078 14.45C3.60078 14.3307 3.55337 14.2162 3.46898 14.1319C3.38459 14.0475 3.27013 14 3.15078 14C3.03143 14 2.91697 14.0475 2.83258 14.1319C2.74819 14.2162 2.70078 14.3307 2.70078 14.45V14.9H2.25078C2.13143 14.9 2.01697 14.9475 1.93258 15.0318C1.84819 15.1162 1.80078 15.2307 1.80078 15.35C1.80078 15.4694 1.84819 15.5839 1.93258 15.6682C2.01697 15.7526 2.13143 15.8 2.25078 15.8H2.70078V16.25C2.70078 16.3694 2.74819 16.4839 2.83258 16.5682C2.91697 16.6526 3.03143 16.7 3.15078 16.7C3.27013 16.7 3.38459 16.6526 3.46898 16.5682C3.55337 16.4839 3.60078 16.3694 3.60078 16.25V15.8H4.05078C4.17013 15.8 4.28459 15.7526 4.36898 15.6682C4.45337 15.5839 4.50078 15.4694 4.50078 15.35C4.50078 15.2307 4.45337 15.1162 4.36898 15.0318C4.28459 14.9475 4.17013 14.9 4.05078 14.9H3.60078V14.45ZM6.30078 13.0487V14C6.30078 14.7161 6.58524 15.4029 7.09159 15.9092C7.59794 16.4156 8.2847 16.7 9.00078 16.7H13.5008C14.2169 16.7 14.9036 16.4156 15.41 15.9092C15.9163 15.4029 16.2008 14.7161 16.2008 14V9.50005C16.2008 8.78396 15.9163 8.09721 15.41 7.59086C14.9036 7.08451 14.2169 6.80005 13.5008 6.80005H12.5477C12.6202 7.09567 12.6202 7.40443 12.5477 7.70005H13.5008C13.9782 7.70005 14.436 7.88969 14.7736 8.22726C15.1111 8.56482 15.3008 9.02266 15.3008 9.50005V14C15.3008 14.4774 15.1111 14.9353 14.7736 15.2728C14.436 15.6104 13.9782 15.8 13.5008 15.8H9.00078C8.52339 15.8 8.06555 15.6104 7.72799 15.2728C7.39042 14.9353 7.20078 14.4774 7.20078 14V13.0487C6.90516 13.1212 6.5964 13.1212 6.30078 13.0487ZM9.45078 12.2C9.33143 12.2 9.21697 12.2475 9.13258 12.3319C9.04819 12.4162 9.00078 12.5307 9.00078 12.65C9.00078 12.7694 9.04819 12.8839 9.13258 12.9682C9.21697 13.0526 9.33143 13.1 9.45078 13.1H12.1508C12.2701 13.1 12.3846 13.0526 12.469 12.9682C12.5534 12.8839 12.6008 12.7694 12.6008 12.65C12.6008 12.5307 12.5534 12.4162 12.469 12.3319C12.3846 12.2475 12.2701 12.2 12.1508 12.2H9.45078ZM9.00078 10.85C9.00078 10.7307 9.04819 10.6162 9.13258 10.5318C9.21697 10.4475 9.33143 10.4 9.45078 10.4H13.5008C13.6201 10.4 13.7346 10.4475 13.819 10.5318C13.9034 10.6162 13.9508 10.7307 13.9508 10.85C13.9508 10.9694 13.9034 11.0839 13.819 11.1682C13.7346 11.2526 13.6201 11.3 13.5008 11.3H9.45078C9.33143 11.3 9.21697 11.2526 9.13258 11.1682C9.04819 11.0839 9.00078 10.9694 9.00078 10.85ZM6.51768 3.43585C6.55098 3.27745 6.67428 3.20005 6.75168 3.20005C6.82908 3.20005 6.95238 3.27745 6.98568 3.43495C7.16562 4.31743 7.59877 5.12838 8.23218 5.76865C8.87178 6.40266 9.68254 6.83619 10.565 7.01605C10.7234 7.04935 10.8008 7.17265 10.8008 7.25005C10.8008 7.32745 10.7234 7.45075 10.565 7.48405C9.68261 7.66466 8.87198 8.09843 8.23218 8.73235C7.59908 9.37213 7.16595 10.1824 6.98568 11.0642C6.95238 11.2226 6.82908 11.3 6.75168 11.3C6.67428 11.3 6.55008 11.2226 6.51768 11.0651C6.33749 10.1826 5.90402 9.37161 5.27028 8.73145C4.63068 8.09744 3.81993 7.66391 2.93748 7.48405C2.77908 7.45075 2.70078 7.32745 2.70078 7.25005C2.70078 7.17355 2.77818 7.04935 2.93658 7.01605C3.81903 6.83619 4.62978 6.40266 5.26938 5.76865C5.90297 5.12873 6.33642 4.31811 6.51678 3.43585M6.75168 2.30005C6.16668 2.30005 5.73828 2.76175 5.63658 3.25225C5.49177 3.96311 5.14307 4.6164 4.63308 5.13235C3.99048 5.77585 3.24708 6.03235 2.75478 6.13495C2.26338 6.23665 1.80078 6.66595 1.80078 7.25185C1.80168 7.83685 2.26338 8.26345 2.75388 8.36515C3.24618 8.46685 3.98958 8.72425 4.63218 9.36775C5.27478 10.0112 5.53308 10.7546 5.63568 11.2487C5.73828 11.7374 6.16578 12.2 6.75078 12.2C7.33578 12.2 7.76418 11.7374 7.86678 11.2469C8.01042 10.5366 8.3586 9.8837 8.86848 9.36865C9.38387 8.85839 10.037 8.50963 10.7477 8.36515C11.2391 8.26345 11.7008 7.83595 11.7008 7.25005C11.7008 6.66505 11.2391 6.23665 10.7477 6.13495C10.0374 5.99056 9.38464 5.64213 8.86938 5.13235C8.35972 4.61629 8.01134 3.963 7.86678 3.25225C7.76508 2.76175 7.33668 2.30005 6.75168 2.30005Z" fill="white"/>
</svg>