<svg xmlns="http://www.w3.org/2000/svg" width="25" height="25" viewBox="0 0 25 25" fill="none">
  <path opacity="0.4" d="M6.58629 3.3529C6.67409 3.34079 6.75 3.4125 6.75 3.50113C6.75 5.15798 8.09314 6.50113 9.75 6.50113H15.25C16.9069 6.50113 18.2499 5.15798 18.2499 3.50113C18.2499 3.4125 18.326 3.34079 18.4138 3.3529C19.3139 3.47705 20.0615 3.74236 20.6519 4.33332C21.2537 4.93567 21.5125 5.69403 21.6335 6.59477C21.7501 7.46246 21.7501 8.56574 21.7501 9.93469V16.5503C21.7501 17.9193 21.7501 19.0226 21.6335 19.8903C21.5125 20.791 21.2537 21.5494 20.6519 22.1517C20.0501 22.7542 19.2921 23.0133 18.3919 23.1345C17.5249 23.2512 16.4225 23.2512 15.055 23.2511H9.94506C8.57752 23.2511 7.47516 23.2512 6.60816 23.1345C5.70792 23.0133 4.94999 22.7542 4.3481 22.1517C3.74631 21.5494 3.4875 20.791 3.36651 19.8903C3.24996 19.0226 3.24998 17.9193 3.25 16.5504V9.93465C3.24998 8.56574 3.24996 7.46244 3.36651 6.59477C3.4875 5.69403 3.74631 4.93567 4.3481 4.33332C4.93852 3.74236 5.68618 3.47705 6.58629 3.3529Z" fill="#F9F9F9"/>
  <path d="M8 3.5C8 2.5335 8.7835 1.75 9.75 1.75H15.2499C16.2164 1.75 16.9999 2.5335 16.9999 3.5C16.9999 4.4665 16.2164 5.25 15.2499 5.25H9.75C8.7835 5.25 8 4.4665 8 3.5Z" fill="#F9F9F9"/>
  <path fill-rule="evenodd" clip-rule="evenodd" d="M6.25 10.5C6.25 10.0858 6.58579 9.75 7 9.75H11C11.4142 9.75 11.75 10.0858 11.75 10.5C11.75 10.9142 11.4142 11.25 11 11.25H7C6.58579 11.25 6.25 10.9142 6.25 10.5Z" fill="#F9F9F9"/>
  <path fill-rule="evenodd" clip-rule="evenodd" d="M6.25 16.5C6.25 16.0858 6.58579 15.75 7 15.75H11C11.4142 15.75 11.75 16.0858 11.75 16.5C11.75 16.9142 11.4142 17.25 11 17.25H7C6.58579 17.25 6.25 16.9142 6.25 16.5Z" fill="#F9F9F9"/>
  <path d="M18.707 9.24982C18.8453 9.64027 18.6408 10.0689 18.2504 10.2072C18.0266 10.2864 17.7463 10.4666 17.4302 10.7438C17.1219 11.0142 16.8184 11.3422 16.5465 11.6681C16.276 11.9924 16.0458 12.3036 15.8829 12.5343C15.8018 12.6492 15.6761 12.8377 15.6332 12.9021C15.4882 13.1302 15.2315 13.263 14.9616 13.2492C14.6917 13.2354 14.4501 13.0774 14.3292 12.8356C14.1237 12.4246 13.9522 12.2864 13.8965 12.2492C13.8917 12.246 13.8875 12.2434 13.8839 12.2413C13.5248 12.1855 13.25 11.8749 13.25 11.5002C13.25 11.086 13.5858 10.7502 14 10.7502C14.3906 10.7502 14.5696 10.8952 14.7285 11.0012C14.8162 11.0596 14.9046 11.1294 14.9928 11.2119C15.1135 11.0534 15.2485 10.8825 15.3947 10.7073C15.6963 10.3457 16.0546 9.955 16.4411 9.61601C16.8199 9.28384 17.2675 8.96399 17.7496 8.79323C18.1401 8.65495 18.5687 8.85937 18.707 9.24982Z" fill="#F9F9F9"/>
  <path d="M18.707 15.2498C18.8453 15.6403 18.6408 16.0689 18.2504 16.2072C18.0266 16.2864 17.7463 16.4666 17.4302 16.7438C17.1219 17.0142 16.8184 17.3422 16.5465 17.6681C16.276 17.9924 16.0458 18.3036 15.8829 18.5343C15.8018 18.6492 15.6761 18.8377 15.6332 18.9021C15.4882 19.1302 15.2315 19.263 14.9616 19.2492C14.6917 19.2354 14.4501 19.0774 14.3292 18.8356C14.1237 18.4246 13.9522 18.2864 13.8965 18.2492C13.8917 18.246 13.8875 18.2434 13.8839 18.2413C13.5248 18.1855 13.25 17.8749 13.25 17.5002C13.25 17.086 13.5858 16.7502 14 16.7502C14.3906 16.7502 14.5696 16.8952 14.7285 17.0012C14.8162 17.0596 14.9046 17.1294 14.9928 17.2119C15.1135 17.0534 15.2485 16.8825 15.3947 16.7073C15.6963 16.3457 16.0546 15.955 16.4411 15.616C16.8199 15.2838 17.2675 14.964 17.7496 14.7932C18.1401 14.6549 18.5687 14.8594 18.707 15.2498Z" fill="#F9F9F9"/>
</svg>