<svg xmlns="http://www.w3.org/2000/svg" width="19" height="18" viewBox="0 0 19 18" fill="none">
  <path opacity="0.4" d="M7.62109 16.5H11.3711C13.4924 16.5 14.5531 16.5 15.2121 15.8404C15.8711 15.1808 15.8711 14.1191 15.8711 11.9958V7.11627C15.8711 4.99298 15.8711 3.93133 15.2121 3.27171C14.7315 2.79068 14.0374 2.66045 12.874 2.62518C12.874 3.35 12.2834 4.125 11.5586 4.125H7.43359C6.70873 4.125 6.12403 3.34987 6.12403 2.625C4.95718 2.66 4.26148 2.78988 3.7801 3.2717C3.12109 3.93133 3.12109 4.99298 3.12109 7.11627V11.9958C3.12109 14.1191 3.12109 15.1808 3.7801 15.8404C4.43911 16.5 5.49978 16.5 7.62109 16.5Z" fill="#BCBCBC"/>
  <path d="M6.12403 2.625C4.95718 2.66 4.26148 2.78988 3.7801 3.2717C3.12109 3.93133 3.12109 4.99298 3.12109 7.11627V11.9958C3.12109 14.1191 3.12109 15.1808 3.7801 15.8404C4.43911 16.5 5.49978 16.5 7.62109 16.5H11.3711C13.4924 16.5 14.5531 16.5 15.2121 15.8404C15.8711 15.1808 15.8711 14.1191 15.8711 11.9958V7.11627C15.8711 4.99298 15.8711 3.93133 15.2121 3.27171C14.7307 2.78988 14.035 2.66 12.8682 2.625" stroke="#BCBCBC" stroke-width="1.5"/>
  <path d="M6.12109 2.8125C6.12109 2.08763 6.70873 1.5 7.43359 1.5H11.5586C12.2835 1.5 12.8711 2.08763 12.8711 2.8125C12.8711 3.53737 12.2835 4.125 11.5586 4.125H7.43359C6.70873 4.125 6.12109 3.53737 6.12109 2.8125Z" stroke="#BCBCBC" stroke-width="1.5" stroke-linejoin="round"/>
  <path d="M5.375 7.5H8.375" stroke="#BCBCBC" stroke-width="1.5" stroke-linecap="round"/>
  <path d="M10.625 8.25C10.625 8.25 11 8.25 11.375 9C11.375 9 12.5661 7.125 13.625 6.75" stroke="#BCBCBC" stroke-width="1.5" stroke-linecap="round" stroke-linejoin="round"/>
  <path d="M5.375 12H8.375" stroke="#BCBCBC" stroke-width="1.5" stroke-linecap="round"/>
  <path d="M10.625 12.75C10.625 12.75 11 12.75 11.375 13.5C11.375 13.5 12.5661 11.625 13.625 11.25" stroke="#BCBCBC" stroke-width="1.5" stroke-linecap="round" stroke-linejoin="round"/>
</svg>