<svg xmlns="http://www.w3.org/2000/svg" width="24" height="24" viewBox="0 0 24 24" fill="none">
  <g clip-path="url(#clip0_649_11919)">
    <path d="M7.12267 13.4322C7.45561 13.0503 7.1844 12.4539 6.6777 12.4539H5.16065C5.15054 12.3028 5.1454 12.1515 5.14525 12C5.14525 8.22025 8.22027 5.14522 12 5.14522C13.8164 5.14522 15.4698 5.8556 16.6976 7.01282L18.8368 4.51025C16.9642 2.7972 14.5543 1.85889 12 1.85889C9.29122 1.85889 6.74458 2.91377 4.82916 4.82914C2.9138 6.74455 1.85891 9.2912 1.85891 12C1.85891 12.1519 1.8627 12.3031 1.86931 12.4539H0.59149C0.0847934 12.4539 -0.186469 13.0502 0.146521 13.4322L3.0291 16.7386L3.63457 17.4331L5.80841 14.9396L7.12267 13.4322ZM23.8535 11.5031L21.7035 9.03689L20.3655 7.50209L18.4551 9.69341L16.8774 11.5031C16.5445 11.885 16.8157 12.4813 17.3224 12.4813H18.8377C18.5898 16.0373 15.6179 18.8548 12 18.8548C10.4208 18.8548 8.96469 18.3176 7.80438 17.4168L5.66506 19.9196C7.45725 21.3588 9.66837 22.1411 12.0001 22.1411C14.7089 22.1411 17.2555 21.0863 19.1709 19.1709C20.9724 17.3693 22.0124 15.0094 22.1298 12.4814H23.4086C23.9153 12.4813 24.1865 11.885 23.8535 11.5031Z" fill="url(#paint0_linear_649_11919)"/>
  </g>
  <defs>
    <linearGradient id="paint0_linear_649_11919" x1="12" y1="1.85889" x2="12" y2="22.1411" gradientUnits="userSpaceOnUse">
      <stop stop-color="#7A43A4"/>
      <stop offset="1" stop-color="#6049BC"/>
    </linearGradient>
    <clipPath id="clip0_649_11919">
      <rect width="24" height="24" fill="white"/>
    </clipPath>
  </defs>
</svg>