<svg xmlns="http://www.w3.org/2000/svg" width="16" height="17" viewBox="0 0 16 17" fill="none">
  <path d="M13.1161 7.43021C13.0933 7.40735 13.0662 7.38921 13.0363 7.37683C13.0065 7.36446 12.9745 7.35809 12.9422 7.35809C12.9099 7.35809 12.8779 7.36446 12.8481 7.37683C12.8183 7.38921 12.7912 7.40735 12.7684 7.43021L11.6065 8.58933C11.5725 8.6239 11.5493 8.66771 11.54 8.71531C11.5306 8.76291 11.5354 8.81223 11.5538 8.85713C11.5721 8.90203 11.6033 8.94055 11.6434 8.96791C11.6834 8.99528 11.7307 9.01028 11.7792 9.01105L11.9937 9.0113C11.9863 9.06309 11.9814 9.11735 11.974 9.16914C11.1219 14.5721 3.44533 14.2473 2.98784 8.81893C2.92579 7.67397 3.30043 6.5481 4.03615 5.66861C4.77187 4.78911 5.81387 4.2215 6.95179 4.08035C7.703 4.02116 8.02386 2.95033 7.43271 2.46498C7.33585 2.37957 7.22214 2.31545 7.09894 2.27675C6.97575 2.23805 6.8458 2.22563 6.7175 2.2403C5.05262 2.45358 3.53809 3.31216 2.50005 4.63117C1.462 5.95017 0.983484 7.62409 1.16753 9.29245C2.2174 16.7658 12.7082 16.7777 13.8242 9.31711C13.8365 9.21846 13.8463 9.11488 13.8537 9.0113C14.0025 9.00809 14.2688 9.05199 14.3297 8.85839C14.3485 8.81347 14.3537 8.76399 14.3445 8.71616C14.3352 8.66833 14.3121 8.62429 14.2779 8.58958L13.1161 7.43021ZM14.5887 1.71253C14.4786 1.60228 14.3479 1.51482 14.204 1.45514C14.0601 1.39546 13.9058 1.36475 13.75 1.36475C13.5943 1.36475 13.44 1.39546 13.2961 1.45514C13.1522 1.51482 13.0215 1.60228 12.9114 1.71253L12.4847 2.14165L14.1642 3.82139L14.5911 3.39227C14.7015 3.28195 14.789 3.15093 14.8487 3.00672C14.9083 2.86251 14.9389 2.70794 14.9386 2.55189C14.9384 2.39584 14.9074 2.24137 14.8473 2.09733C14.7873 1.9533 14.6994 1.82253 14.5887 1.71253Z" fill="#F9F9F9"/>
  <path d="M5.71824 10.2349C5.69935 10.2804 5.69439 10.3305 5.70399 10.3789C5.71359 10.4272 5.73732 10.4717 5.77218 10.5065C5.80703 10.5414 5.85145 10.5651 5.8998 10.5747C5.94815 10.5843 5.99826 10.5793 6.04379 10.5604L8.24414 9.60355L6.67563 8.03454L5.71824 10.2349ZM8.64885 9.30982L13.7916 4.16924L12.1122 2.48975L6.96886 7.63008L8.64885 9.30982Z" fill="#F9F9F9"/>
</svg>