<svg xmlns="http://www.w3.org/2000/svg" width="16" height="17" viewBox="0 0 16 17" fill="none">
  <path d="M3.09273 14.189C3.09273 14.3199 3.1447 14.4453 3.2372 14.5378C3.3297 14.6303 3.45516 14.6823 3.58597 14.6823H12.4644C12.5952 14.6823 12.7206 14.6303 12.8131 14.5378C12.9056 14.4453 12.9576 14.3199 12.9576 14.189V12.7093H3.09273V14.189ZM14.2435 4.42529C14.17 4.36945 14.0824 4.33524 13.9906 4.32653C13.8987 4.31781 13.8062 4.33493 13.7236 4.37596L10.2571 6.10922L8.48339 1.67496C8.44686 1.58327 8.38367 1.50465 8.30198 1.44926C8.22029 1.39387 8.12386 1.36426 8.02516 1.36426C7.92647 1.36426 7.83004 1.39387 7.74835 1.44926C7.66666 1.50465 7.60347 1.58327 7.56694 1.67496L5.79324 6.10922L2.32672 4.37596C2.24413 4.33475 2.15163 4.31755 2.05974 4.3263C1.96786 4.33506 1.88027 4.36942 1.80694 4.42548C1.73362 4.48154 1.67749 4.55705 1.64495 4.64343C1.61241 4.72981 1.60476 4.82358 1.62287 4.91409L2.98422 11.7228H13.0661L14.4275 4.91409C14.4455 4.82364 14.4379 4.72993 14.4053 4.64361C14.3728 4.5573 14.3167 4.48183 14.2435 4.42578V4.42529ZM8.02516 9.74985C7.73234 9.71369 7.46525 9.56448 7.28093 9.33408C7.09662 9.10369 7.00968 8.81036 7.03868 8.51674C7.00968 8.22312 7.09662 7.92979 7.28093 7.6994C7.46525 7.469 7.73234 7.31979 8.02516 7.28363C8.31799 7.31979 8.58508 7.469 8.76939 7.6994C8.95371 7.92979 9.04065 8.22312 9.01165 8.51674C9.04065 8.81036 8.95371 9.10369 8.76939 9.33408C8.58508 9.56448 8.31799 9.71369 8.02516 9.74985Z" fill="#F9F9F9"/>
</svg>