<svg xmlns="http://www.w3.org/2000/svg" width="18" height="18" viewBox="0 0 18 18" fill="none">
  <path opacity="0.4" fill-rule="evenodd" clip-rule="evenodd" d="M2.91843 2.91843C1.875 3.96187 1.875 5.64124 1.875 9C1.875 12.3587 1.875 14.0381 2.91843 15.0816C3.96187 16.125 5.64124 16.125 9 16.125C12.3587 16.125 14.0381 16.125 15.0816 15.0816C16.125 14.0381 16.125 12.3587 16.125 9C16.125 5.64124 16.125 3.96187 15.0816 2.91843C14.0381 1.875 12.3587 1.875 9 1.875C5.64124 1.875 3.96187 1.875 2.91843 2.91843ZM11.491 5.49349L9.30105 6.22347C8.1684 6.60102 7.60208 6.78979 7.19593 7.19593C6.78979 7.60208 6.60102 8.1684 6.22347 9.30105L5.49349 11.491C5.27193 12.1556 5.16115 12.488 5.33658 12.6635C5.51201 12.8389 5.84435 12.7281 6.50903 12.5065L8.69895 11.7765C9.8316 11.3989 10.3979 11.2102 10.8041 10.8041C11.2102 10.3979 11.3989 9.8316 11.7765 8.69895L12.5065 6.50903C12.7281 5.84436 12.8389 5.51201 12.6635 5.33658C12.488 5.16115 12.1556 5.27193 11.491 5.49349Z" fill="#BCBCBC"/>
  <path d="M9.30105 6.22347L11.491 5.49349C12.1556 5.27193 12.488 5.16115 12.6635 5.33658C12.8389 5.51201 12.7281 5.84435 12.5065 6.50903L11.7765 8.69895C11.399 9.8316 11.2102 10.3979 10.8041 10.8041C10.3979 11.2102 9.8316 11.399 8.69895 11.7765L6.50903 12.5065C5.84435 12.7281 5.51201 12.8389 5.33658 12.6635C5.16115 12.488 5.27193 12.1556 5.49349 11.491L6.22347 9.30105C6.60102 8.1684 6.7898 7.60208 7.19593 7.19593C7.60208 6.7898 8.1684 6.60102 9.30105 6.22347Z" stroke="#BCBCBC" stroke-width="1.5" stroke-linecap="round" stroke-linejoin="round"/>
  <path d="M9.00089 9L8.99609 9.0048" stroke="#BCBCBC" stroke-width="1.5" stroke-linecap="round" stroke-linejoin="round"/>
  <path d="M1.875 9C1.875 5.64124 1.875 3.96187 2.91843 2.91843C3.96187 1.875 5.64124 1.875 9 1.875C12.3587 1.875 14.0381 1.875 15.0816 2.91843C16.125 3.96187 16.125 5.64124 16.125 9C16.125 12.3587 16.125 14.0381 15.0816 15.0816C14.0381 16.125 12.3587 16.125 9 16.125C5.64124 16.125 3.96187 16.125 2.91843 15.0816C1.875 14.0381 1.875 12.3587 1.875 9Z" stroke="#BCBCBC" stroke-width="1.5" stroke-linecap="round" stroke-linejoin="round"/>
</svg>