<svg xmlns="http://www.w3.org/2000/svg" width="24" height="25" viewBox="0 0 24 25" fill="none">
  <g clip-path="url(#clip0_716_10350)">
    <path d="M22.2145 9.35853H16.541C17.2035 8.43931 17.5943 7.31197 17.5943 6.09491C17.5943 3.00987 15.0844 0.5 11.9993 0.5C8.91427 0.5 6.40439 3.00987 6.40439 6.09491C6.40439 7.31197 6.79523 8.43931 7.45767 9.35853H1.78552C0.801 9.35853 0 10.1595 0 11.144V20.1607C0 21.1452 0.801 21.9462 1.78552 21.9462H9.50691L11.6498 24.3436C11.6938 24.3928 11.7477 24.4321 11.8079 24.4591C11.8681 24.486 11.9333 24.5 11.9992 24.5H11.9993C12.0653 24.5 12.1305 24.4861 12.1907 24.4592C12.2509 24.4322 12.3048 24.3929 12.3488 24.3438L14.4931 21.9462H22.2145C23.199 21.9462 24 21.1453 24 20.1607V11.144C24 10.1595 23.199 9.35853 22.2145 9.35853ZM11.9993 1.4375C14.5674 1.4375 16.6567 3.52681 16.6567 6.09491C16.6567 8.663 14.5674 10.7524 11.9993 10.7524C9.4312 10.7524 7.34189 8.66305 7.34189 6.09491C7.34189 3.52677 9.4312 1.4375 11.9993 1.4375ZM23.0625 20.1607C23.0625 20.6283 22.6821 21.0087 22.2145 21.0087H14.2834C14.2175 21.0087 14.1523 21.0226 14.092 21.0495C14.0318 21.0765 13.978 21.1158 13.934 21.1649L11.9994 23.328L10.0661 21.1651C10.0222 21.1159 9.9683 21.0765 9.90807 21.0496C9.84785 21.0226 9.78261 21.0087 9.71663 21.0087H1.78552C1.31789 21.0087 0.9375 20.6283 0.9375 20.1607V11.144C0.9375 10.6765 1.31789 10.296 1.78552 10.296H8.3085C9.29428 11.1631 10.5863 11.6899 11.9993 11.6899C13.4122 11.6899 14.7044 11.1631 15.6901 10.296H22.2145C22.6821 10.296 23.0625 10.6765 23.0625 11.144V20.1607Z" fill="white"/>
    <path d="M15.3239 12.9727C15.0651 12.9727 14.8552 13.1826 14.8552 13.4414V17.9604C14.8552 18.2193 15.0651 18.4291 15.3239 18.4291C15.5828 18.4291 15.7927 18.2193 15.7927 17.9604V13.4414C15.7927 13.1826 15.5828 12.9727 15.3239 12.9727ZM20.9365 17.4916H18.7865L21.2588 13.6973C21.3049 13.6266 21.331 13.5447 21.3344 13.4604C21.3378 13.376 21.3184 13.2923 21.2781 13.2181C21.2379 13.1439 21.1784 13.0819 21.1058 13.0387C21.0333 12.9955 20.9504 12.9727 20.866 12.9727H18.0146C17.7557 12.9727 17.5458 13.1826 17.5458 13.4414C17.5458 13.7003 17.7557 13.9102 18.0146 13.9102H20.0011L17.5289 17.7045C17.4828 17.7752 17.4566 17.8571 17.4532 17.9415C17.4497 18.0258 17.4692 18.1095 17.5094 18.1838C17.5496 18.258 17.6092 18.32 17.6817 18.3632C17.7543 18.4064 17.8372 18.4292 17.9216 18.4291H20.9365C21.1953 18.4291 21.4052 18.2193 21.4052 17.9604C21.4052 17.7015 21.1953 17.4916 20.9365 17.4916ZM12.7157 12.9727C12.4569 12.9727 12.247 13.1826 12.247 13.4414V16.548C12.247 16.7726 12.1854 17.1021 11.6522 17.3708C11.494 17.451 11.314 17.4916 11.1191 17.4916C10.8996 17.4908 10.7092 17.4367 10.536 17.3258C10.1871 17.1036 10.0448 16.879 10.0448 16.5506V13.4414C10.0448 13.1825 9.83486 12.9726 9.57601 12.9726C9.31717 12.9726 9.10726 13.1825 9.10726 13.4414V16.5506C9.10726 17.2079 9.40989 17.7201 10.0315 18.116C10.3535 18.3222 10.7183 18.4275 11.1173 18.4291C11.4625 18.4291 11.785 18.3545 12.075 18.2076C12.992 17.7456 13.1845 17.0501 13.1845 16.548V13.4414C13.1845 13.1826 12.9745 12.9727 12.7157 12.9727ZM7.56761 17.2477C7.87159 16.8076 8.05023 16.2745 8.05023 15.7003C8.05023 14.1963 6.82666 12.9727 5.32267 12.9727C3.81794 12.9727 2.59375 14.1963 2.59375 15.7003C2.59375 17.205 3.81794 18.4291 5.32267 18.4291C5.91484 18.4291 6.46314 18.2387 6.9108 17.9167L7.26733 18.2733C7.35887 18.3648 7.47883 18.4106 7.59878 18.4106C7.71873 18.4106 7.83869 18.3648 7.93023 18.2733C8.11328 18.0902 8.11328 17.7934 7.93023 17.6104L7.56761 17.2477ZM5.32272 17.4916C4.33492 17.4916 3.5313 16.688 3.5313 15.7003C3.5313 14.7132 4.33492 13.9102 5.32272 13.9102C6.30977 13.9102 7.11278 14.7132 7.11278 15.7003C7.11307 16.004 7.0357 16.3027 6.88801 16.5681L6.48466 16.1647C6.30156 15.9816 6.00484 15.9816 5.8217 16.1647C5.63866 16.3477 5.63866 16.6446 5.8217 16.8276L6.23486 17.2408C5.95905 17.4052 5.64384 17.4919 5.32272 17.4916ZM11.9995 8.73941C11.7406 8.73941 11.5307 8.94927 11.5307 9.20816V9.21084C11.5307 9.46973 11.7406 9.67827 11.9995 9.67827C12.2583 9.67827 12.4682 9.4671 12.4682 9.20821C12.4682 8.94932 12.2583 8.73941 11.9995 8.73941ZM10.5777 4.8696C10.8366 4.8696 11.0465 4.65974 11.0465 4.40085C11.0465 4.35196 11.0493 4.30841 11.0553 4.26674C11.1223 3.78946 11.5367 3.43823 12.0186 3.44643C12.5161 3.45716 12.926 3.85382 12.9518 4.34948C12.9655 4.6139 12.8729 4.86496 12.6911 5.05645C12.509 5.24826 12.2634 5.35387 11.9995 5.35387C11.7406 5.35387 11.5307 5.56373 11.5307 5.82262V7.30945C11.5307 7.56834 11.7406 7.7782 11.9995 7.7782C12.2583 7.7782 12.4682 7.56834 12.4682 7.30945V6.23179C12.8099 6.1438 13.125 5.96113 13.3711 5.70196C13.7316 5.32218 13.9152 4.8246 13.888 4.30082C13.8368 3.31743 13.0246 2.53045 12.0381 2.50916C12.0253 2.50892 12.0126 2.5088 11.9998 2.50879C11.0596 2.50879 10.258 3.20226 10.127 4.13535C10.1147 4.22332 10.1086 4.31207 10.109 4.4009C10.109 4.65974 10.3189 4.8696 10.5777 4.8696Z" fill="white"/>
  </g>
  <defs>
    <clipPath id="clip0_716_10350">
      <rect width="24" height="24" fill="white" transform="translate(0 0.5)"/>
    </clipPath>
  </defs>
</svg>