<svg xmlns="http://www.w3.org/2000/svg" width="25" height="24" viewBox="0 0 25 24" fill="none">
  <g clip-path="url(#clip0_649_10358)">
    <path d="M14.9208 21.6483C14.7249 21.6972 14.5275 21.7399 14.3289 21.7766C13.8125 21.8726 13.471 22.3693 13.5665 22.8863C13.6116 23.1307 13.7508 23.3478 13.9542 23.4907C14.0578 23.5639 14.1751 23.6155 14.299 23.6426C14.4229 23.6697 14.551 23.6717 14.6757 23.6484C14.9122 23.6045 15.1473 23.5535 15.3807 23.4953C15.8907 23.3684 16.2014 22.8517 16.0742 22.342C15.9473 21.8318 15.4311 21.5213 14.9208 21.6483ZM21.9591 8.89101C22.023 9.08437 22.1474 9.25207 22.3139 9.3693C22.5522 9.5372 22.8642 9.59369 23.1619 9.49526C23.6609 9.32955 23.9313 8.79141 23.7662 8.2926C23.6906 8.06427 23.608 7.8383 23.5186 7.615C23.3234 7.12693 22.7698 6.88931 22.2814 7.08454C21.7936 7.27966 21.5559 7.83344 21.7513 8.32166C21.8264 8.50928 21.8957 8.69915 21.9591 8.89101ZM18.0135 20.2894C17.8449 20.4008 17.6729 20.5071 17.4978 20.6081C17.0423 20.8708 16.8863 21.453 17.1489 21.9082C17.2178 22.0278 17.3118 22.131 17.4246 22.2106C17.7182 22.4172 18.1169 22.4481 18.4489 22.2569C18.6573 22.1367 18.8621 22.0102 19.0628 21.8776C19.5012 21.588 19.6219 20.9975 19.3321 20.5589C19.0423 20.1201 18.4521 19.9996 18.0135 20.2894ZM24.358 11.5493C24.3373 11.024 23.8948 10.6151 23.3693 10.6356C22.8445 10.6563 22.4353 11.0989 22.456 11.624C22.4638 11.8248 22.4659 12.0286 22.4613 12.2292C22.4539 12.5586 22.615 12.8523 22.8654 13.0288C23.0198 13.1375 23.2031 13.1978 23.3919 13.2018C23.9172 13.2135 24.3526 12.7968 24.3642 12.2713C24.3695 12.0316 24.3675 11.7888 24.358 11.5493ZM21.8038 17.7856C21.3826 17.4696 20.7866 17.5554 20.4711 17.9759C20.3498 18.1374 20.2237 18.2952 20.0928 18.4491C19.7523 18.8491 19.8004 19.4499 20.2004 19.7907C20.2232 19.81 20.2463 19.8278 20.2702 19.8445C20.6679 20.1248 21.2206 20.0604 21.5421 19.6831C21.6984 19.4994 21.849 19.311 21.9937 19.1181C22.3093 18.6976 22.2239 18.1012 21.8038 17.7856ZM23.2029 14.3451C22.7013 14.1878 22.1672 14.467 22.01 14.9686C21.9495 15.1614 21.8832 15.3524 21.8112 15.5413C21.6532 15.9564 21.8046 16.4131 22.1517 16.6578C22.2168 16.7036 22.2873 16.7411 22.3617 16.7693C22.8528 16.9567 23.4027 16.7103 23.5899 16.219C23.6754 15.9944 23.7542 15.7672 23.8263 15.538C23.9833 15.0363 23.7043 14.5023 23.2029 14.3451ZM10.7683 21.7851C9.92414 21.6341 9.10342 21.3733 8.327 21.0093C8.31784 21.0045 8.30964 20.9991 8.30002 20.9947C8.11706 20.9087 7.93666 20.8173 7.75902 20.7208C7.75841 20.7201 7.75729 20.7196 7.75633 20.7192C7.43007 20.5395 7.11395 20.3419 6.8094 20.1274C2.33219 16.9736 1.25569 10.7652 4.40977 6.288C5.09561 5.31482 5.92558 4.50291 6.85088 3.85942C6.86228 3.85148 6.87368 3.84359 6.88498 3.8356C10.1456 1.58895 14.573 1.43754 18.0352 3.74618L17.2916 4.82059C17.0849 5.11964 17.212 5.33757 17.5739 5.305L20.804 5.01582C21.1664 4.98325 21.3831 4.66979 21.2856 4.31985L20.4182 1.19468C20.3211 0.844329 20.0725 0.802393 19.8656 1.10139L19.1202 2.17835C16.5794 0.472756 13.532 -0.177613 10.5072 0.346896C10.2044 0.399432 9.90379 0.463605 9.60595 0.539274C9.60366 0.539681 9.60183 0.539935 9.6 0.540342C9.58854 0.543141 9.57694 0.546857 9.56579 0.549961C6.9575 1.21977 4.6818 2.74103 3.05794 4.91154C3.04425 4.92777 3.03015 4.94365 3.01722 4.96131C2.96297 5.0345 2.90961 5.10836 2.85716 5.18285C2.77101 5.3052 2.68723 5.4292 2.60585 5.55478C2.59572 5.56985 2.58799 5.58516 2.57913 5.60038C1.2391 7.67689 0.592755 10.0775 0.703601 12.5215C0.703856 12.5296 0.703398 12.5377 0.703601 12.5459C0.7146 12.7861 0.733066 13.0259 0.758974 13.265C0.760348 13.2804 0.763758 13.2949 0.766353 13.3103C0.792816 13.5512 0.826727 13.7913 0.868038 14.0302C1.29269 16.4801 2.44838 18.6847 4.18014 20.4C4.18416 20.404 4.18833 20.4084 4.1924 20.4126C4.19383 20.4142 4.19541 20.415 4.19678 20.4165C4.66649 20.8798 5.17363 21.3037 5.71305 21.6836C7.13909 22.6884 8.72702 23.3527 10.4324 23.6587C10.9498 23.7517 11.4441 23.4072 11.5369 22.89C11.6297 22.3725 11.2855 21.8778 10.7683 21.7851Z" fill="#F9F9F9"/>
    <path d="M11.9383 4.31738C11.5127 4.31738 11.168 4.66244 11.168 5.08745V12.7595L18.1847 16.3867C18.2937 16.4433 18.4147 16.4728 18.5375 16.4727C18.8162 16.4727 19.0854 16.321 19.2222 16.0562C19.4174 15.6782 19.2697 15.2139 18.8918 15.0188L12.7079 11.8217V5.08745C12.7078 4.66244 12.3635 4.31738 11.9383 4.31738Z" fill="#F9F9F9"/>
  </g>
  <defs>
    <clipPath id="clip0_649_10358">
      <rect width="23.6757" height="23.6757" fill="white" transform="translate(0.707031 0.0869141)"/>
    </clipPath>
  </defs>
</svg>