<svg xmlns="http://www.w3.org/2000/svg" width="41" height="41" viewBox="0 0 41 41" fill="none">
  <g clip-path="url(#clip0_649_12567)">
    <path d="M37.1527 7.65039H3.60366C1.97149 7.65039 0.648438 8.97344 0.648438 10.6056V30.548C0.648438 32.1801 1.97149 33.5032 3.60366 33.5032H37.1527C38.7848 33.5032 40.1079 32.1801 40.1079 30.548V10.6056C40.1079 8.97344 38.7848 7.65039 37.1527 7.65039Z" fill="#41479B"/>
    <path d="M40.067 10.1171C39.8341 8.71765 38.6183 7.65039 37.1527 7.65039H36.3838L23.7798 15.9081V7.65047H16.9765V15.9082L4.37258 7.65047H3.60366C2.13803 7.65047 0.922265 8.71765 0.689361 10.1172L11.4619 17.1752H0.648438V23.9786H11.4619L0.689361 31.0364C0.922265 32.4359 2.13803 33.5032 3.60366 33.5032H4.37258L16.9765 25.2455V33.5032H23.7798V25.2455L36.3838 33.5032H37.1527C38.6183 33.5032 39.8341 32.436 40.067 31.0364L29.2944 23.9784H40.1079V17.1751H29.2944L40.067 10.1171Z" fill="#F5F5F5"/>
    <path d="M22.4192 7.65039H18.3371V18.5357H0.648438V22.6178H18.3371V33.5031H22.4192V22.6178H40.1079V18.5357H22.4192V7.65039Z" fill="#FF4B55"/>
    <path d="M2.56747 33.3116L16.9473 23.9774H14.4481L1.36758 32.4683C1.69044 32.8456 2.10308 33.1356 2.56747 33.3116ZM27.3526 23.9774H24.8534L38.781 33.018C39.1716 32.7614 39.496 32.4161 39.728 32.0104L27.3526 23.9774ZM0.96875 9.28317L13.1249 17.1741H15.6241L1.84934 8.23248C1.47782 8.50917 1.17624 8.869 0.96875 9.28317ZM26.2873 17.1741L39.3918 8.66754C39.0654 8.29115 38.6492 8.00327 38.1819 7.83057L23.7881 17.1741H26.2873Z" fill="#FF4B55"/>
  </g>
  <defs>
    <clipPath id="clip0_649_12567">
      <rect width="39.4595" height="39.4595" fill="white" transform="translate(0.667969 0.850098)"/>
    </clipPath>
  </defs>
</svg>