<svg xmlns="http://www.w3.org/2000/svg" width="18" height="19" viewBox="0 0 18 19" fill="none">
<path d="M9.15016 9.34992L8.09263 10.4074C7.50763 10.9924 7.50763 11.9449 8.09263 12.5299C8.67763 13.1149 9.63015 13.1149 10.2151 12.5299L11.8802 10.8649C13.0502 9.69493 13.0502 7.79743 11.8802 6.61993C10.7102 5.44993 8.81264 5.44993 7.63514 6.61993L5.82016 8.43492C4.81516 9.43992 4.81516 11.0674 5.82016 12.0724" stroke="#BCBCBC" stroke-width="1.5" stroke-linecap="round" stroke-linejoin="round"/>
<path d="M6.75 17H11.25C15 17 16.5 15.5 16.5 11.75V7.25C16.5 3.5 15 2 11.25 2H6.75C3 2 1.5 3.5 1.5 7.25V11.75C1.5 15.5 3 17 6.75 17Z" stroke="#BCBCBC" stroke-width="1.5" stroke-linecap="round" stroke-linejoin="round"/>
</svg>