<svg xmlns="http://www.w3.org/2000/svg" width="70" height="70" viewBox="0 0 70 70" fill="none">
<rect x="0.421875" y="0.384277" width="69.0541" height="69.0541" rx="27.6216" fill="#82C8E5" fill-opacity="0.18"/>
<rect x="1.40836" y="1.37076" width="67.0811" height="67.0811" rx="26.6351" stroke="#82C8E5" stroke-opacity="0.57" stroke-width="1.97297"/>
<path opacity="0.4" d="M34.2902 48.886H32.8105C27.2301 48.886 24.4399 48.886 22.7063 47.2487C20.9727 45.6115 20.9727 42.9762 20.9727 37.7058V32.1157C20.9727 26.8453 20.9727 24.2102 22.7063 22.5728C24.4399 20.9355 27.2301 20.9355 32.8105 20.9355H40.5378C40.761 20.9355 40.9811 20.9486 41.1975 20.974C37.6852 21.3427 34.9479 24.3133 34.9479 27.9232C34.9479 31.7823 38.0764 34.9108 41.9355 34.9108C43.5085 34.9108 44.9602 34.391 46.1279 33.5138V38.2907C46.1255 43.1735 46.0627 45.6731 44.3944 47.2487C42.6608 48.886 39.8707 48.886 34.2902 48.886Z" fill="#82C8E5"/>
<path d="M39.1406 28.6222C39.1406 28.6222 39.8394 28.6222 40.5381 30.0197C40.5381 30.0197 42.7577 26.5259 44.7307 25.8271" stroke="#82C8E5" stroke-opacity="0.57" stroke-width="2.07162" stroke-linecap="round" stroke-linejoin="round"/>
<path d="M48.9244 27.9232C48.9244 31.7823 45.796 34.9108 41.9368 34.9108C38.0777 34.9108 34.9492 31.7823 34.9492 27.9232C34.9492 24.064 38.0777 20.9355 41.9368 20.9355C45.796 20.9355 48.9244 24.064 48.9244 27.9232Z" stroke="#82C8E5" stroke-opacity="0.57" stroke-width="2.07162" stroke-linecap="round"/>
<path d="M32.7139 20.9663C29.2222 20.8184 25.9564 21.2201 25.9564 21.2201C24.253 21.3419 20.9887 22.2969 20.9887 27.8739C20.9887 33.4037 20.9526 40.2206 20.9887 42.9384C20.9887 44.5987 22.0167 48.4717 25.5751 48.6793C29.9002 48.9315 37.6907 48.9852 41.2653 48.6793C42.2221 48.6253 45.4077 47.8742 45.8109 44.4082C46.2286 40.8175 46.1455 38.322 46.1455 37.728" stroke="#82C8E5" stroke-opacity="0.57" stroke-width="2.07162" stroke-linecap="round" stroke-linejoin="round"/>
<path d="M27.9609 36.3086H33.551" stroke="#82C8E5" stroke-opacity="0.57" stroke-width="2.07162" stroke-linecap="round"/>
<path d="M27.9609 41.8984H39.1411" stroke="#82C8E5" stroke-opacity="0.57" stroke-width="2.07162" stroke-linecap="round"/>
</svg>