<svg xmlns="http://www.w3.org/2000/svg" width="16" height="13" viewBox="0 0 16 13" fill="none">
  <path d="M4.38253 9.37244L3.8251 11.8566H0.614086C0.350447 11.8566 0.136719 12.0703 0.136719 12.3339C0.136719 12.5975 0.350478 12.8112 0.614055 12.8112H4.20721C4.24297 12.8112 4.27765 12.8069 4.31113 12.7996C4.31138 12.7996 4.31162 12.7997 4.31175 12.7996L7.1687 12.1586L4.38253 9.37244ZM15.2806 4.35026C15.6933 3.93773 15.9205 3.38896 15.9205 2.8054C15.9205 2.22183 15.6933 1.67322 15.2807 1.26053H15.2806C14.8679 0.847806 14.3193 0.620605 13.7357 0.620605C13.1522 0.620605 12.6034 0.847836 12.1909 1.26053L12.0583 1.39309L15.148 4.48289L15.2806 4.35026ZM4.90561 8.54561L11.3831 2.06818L14.4728 5.15795L7.9955 11.6353L4.90561 8.54561Z" fill="#F9F9F9"/>
</svg>